<svg width="122" height="122" viewBox="0 0 122 122" fill="none" xmlns="http://www.w3.org/2000/svg">
<circle cx="61" cy="61" r="60" stroke="#39251A" stroke-dasharray="5 5"/>
<path d="M61.6731 16.1057L64.5903 8.68946L67.3949 8.9591L68.8338 16.7941L66.9482 16.6129L65.946 10.0604L65.8088 10.0472L63.5587 16.287L61.6731 16.1057ZM63.7016 14.488L63.841 13.0379L67.2782 13.3684L67.1388 14.8184L63.7016 14.488Z" fill="#39251A"/>
<path d="M74.1206 18.2888C73.7828 18.1909 73.5148 18.0529 73.3168 17.8749C73.1187 17.6968 72.98 17.4861 72.9008 17.2426C72.8227 16.9952 72.7943 16.727 72.8157 16.4377L72.3608 16.3059L73.1248 15.2416C73.0647 15.478 73.0534 15.689 73.0912 15.8747C73.1289 16.0604 73.2137 16.2202 73.3455 16.3541C73.4784 16.4841 73.6504 16.5797 73.8615 16.6409C74.184 16.7343 74.455 16.7109 74.6746 16.5707C74.8952 16.4266 75.0606 16.1645 75.1708 15.7845L75.4027 14.9841C75.5117 14.6079 75.5109 14.3019 75.4003 14.0659C75.2936 13.8311 75.079 13.667 74.7566 13.5736C74.5762 13.5213 74.4011 13.508 74.2313 13.5337C74.0655 13.5606 73.914 13.6165 73.777 13.7017C73.6449 13.7841 73.5347 13.8915 73.4464 14.0241L73.2844 13.0971L73.768 13.2372C73.899 13.0005 74.0592 12.7994 74.2487 12.6338C74.4393 12.4643 74.6689 12.354 74.9375 12.3028C75.2111 12.249 75.5302 12.2749 75.8949 12.3805C76.5552 12.5718 76.9913 12.9333 77.2035 13.465C77.4205 13.9939 77.4039 14.6902 77.1537 15.5539L76.9535 16.2448C76.701 17.1162 76.3394 17.725 75.8687 18.0713C75.3981 18.4176 74.8153 18.4901 74.1206 18.2888ZM70.6984 17.1537L72.9023 9.54736L74.6528 10.0546L74.1623 11.7474L73.6079 13.5528L73.5686 13.71L72.9396 15.8807L72.8124 16.2121L72.4488 17.6608L70.6984 17.1537Z" fill="#39251A"/>
<path d="M80.7206 20.886C79.8684 20.4636 79.3286 19.9328 79.1012 19.2937C78.8792 18.6528 78.959 17.9474 79.3406 17.1776L79.6841 16.4847C80.0711 15.7041 80.5895 15.2073 81.2393 14.9941C81.891 14.7774 82.6411 14.8794 83.4897 15.3001C84.3384 15.7208 84.8719 16.2552 85.0904 16.9032C85.3142 17.5495 85.2327 18.2629 84.8457 19.0435L84.5022 19.7364C84.1206 20.5062 83.6075 20.9968 82.963 21.2081C82.3203 21.4159 81.5728 21.3085 80.7206 20.886ZM81.3623 19.5916C81.6667 19.7425 81.9429 19.7657 82.191 19.6612C82.4444 19.5548 82.6554 19.3316 82.8241 18.9914L83.2368 18.1589C83.4143 17.8008 83.4686 17.4888 83.3998 17.2227C83.3345 16.9584 83.1497 16.7508 82.8454 16.5999C82.541 16.449 82.2621 16.4268 82.0087 16.5331C81.7588 16.6412 81.5451 16.8743 81.3676 17.2323L80.9549 18.0648C80.7863 18.405 80.7346 18.7072 80.7999 18.9715C80.8705 19.234 81.0579 19.4407 81.3623 19.5916Z" fill="#39251A"/>
<path d="M90.3302 19.4933L88.2694 22.2789C88.1411 22.4524 88.0518 22.6201 88.0017 22.7819C87.954 22.9404 87.957 23.0943 88.0108 23.2434C88.0669 23.3893 88.1865 23.53 88.3696 23.6655C88.5239 23.7796 88.6774 23.8509 88.8303 23.8795C88.9863 23.9104 89.1374 23.9079 89.2834 23.8717C89.4327 23.838 89.5682 23.7791 89.6899 23.6952L89.4066 24.5519L89.156 24.3665C88.9477 24.5406 88.7199 24.6704 88.4727 24.7559C88.2287 24.8438 87.967 24.8615 87.6877 24.809C87.4116 24.7589 87.1145 24.6161 86.7965 24.3808C86.4463 24.1217 86.207 23.8404 86.0787 23.5367C85.956 23.2321 85.9399 22.9045 86.0303 22.5538C86.1239 22.2055 86.3205 21.8289 86.62 21.4241L88.8555 18.4023L90.3302 19.4933ZM93.376 21.7466L89.8713 26.4841L88.4062 25.4002L89.3315 24.2503L89.3735 24.0726L91.9013 20.6556L93.376 21.7466Z" fill="#39251A"/>
<path d="M93.2541 29.8532C92.8876 29.4793 92.6509 29.1265 92.544 28.7948C92.4427 28.4631 92.4573 28.1382 92.5876 27.8202C92.7179 27.5021 92.9486 27.1808 93.2797 26.8563L95.63 24.5524L96.9057 25.8538L94.7652 27.9521C94.5597 28.1535 94.4532 28.3475 94.4457 28.5339C94.4439 28.7204 94.5674 28.9407 94.8164 29.1947C94.9535 29.3345 95.1049 29.4576 95.2706 29.5638C95.4363 29.67 95.5979 29.755 95.7556 29.8187L94.5634 30.7691C94.3579 30.6851 94.1429 30.5657 93.9183 30.4109C93.6937 30.2617 93.4723 30.0758 93.2541 29.8532ZM94.4724 24.579L95.4998 23.5719L98.7102 26.8468L97.5695 27.7384L94.4724 24.579ZM95.9764 24.2464L97.0596 23.1762L98.4553 24.3516L97.1976 25.4922L95.9764 24.2464Z" fill="#39251A"/>
<path d="M104.203 33.9773L101.228 35.7546C101.043 35.8653 100.896 35.9856 100.787 36.1156C100.682 36.2436 100.626 36.3868 100.618 36.5451C100.614 36.7013 100.67 36.8773 100.787 37.0728C100.885 37.2375 100.999 37.3624 101.129 37.4477C101.261 37.5363 101.402 37.5921 101.551 37.615C101.701 37.6413 101.849 37.6392 101.994 37.6086L101.402 38.2902L101.242 38.0226C100.983 38.103 100.723 38.1351 100.462 38.1188C100.203 38.106 99.9546 38.0216 99.717 37.8656C99.4815 37.713 99.2623 37.4668 99.0594 37.1272C98.8359 36.7532 98.7235 36.4014 98.722 36.0717C98.7261 35.7434 98.8373 35.4349 99.0558 35.146C99.2764 34.8606 99.6028 34.5888 100.035 34.3305L103.262 32.4026L104.203 33.9773ZM106.146 37.2297L101.087 40.2523L100.152 38.6878L101.449 37.9829L101.556 37.835L105.205 35.655L106.146 37.2297Z" fill="#39251A"/>
<path d="M102.811 44.443C102.641 44.0074 102.527 43.5994 102.468 43.2189C102.406 42.8399 102.376 42.506 102.38 42.2173L103.758 41.5118C103.751 41.845 103.766 42.2036 103.805 42.5876C103.848 42.9739 103.949 43.3699 104.108 43.7757C104.234 44.0996 104.357 44.3155 104.477 44.4234C104.601 44.5335 104.736 44.5602 104.881 44.5035L104.903 44.4948C105.004 44.4556 105.072 44.3882 105.108 44.2928C105.149 44.1996 105.162 44.0572 105.147 43.8656C105.134 43.6777 105.103 43.4174 105.054 43.0845C104.983 42.5844 104.968 42.172 105.009 41.8473C105.053 41.5211 105.159 41.2589 105.326 41.0606C105.498 40.8646 105.731 40.7092 106.026 40.5944L106.07 40.5769C106.614 40.3647 107.095 40.3999 107.514 40.6824C107.937 40.9635 108.296 41.4801 108.589 42.2321C108.755 42.6565 108.865 43.0533 108.919 43.4226C108.973 43.7919 108.991 44.1131 108.973 44.3861L107.695 45.0523C107.71 44.7378 107.691 44.3995 107.64 44.0377C107.59 43.6796 107.495 43.3199 107.354 42.9588C107.268 42.7392 107.186 42.5719 107.107 42.4569C107.029 42.3457 106.952 42.2749 106.876 42.2446C106.801 42.218 106.723 42.2207 106.641 42.2527L106.624 42.2592C106.535 42.2941 106.47 42.3537 106.43 42.4379C106.39 42.5222 106.373 42.6534 106.378 42.8316C106.384 43.0135 106.411 43.2671 106.456 43.5926C106.536 44.0935 106.566 44.5108 106.546 44.8446C106.53 45.177 106.445 45.4483 106.291 45.6585C106.141 45.8673 105.898 46.0371 105.563 46.1679L105.513 46.1876C104.921 46.4187 104.402 46.3917 103.956 46.1067C103.514 45.8203 103.132 45.2657 102.811 44.443Z" fill="#39251A"/>
<path d="M109.048 52.7928L109.662 51.5436L110.738 52.3407L110.772 52.3236L110.774 51.0747L112.163 51.2069L111.831 52.5112L111.858 52.5314L113.1 52.1643L113.322 53.6525L112.026 53.6579L112.006 53.6852L112.705 54.8415L111.415 55.3734L111.048 54.1735L111.012 54.1729L110.215 55.2494L109.264 54.2396L110.296 53.3583L110.291 53.3227L109.048 52.7928Z" fill="#39251A"/>
<path d="M106.373 61.5844L113.794 64.4887L113.529 67.2938L105.697 68.7464L105.875 66.8604L112.425 65.8468L112.438 65.7096L106.195 63.4704L106.373 61.5844ZM107.994 63.6101L109.444 63.747L109.12 67.1847L107.669 67.0479L107.994 63.6101Z" fill="#39251A"/>
<path d="M104.214 74.0376C104.311 73.6996 104.449 73.4315 104.626 73.2331C104.804 73.0347 105.015 72.8957 105.258 72.816C105.505 72.7374 105.773 72.7086 106.063 72.7295L106.194 72.2744L107.259 73.0365C107.023 72.9768 106.812 72.9659 106.626 73.004C106.441 73.042 106.281 73.1271 106.147 73.2591C106.017 73.3923 105.922 73.5645 105.861 73.7757C105.768 74.0983 105.792 74.3693 105.933 74.5886C106.077 74.809 106.34 74.9739 106.72 75.0834L107.521 75.3139C107.897 75.4222 108.203 75.4209 108.439 75.3099C108.674 75.2028 108.837 74.9879 108.93 74.6653C108.982 74.4848 108.995 74.3097 108.969 74.14C108.942 73.9742 108.886 73.8228 108.8 73.6859C108.718 73.554 108.61 73.444 108.477 73.3559L109.404 73.1922L109.265 73.6762C109.502 73.8067 109.703 73.9666 109.869 74.1558C110.039 74.346 110.15 74.5755 110.201 74.844C110.256 75.1175 110.23 75.4367 110.125 75.8015C109.935 76.4621 109.574 76.8989 109.043 77.112C108.515 77.33 107.818 77.3146 106.954 77.0659L106.263 76.8669C105.391 76.616 104.782 76.2555 104.434 75.7854C104.087 75.3154 104.014 74.7328 104.214 74.0376ZM105.343 70.6134L112.953 72.804L112.449 74.5553L110.755 74.0678L108.949 73.5166L108.792 73.4776L106.62 72.8524L106.288 72.7258L104.839 72.3647L105.343 70.6134Z" fill="#39251A"/>
<path d="M101.625 80.6436C102.046 79.7906 102.576 79.2499 103.215 79.0214C103.855 78.7982 104.561 78.8768 105.331 79.2571L106.025 79.5993C106.806 79.9849 107.304 80.5025 107.518 81.1519C107.736 81.8032 107.635 82.5535 107.216 83.4029C106.797 84.2522 106.263 84.7867 105.616 85.0064C104.97 85.2313 104.256 85.151 103.475 84.7654L102.782 84.4232C102.011 84.0429 101.52 83.5307 101.307 82.8865C101.098 82.2442 101.204 81.4965 101.625 80.6436ZM102.921 81.283C102.77 81.5876 102.748 81.8639 102.853 82.1118C102.959 82.365 103.183 82.5757 103.524 82.7437L104.357 83.1549C104.715 83.3318 105.027 83.3856 105.293 83.3163C105.557 83.2506 105.765 83.0654 105.915 82.7608C106.065 82.4562 106.087 82.1772 105.98 81.924C105.872 81.6743 105.638 81.4611 105.28 81.2842L104.447 80.8729C104.106 80.7049 103.804 80.6537 103.54 80.7195C103.278 80.7905 103.071 80.9784 102.921 81.283Z" fill="#39251A"/>
<path d="M103.037 90.2496L100.247 88.1937C100.074 88.0656 99.9059 87.9767 99.744 87.9269C99.5853 87.8794 99.4315 87.8827 99.2825 87.9367C99.1367 87.9931 98.9962 88.1129 98.861 88.2963C98.7472 88.4507 98.6761 88.6044 98.6478 88.7573C98.6171 88.9134 98.62 89.0645 98.6564 89.2105C98.6904 89.3596 98.7495 89.495 98.8336 89.6166L97.9764 89.3348L98.1613 89.0839C97.9869 88.8759 97.8568 88.6484 97.7708 88.4013C97.6824 88.1574 97.6643 87.8958 97.7163 87.6164C97.766 87.3402 97.9082 87.0429 98.1429 86.7244C98.4014 86.3737 98.6824 86.134 98.9859 86.0052C99.2902 85.8819 99.6178 85.8652 99.9686 85.955C100.317 86.0481 100.694 86.244 101.099 86.5428L104.125 88.7729L103.037 90.2496ZM100.789 93.2993L96.0451 89.8029L97.1264 88.3359L98.2779 89.2592L98.4557 89.3008L101.877 91.8227L100.789 93.2993Z" fill="#39251A"/>
<path d="M92.6801 93.1932C93.0533 92.826 93.4057 92.5887 93.7372 92.4812C94.0687 92.3794 94.3936 92.3934 94.7119 92.5231C95.0302 92.6529 95.3519 92.8831 95.677 93.2136L97.9849 95.5598L96.6857 96.8379L94.5838 94.701C94.382 94.4959 94.1878 94.3897 94.0014 94.3825C93.8149 94.381 93.5948 94.5049 93.3413 94.7544C93.2016 94.8917 93.0789 95.0433 92.9729 95.2092C92.867 95.375 92.7823 95.5368 92.7188 95.6946L91.7664 94.504C91.85 94.2984 91.9691 94.0832 92.1235 93.8584C92.2723 93.6335 92.4578 93.4118 92.6801 93.1932ZM97.9563 94.4023L98.9653 95.428L95.6959 98.6441L94.8023 97.5049L97.9563 94.4023ZM98.2916 95.9057L99.3636 96.9871L98.1906 98.3848L97.0479 97.1291L98.2916 95.9057Z" fill="#39251A"/>
<path d="M88.5793 104.149L86.7968 101.178C86.6858 100.992 86.5652 100.846 86.435 100.737C86.3068 100.633 86.1636 100.576 86.0052 100.569C85.849 100.565 85.6732 100.621 85.4778 100.738C85.3133 100.837 85.1885 100.952 85.1035 101.082C85.0151 101.214 84.9596 101.355 84.9369 101.503C84.9109 101.654 84.9133 101.802 84.9441 101.946L84.2615 101.356L84.5288 101.196C84.448 100.937 84.4154 100.677 84.4312 100.416C84.4436 100.156 84.5276 99.908 84.6832 99.6702C84.8354 99.4344 85.0811 99.2147 85.4204 99.0112C85.794 98.7871 86.1456 98.6741 86.4753 98.672C86.8036 98.6755 87.1123 98.7862 87.4016 99.0042C87.6874 99.2243 87.9598 99.5502 88.2188 99.982L90.1523 103.205L88.5793 104.149ZM85.3302 106.098L82.2989 101.044L83.8617 100.107L84.5689 101.402L84.7169 101.509L86.9033 105.154L85.3302 106.098Z" fill="#39251A"/>
<path d="M78.1082 102.774C78.5435 102.604 78.9513 102.489 79.3317 102.429C79.7106 102.367 80.0444 102.337 80.3331 102.339L81.041 103.716C80.7078 103.71 80.3492 103.726 79.9653 103.765C79.5791 103.809 79.1832 103.911 78.7777 104.07C78.454 104.197 78.2384 104.32 78.1307 104.44C78.0208 104.565 77.9943 104.7 78.0512 104.845L78.06 104.867C78.0994 104.967 78.1669 105.035 78.2624 105.071C78.3556 105.112 78.498 105.124 78.6896 105.109C78.8775 105.096 79.1378 105.064 79.4706 105.015C79.9706 104.944 80.3829 104.928 80.7077 104.968C81.034 105.011 81.2964 105.117 81.4949 105.283C81.6912 105.455 81.847 105.688 81.9624 105.982L81.9799 106.027C82.1931 106.57 82.1587 107.052 81.8769 107.471C81.5966 107.895 81.0807 108.254 80.3292 108.549C79.9051 108.715 79.5084 108.826 79.1392 108.881C78.77 108.935 78.4489 108.954 78.1759 108.937L77.5074 107.66C77.822 107.674 78.1601 107.655 78.5219 107.603C78.88 107.553 79.2394 107.457 79.6003 107.315C79.8198 107.229 79.9869 107.146 80.1018 107.067C80.2129 106.989 80.2835 106.912 80.3137 106.835C80.3401 106.761 80.3373 106.682 80.3052 106.6L80.2986 106.584C80.2636 106.494 80.2039 106.43 80.1195 106.39C80.0352 106.35 79.904 106.333 79.7258 106.338C79.5439 106.345 79.2903 106.372 78.9649 106.418C78.4642 106.499 78.0469 106.529 77.7131 106.51C77.3807 106.494 77.1092 106.41 76.8987 106.256C76.6897 106.107 76.5194 105.864 76.388 105.53L76.3683 105.479C76.1362 104.888 76.1622 104.369 76.4464 103.922C76.7321 103.48 77.286 103.097 78.1082 102.774Z" fill="#39251A"/>
<path d="M69.7681 109.027L71.0184 109.638L70.2232 110.716L70.2404 110.75L71.4892 110.75L71.3595 112.139L70.0546 111.809L70.0345 111.836L70.4037 113.078L68.9159 113.302L68.9082 112.006L68.8809 111.986L67.7258 112.688L67.1916 111.398L68.3909 111.029L68.3915 110.993L67.3136 110.197L68.3218 109.245L69.2048 110.276L69.2404 110.27L69.7681 109.027Z" fill="#39251A"/>
<path d="M60.9722 106.367L58.0809 113.794L55.2753 113.534L53.8091 105.704L55.6954 105.879L56.7204 112.427L56.8577 112.44L59.0859 106.193L60.9722 106.367ZM58.9494 107.992L58.815 109.443L55.3767 109.124L55.5111 107.674L58.9494 107.992Z" fill="#39251A"/>
<path d="M48.5126 104.228C48.8508 104.325 49.1192 104.462 49.3179 104.639C49.5166 104.816 49.656 105.027 49.7361 105.27C49.8151 105.517 49.8444 105.785 49.824 106.074L50.2794 106.205L49.5191 107.272C49.5784 107.035 49.5889 106.824 49.5505 106.638C49.5121 106.453 49.4268 106.293 49.2945 106.16C49.1612 106.03 48.9888 105.935 48.7775 105.875C48.4547 105.783 48.1838 105.807 47.9647 105.948C47.7445 106.093 47.5801 106.356 47.4713 106.736L47.2422 107.537C47.1345 107.914 47.1364 108.22 47.2478 108.455C47.3553 108.69 47.5705 108.853 47.8933 108.945C48.0739 108.997 48.249 109.01 48.4186 108.983C48.5844 108.956 48.7357 108.9 48.8724 108.814C49.0042 108.731 49.114 108.623 49.2018 108.49L49.3672 109.417L48.883 109.278C48.7529 109.515 48.5933 109.717 48.4045 109.883C48.2145 110.054 47.9853 110.165 47.7168 110.217C47.4434 110.272 47.1242 110.247 46.7592 110.143C46.0982 109.954 45.6608 109.594 45.4468 109.063C45.2279 108.535 45.242 107.838 45.4892 106.974L45.687 106.282C45.9364 105.41 46.2958 104.8 46.7652 104.452C47.2347 104.104 47.8171 104.029 48.5126 104.228ZM51.9388 105.351L49.7617 112.965L48.0095 112.464L48.494 110.77L49.042 108.962L49.0807 108.805L49.702 106.632L49.8281 106.3L50.1866 104.85L51.9388 105.351Z" fill="#39251A"/>
<path d="M41.9037 101.654C42.7573 102.073 43.299 102.602 43.5286 103.24C43.7529 103.88 43.6756 104.586 43.2967 105.357L42.9556 106.051C42.5714 106.833 42.0548 107.332 41.4057 107.547C40.7548 107.766 40.0043 107.667 39.1542 107.249C38.3041 106.832 37.7687 106.299 37.5479 105.652C37.3218 105.006 37.4009 104.293 37.7851 103.511L38.1261 102.817C38.505 102.046 39.0164 101.553 39.6601 101.34C40.3021 101.13 41.05 101.234 41.9037 101.654ZM41.2665 102.95C40.9616 102.801 40.6853 102.778 40.4376 102.884C40.1846 102.991 39.9743 103.215 39.8069 103.556L39.3971 104.39C39.2209 104.748 39.1676 105.061 39.2374 105.327C39.3036 105.591 39.4891 105.798 39.794 105.947C40.0989 106.097 40.3779 106.118 40.6309 106.011C40.8804 105.902 41.0932 105.668 41.2695 105.31L41.6793 104.476C41.8467 104.135 41.8973 103.833 41.8311 103.569C41.7596 103.306 41.5714 103.1 41.2665 102.95Z" fill="#39251A"/>
<path d="M32.3027 103.08L34.3538 100.287C34.4815 100.113 34.5702 99.9455 34.6197 99.7835C34.6669 99.6248 34.6633 99.471 34.6091 99.322C34.5524 99.1763 34.4323 99.036 34.2487 98.9012C34.0941 98.7876 33.9403 98.7168 33.7874 98.6888C33.6312 98.6584 33.4801 98.6615 33.3342 98.6982C33.1851 98.7324 33.0498 98.7917 32.9283 98.8761L33.2087 98.0184L33.4599 98.2029C33.6676 98.0282 33.8949 97.8976 34.1418 97.8112C34.3855 97.7224 34.6471 97.7038 34.9266 97.7553C35.2029 97.8045 35.5005 97.9462 35.8194 98.1804C36.1705 98.4382 36.4107 98.7188 36.5401 99.022C36.6638 99.3262 36.6811 99.6537 36.5919 100.005C36.4995 100.353 36.3042 100.731 36.0062 101.137L33.7812 104.166L32.3027 103.08ZM29.2491 100.838L32.7372 96.0879L34.2061 97.1666L33.2848 98.3198L33.2435 98.4976L30.7276 101.923L29.2491 100.838Z" fill="#39251A"/>
<path d="M29.3414 92.7302C29.7092 93.1028 29.9471 93.4547 30.0552 93.7861C30.1576 94.1174 30.1442 94.4423 30.0149 94.7608C29.8857 95.0793 29.6561 95.4014 29.3262 95.7271L26.9839 98.0391L25.7036 96.7422L27.8368 94.6365C28.0416 94.4343 28.1475 94.24 28.1543 94.0535C28.1555 93.867 28.0312 93.6472 27.7813 93.3941C27.6438 93.2547 27.4919 93.1322 27.3259 93.0265C27.1598 92.9209 26.9979 92.8365 26.84 92.7733L28.0289 91.8187C28.2347 91.902 28.4501 92.0207 28.6752 92.1748C28.9003 92.3232 29.1224 92.5083 29.3414 92.7302ZM28.1414 98.0085L27.1174 99.0192L23.8957 95.7554L25.0334 94.8599L28.1414 98.0085ZM26.6385 98.3464L25.5591 99.4203L24.1593 98.2497L25.413 97.1048L26.6385 98.3464Z" fill="#39251A"/>
<path d="M18.3739 88.6439L21.3422 86.8563C21.5271 86.7449 21.6736 86.6241 21.7816 86.4937C21.8863 86.3653 21.9423 86.222 21.9495 86.0636C21.9534 85.9074 21.8966 85.7316 21.779 85.5365C21.6801 85.3722 21.5654 85.2476 21.435 85.1628C21.3026 85.0746 21.162 85.0193 21.0132 84.997C20.8624 84.9712 20.7147 84.9738 20.5701 85.0049L21.1592 84.3213L21.32 84.5883C21.5789 84.507 21.839 84.474 22.1001 84.4894C22.3593 84.5013 22.6078 84.5848 22.8459 84.74C23.082 84.8918 23.302 85.1371 23.5062 85.4761C23.7309 85.8493 23.8446 86.2007 23.8472 86.5304C23.8443 86.8587 23.7341 87.1676 23.5166 87.4572C23.2971 87.7434 22.9716 88.0164 22.5402 88.2762L19.3203 90.2153L18.3739 88.6439ZM16.4193 85.3983L21.4674 82.3581L22.4076 83.9193L21.1134 84.6287L21.0067 84.777L17.3657 86.9697L16.4193 85.3983Z" fill="#39251A"/>
<path d="M19.7319 78.1728C19.9035 78.6078 20.0192 79.0154 20.0789 79.3957C20.1424 79.7745 20.1731 80.1082 20.171 80.3969L18.795 81.1072C18.801 80.774 18.7842 80.4155 18.7445 80.0316C18.6996 79.6455 18.5972 79.2498 18.4373 78.8446C18.3098 78.5211 18.1861 78.3057 18.0664 78.1982C17.9415 78.0885 17.8066 78.0623 17.6616 78.1195L17.6393 78.1283C17.5389 78.1679 17.471 78.2354 17.4357 78.331C17.3952 78.4243 17.3826 78.5668 17.398 78.7583C17.412 78.9461 17.4437 79.2064 17.4933 79.5391C17.5659 80.0389 17.5825 80.4513 17.5431 80.7762C17.5 81.1025 17.3952 81.3651 17.2287 81.5639C17.0571 81.7605 16.8244 81.9167 16.5307 82.0326L16.4861 82.0502C15.9433 82.2643 15.4618 82.2308 15.0416 81.9498C14.6177 81.6702 14.2576 81.1549 13.9614 80.4039C13.7942 79.9801 13.6829 79.5836 13.6276 79.2145C13.5722 78.8454 13.5529 78.5243 13.5698 78.2513L14.8455 77.5805C14.8321 77.8951 14.8516 78.2333 14.9041 78.595C14.955 78.9529 15.0516 79.3122 15.1939 79.6728C15.2804 79.8922 15.3635 80.0592 15.4431 80.1739C15.5212 80.2848 15.5984 80.3553 15.6747 80.3854C15.7496 80.4117 15.8279 80.4087 15.9097 80.3765L15.9264 80.3699C16.0156 80.3347 16.0801 80.2749 16.1198 80.1905C16.1596 80.1061 16.1765 79.9748 16.1707 79.7966C16.1634 79.6148 16.1364 79.3612 16.0898 79.0359C16.0083 78.5353 15.9769 78.1181 15.9956 77.7842C16.0105 77.4518 16.0946 77.1802 16.2477 76.9694C16.3971 76.7601 16.6392 76.5895 16.9738 76.4575L17.024 76.4377C17.6151 76.2045 18.1341 76.2296 18.581 76.513C19.0242 76.7979 19.4078 77.3512 19.7319 78.1728Z" fill="#39251A"/>
<path d="M13.4682 69.8445L12.8588 71.0958L11.7795 70.3024L11.7458 70.3197L11.7484 71.5686L10.3585 71.4412L10.6867 70.1358L10.6594 70.1157L9.41836 70.4871L9.19124 68.9996L10.4875 68.9897L10.5076 68.9624L9.80378 67.8085L11.0924 67.2721L11.4634 68.4708L11.4999 68.4713L12.2933 67.392L13.2474 68.3985L12.2182 69.2834L12.2236 69.3189L13.4682 69.8445Z" fill="#39251A"/>
<path d="M16.1104 61.0456L8.67902 58.1672L8.934 55.3612L16.7614 53.8813L16.59 55.7679L10.0429 56.8043L10.0304 56.9416L16.2818 59.159L16.1104 61.0456ZM14.4821 59.0256L13.0313 58.8937L13.3438 55.4549L14.7946 55.5867L14.4821 59.0256Z" fill="#39251A"/>
<path d="M18.227 48.5848C18.131 48.9232 17.9944 49.1918 17.8174 49.3908C17.6404 49.5898 17.4304 49.7296 17.1873 49.8101C16.9404 49.8896 16.6723 49.9193 16.3829 49.8995L16.2535 50.3551L15.1851 49.5967C15.4218 49.6556 15.6329 49.6657 15.8184 49.627C16.0039 49.5883 16.1633 49.5027 16.2965 49.3701C16.4258 49.2365 16.5205 49.064 16.5806 48.8526C16.6723 48.5296 16.6474 48.2588 16.506 48.0399C16.3607 47.82 16.0978 47.656 15.7172 47.5479L14.9156 47.3203C14.5388 47.2133 14.2328 47.2157 13.9975 47.3275C13.7632 47.4354 13.6002 47.6509 13.5085 47.9738C13.4572 48.1545 13.4448 48.3297 13.4715 48.4992C13.4992 48.665 13.556 48.8161 13.6418 48.9527C13.7249 49.0843 13.833 49.1939 13.9659 49.2816L13.0398 49.4485L13.1774 48.9641C12.94 48.8344 12.738 48.6752 12.5714 48.4867C12.4009 48.297 12.2894 48.068 12.2368 47.7996C12.1815 47.5263 12.2057 47.207 12.3094 46.8418C12.4973 46.1806 12.8564 45.7425 13.3869 45.5275C13.9147 45.3077 14.6111 45.3206 15.4761 45.5663L16.1681 45.7628C17.0408 46.0107 17.6515 46.369 18.0003 46.8378C18.3491 47.3066 18.4247 47.889 18.227 48.5848ZM17.1101 52.013L9.49219 49.8494L9.9901 48.0963L11.6855 48.5778L13.4939 49.1226L13.6512 49.161L15.8253 49.7785L16.1573 49.904L17.608 50.2599L17.1101 52.013Z" fill="#39251A"/>
<path d="M20.7894 41.9702C20.3714 42.8246 19.8435 43.3672 19.2056 43.598C18.5659 43.8234 17.8601 43.7473 17.0883 43.3697L16.3936 43.0299C15.611 42.6471 15.1114 42.1313 14.8948 41.4826C14.6747 40.8321 14.7727 40.0814 15.1889 39.2306C15.6051 38.3798 16.1367 37.8434 16.7836 37.6215C17.4286 37.3942 18.1425 37.472 18.9251 37.8549L19.6198 38.1947C20.3916 38.5723 20.8849 39.0827 21.0996 39.7261C21.3108 40.3677 21.2073 41.1157 20.7894 41.9702ZM19.4916 41.3353C19.6409 41.0302 19.6626 40.7538 19.5568 40.5063C19.4491 40.2534 19.2248 40.0436 18.8837 39.8768L18.049 39.4685C17.69 39.2928 17.3777 39.2401 17.112 39.3104C16.848 39.377 16.6414 39.5629 16.4921 39.8681C16.3428 40.1732 16.322 40.4522 16.4297 40.7051C16.5391 40.9544 16.7733 41.1668 17.1323 41.3425L17.967 41.7508C18.308 41.9176 18.6106 41.9677 18.8745 41.901C19.1366 41.8291 19.3423 41.6405 19.4916 41.3353Z" fill="#39251A"/>
<path d="M19.345 32.3687L22.1413 34.4149C22.3155 34.5423 22.4836 34.6307 22.6456 34.6799C22.8045 34.7268 22.9583 34.723 23.1071 34.6685C23.2528 34.6116 23.3928 34.4912 23.5273 34.3074C23.6406 34.1526 23.7112 33.9987 23.7389 33.8457C23.7691 33.6894 23.7657 33.5384 23.7288 33.3925C23.6943 33.2435 23.6347 33.1083 23.5501 32.987L24.4083 33.2658L24.2243 33.5174C24.3994 33.7248 24.5304 33.9518 24.6172 34.1986C24.7064 34.4422 24.7255 34.7037 24.6744 34.9833C24.6257 35.2597 24.4845 35.5575 24.2509 35.8768C23.9937 36.2284 23.7135 36.4691 23.4105 36.599C23.1066 36.7232 22.7791 36.7411 22.4279 36.6525C22.0791 36.5607 21.7015 36.3661 21.2951 36.0687L18.2617 33.8491L19.345 32.3687ZM21.5823 29.3111L26.338 32.791L25.2618 34.2618L24.1071 33.3425L23.9292 33.3014L20.499 30.7915L21.5823 29.3111Z" fill="#39251A"/>
<path d="M29.6909 29.3888C29.3189 29.7573 28.9674 29.9958 28.6362 30.1045C28.3051 30.2074 27.9801 30.1946 27.6614 30.0659C27.3427 29.9372 27.0202 29.7082 26.6939 29.3788L24.3778 27.0406L25.6726 25.7581L27.782 27.8876C27.9845 28.0921 28.179 28.1976 28.3655 28.2041C28.552 28.205 28.7716 28.0803 29.0243 27.8299C29.1634 27.6921 29.2857 27.5401 29.391 27.3739C29.4964 27.2076 29.5805 27.0455 29.6434 26.8876L30.6 28.0748C30.5171 28.2807 30.3988 28.4964 30.2451 28.7217C30.0971 28.9471 29.9124 29.1695 29.6909 29.3888ZM24.4105 28.198L23.398 27.1758L26.6562 23.9485L27.5537 25.0845L24.4105 28.198ZM24.07 26.6958L22.9942 25.6182L24.1624 24.2164L25.3094 25.4681L24.07 26.6958Z" fill="#39251A"/>
<path d="M33.7573 18.4186L35.5501 21.3837C35.6617 21.5684 35.7829 21.7147 35.9135 21.8225C36.042 21.9269 36.1854 21.9827 36.3438 21.9897C36.5001 21.9933 36.6757 21.9361 36.8706 21.8182C37.0348 21.719 37.1591 21.6041 37.2437 21.4736C37.3316 21.341 37.3867 21.2003 37.4088 21.0515C37.4343 20.9006 37.4314 20.7529 37.4001 20.6084L38.0848 21.1962L37.818 21.3575C37.8998 21.6163 37.9332 21.8763 37.9183 22.1375C37.9068 22.3966 37.8237 22.6454 37.6689 22.8837C37.5176 23.12 37.2726 23.3405 36.934 23.5453C36.5613 23.7706 36.21 23.8849 35.8804 23.8881C35.552 23.8858 35.2429 23.7761 34.9529 23.5592C34.6664 23.3401 34.3928 23.0151 34.1323 22.5842L32.1875 19.3677L33.7573 18.4186ZM36.9995 16.4583L40.0485 21.5011L38.4889 22.444L37.7772 21.151L37.6288 21.0446L35.4297 17.4074L36.9995 16.4583Z" fill="#39251A"/>
<path d="M44.233 19.7562C43.7983 19.9286 43.3909 20.045 43.0108 20.1054C42.6321 20.1696 42.2984 20.2008 42.0097 20.1992L41.297 18.8244C41.6302 18.8299 41.9887 18.8124 42.3725 18.7721C42.7586 18.7265 43.1541 18.6234 43.559 18.4629C43.8822 18.3347 44.0975 18.2107 44.2047 18.0908C44.3142 17.9657 44.3402 17.8307 44.2827 17.6858L44.2739 17.6635C44.2341 17.5632 44.1664 17.4955 44.0708 17.4603C43.9774 17.4199 43.835 17.4076 43.6434 17.4234C43.4556 17.4376 43.1954 17.4699 42.8628 17.5201C42.3631 17.5935 41.9508 17.6108 41.6258 17.572C41.2994 17.5294 41.0367 17.4251 40.8375 17.259C40.6406 17.0877 40.484 16.8553 40.3677 16.5618L40.35 16.5172C40.1349 15.9748 40.1676 15.4932 40.4479 15.0725C40.7267 14.6481 41.2414 14.2872 41.9919 13.9896C42.4154 13.8217 42.8117 13.7097 43.1807 13.6537C43.5497 13.5977 43.8708 13.5779 44.1438 13.5943L44.8168 14.8688C44.5021 14.8559 44.164 14.8761 43.8024 14.9291C43.4446 14.9807 43.0855 15.078 42.7251 15.2209C42.5059 15.3078 42.339 15.3911 42.2245 15.4709C42.1137 15.5493 42.0433 15.6266 42.0134 15.7029C41.9872 15.7778 41.9903 15.8561 42.0227 15.9379L42.0293 15.9546C42.0647 16.0437 42.1246 16.1081 42.2091 16.1477C42.2935 16.1873 42.4249 16.204 42.603 16.1979C42.7848 16.1903 43.0384 16.1629 43.3636 16.1156C43.864 16.0333 44.2812 16.0011 44.6151 16.0192C44.9475 16.0336 45.2193 16.1172 45.4303 16.27C45.6399 16.419 45.811 16.6607 45.9435 16.9951L45.9634 17.0453C46.1976 17.636 46.1734 18.155 45.8908 18.6024C45.6067 19.0461 45.0541 19.4307 44.233 19.7562Z" fill="#39251A"/>
<path d="M52.5538 13.4749L51.3014 12.8677L52.0929 11.787L52.0755 11.7533L50.8267 11.7581L50.9517 10.3679L52.2577 10.6939L52.2777 10.6666L51.9041 9.42618L53.3912 9.19647L53.4034 10.4927L53.4307 10.5127L54.5834 9.80695L55.122 11.0946L53.924 11.4677L53.9236 11.5042L55.0042 12.2957L53.9994 13.2516L53.1127 12.2239L53.0772 12.2294L52.5538 13.4749Z" fill="#39251A"/>
<circle cx="61.0001" cy="61.0001" r="35.0001" fill="#FED525"/>
<path d="M66.0345 49.7286C66.4133 50.0189 66.8049 50.2799 67.2256 50.5063C67.6824 50.7521 68.1632 50.936 68.6639 51.071C68.7665 51.0986 68.8701 51.1186 68.974 51.1351C69.0039 51.1032 69.0341 51.0714 69.0624 51.0381C69.4266 50.6117 69.6695 50.0937 69.8448 49.5612C70.0759 48.8582 70.1952 48.1186 70.1977 47.3786C70.1989 47.0479 70.1798 46.6857 70.0285 46.385C69.9047 46.1385 69.6214 45.9518 69.3398 46.011C68.9497 46.0931 68.8517 46.5513 68.6973 46.8558C68.3235 47.592 67.6992 48.1964 66.9669 48.5731C66.6537 48.7341 66.3198 48.8548 66.0184 49.0369C65.8599 49.1326 65.7093 49.2498 65.5859 49.3877C65.7329 49.5179 65.9066 49.6304 66.0345 49.7286Z" fill="#39251A"/>
<path d="M53.5152 50.0318C53.6236 49.8415 53.7812 49.6971 53.9631 49.6055C55.5144 48.2492 57.7675 48.039 59.5533 49.1172L60.9095 49.9361V51.0508C60.7178 51.0508 60.5264 50.9993 60.3561 50.8966C60.3561 50.8966 58.3901 49.8345 57.2856 49.8345C54.4172 49.8345 54.3736 51.7518 53.9547 51.5134L53.9162 51.4914C53.4025 51.1993 53.2229 50.5457 53.5152 50.0318Z" fill="#39251A"/>
<path d="M67.8568 49.6058C68.0386 49.6974 68.1965 49.8418 68.3047 50.0321C68.597 50.546 68.4174 51.1996 67.9035 51.492L67.8649 51.514C67.4458 51.7523 67.4025 49.835 64.534 49.835C63.4296 49.835 61.4635 50.8971 61.4635 50.8971C61.2934 50.9998 61.1018 51.0513 60.9102 51.0513V49.9366L62.2664 49.1177C64.0526 48.0391 66.3057 48.2495 67.8568 49.6058Z" fill="#39251A"/>
<path d="M61.3322 60.7459C61.3322 54.9943 66.0113 50.3149 71.7632 50.3149H77.943C78.4244 50.3149 78.8145 50.7052 78.8145 51.1867C78.8145 54.7895 75.8835 57.7205 72.2807 57.7205H69.2567C68.9299 59.3432 68.8264 60.9718 68.7956 62.6244C68.8099 65.9183 66.9584 66.6958 65.4867 69.1199L66.0866 70.8363C66.4696 71.9321 66.3039 73.1035 65.6319 74.0504C64.9599 74.9968 63.9087 75.5395 62.748 75.5397C62.7476 75.5397 59.0665 75.5397 59.0665 75.5397C57.9056 75.5397 56.8544 74.9965 56.1824 74.0501C55.5104 73.1033 55.3447 71.9319 55.7277 70.8358L56.3267 69.1224C55.7663 68.2069 55.1408 67.4571 54.4184 66.6153C53.6787 65.7321 53.1713 64.6204 53.0647 63.4722C53.0042 62.917 53.0244 62.3545 52.999 61.7991C52.9411 60.4237 52.8305 59.0722 52.5576 57.7203H49.5336C45.931 57.7203 43 54.7893 43 51.1865C43 50.705 43.3903 50.3147 43.8716 50.3147H50.0514C55.803 50.3147 60.4821 54.9941 60.4821 60.7457C60.4821 61.9205 60.2857 63.0782 59.8982 64.187L57.3735 71.4107C57.1658 72.0052 57.1458 72.7293 57.5425 73.2471C57.9843 73.8238 59.1581 74.613 59.8698 74.0338C60.0177 73.9136 60.1109 73.7138 60.0655 73.5285C60.0292 73.3802 59.9122 73.2632 59.782 73.1831C59.5176 73.0201 59.1978 72.982 58.8948 72.9128C58.4453 72.8105 58.029 72.5701 57.9459 72.0807C57.8802 71.692 58.1074 71.2611 58.4809 71.1354C58.8703 71.0043 59.2935 71.2041 59.6206 71.4527C60.2256 71.9126 60.7396 72.5819 60.9072 73.3264C61.0745 72.5817 61.5887 71.9124 62.1937 71.4527C62.5208 71.2041 62.944 71.0041 63.3334 71.1354C63.7069 71.2613 63.9341 71.692 63.8684 72.0807C63.7853 72.5701 63.369 72.8105 62.9195 72.9128C62.6165 72.9817 62.2969 73.0198 62.0323 73.1831C61.9021 73.2634 61.7853 73.3802 61.7488 73.5285C61.7034 73.7136 61.7969 73.9134 61.9445 74.0338C62.6562 74.613 63.83 73.8238 64.2718 73.2471C64.6685 72.7291 64.6485 72.0052 64.4408 71.4107L61.9161 64.187C61.5288 63.0785 61.3322 61.9205 61.3322 60.7459Z" fill="#39251A"/>
<path d="M56.2777 67.1033C55.3658 66.437 54.4894 65.8986 53.9585 64.9125C53.1636 63.4717 53.495 61.7317 53.57 60.1492C53.5748 60.0964 53.5798 60.0435 53.5848 59.9907C53.7059 58.7186 54.3209 57.5434 55.29 56.7104C55.7381 56.3253 56.008 55.9769 55.5197 55.9769H49.5334C47.1897 55.9769 44.6492 53.731 44.2383 51.5044H49.8813C54.5284 51.5044 58.8613 54.8804 59.1067 59.5212C59.1668 60.6583 58.6261 62.5425 58.2523 63.6121L56.8803 67.538C56.6768 67.3958 56.4761 67.2509 56.2777 67.1033ZM72.5061 55.9772H64.5068C66.107 53.3623 68.8557 51.6321 71.9734 51.6321H77.3535C76.9306 54.1011 74.9178 55.9772 72.5061 55.9772Z" fill="#39251A"/>
<path d="M55.7804 49.7288C55.4017 50.0191 55.01 50.2802 54.5893 50.5065C54.1326 50.7523 53.6518 50.9363 53.151 51.0712C53.0485 51.0989 52.9449 51.1188 52.841 51.1354C52.8111 51.1034 52.7809 51.0717 52.7525 51.0383C52.3883 50.612 52.1454 50.094 51.9701 49.5615C51.7388 48.8584 51.6197 48.1188 51.6172 47.3788C51.6161 47.0482 51.6351 46.686 51.7864 46.3853C51.9102 46.1387 52.1935 45.9521 52.4752 46.0113C52.8655 46.0934 52.9632 46.5515 53.1177 46.8561C53.4914 47.5922 54.1158 48.1966 54.8481 48.5733C55.1613 48.7344 55.4951 48.855 55.7965 49.0371C55.9551 49.1328 56.1056 49.2501 56.229 49.388C56.0821 49.5181 55.9083 49.6306 55.7804 49.7288Z" fill="#39251A"/>
<path d="M65.6037 61.4013C66.1961 61.4013 66.6762 60.9212 66.6762 60.3288C66.6762 59.7365 66.1961 59.2563 65.6037 59.2563C65.0114 59.2563 64.5312 59.7365 64.5312 60.3288C64.5312 60.9212 65.0114 61.4013 65.6037 61.4013Z" fill="#FED525"/>
<path d="M56.2131 61.4013C56.8054 61.4013 57.2856 60.9212 57.2856 60.3288C57.2856 59.7365 56.8054 59.2563 56.2131 59.2563C55.6208 59.2563 55.1406 59.7365 55.1406 60.3288C55.1406 60.9212 55.6208 61.4013 56.2131 61.4013Z" fill="#FED525"/>
</svg>
