<svg width="166" height="41" viewBox="0 0 166 41" fill="none" xmlns="http://www.w3.org/2000/svg">
<g clip-path="url(#clip0_29_3528)">
<path d="M50.0703 28.8889H61.7411V25.3767H54.2184V12.1475H50.0703V28.8889Z" fill="white"/>
<path d="M68.6556 26.5479C66.9917 26.5479 66.1246 25.0962 66.1246 22.9186C66.1246 20.741 66.9917 19.2659 68.6556 19.2659C70.3196 19.2659 71.2101 20.741 71.2101 22.9186C71.2101 25.0962 70.3196 26.5479 68.6556 26.5479ZM68.6791 29.264C72.5459 29.264 75.0769 26.5245 75.0769 22.9186C75.0769 19.3128 72.5459 16.5732 68.6791 16.5732C64.8357 16.5732 62.2578 19.3128 62.2578 22.9186C62.2578 26.5245 64.8357 29.264 68.6791 29.264Z" fill="white"/>
<path d="M81.7729 33.0337C83.5539 33.0337 85.1241 32.6357 86.1787 31.6991C87.1395 30.8327 87.7723 29.5215 87.7723 27.7186V16.901H84.1164V18.1888H84.0695C83.3665 17.182 82.2884 16.5498 80.6948 16.5498C77.7186 16.5498 75.6562 19.0318 75.6562 22.544C75.6562 26.22 78.1638 28.2337 80.8589 28.2337C82.3119 28.2337 83.2259 27.6483 83.9289 26.8522H84.0227V28.0464C84.0227 29.4981 83.343 30.341 81.726 30.341C80.4605 30.341 79.8277 29.8025 79.6168 29.1703H75.914C76.289 31.6757 78.4685 33.0337 81.7729 33.0337ZM81.7494 25.4005C80.3199 25.4005 79.3825 24.2298 79.3825 22.4269C79.3825 20.6005 80.3199 19.4298 81.7494 19.4298C83.343 19.4298 84.1867 20.7879 84.1867 22.4035C84.1867 24.0893 83.4133 25.4005 81.7494 25.4005Z" fill="white"/>
<path d="M95.2885 26.5479C93.6245 26.5479 92.7574 25.0962 92.7574 22.9186C92.7574 20.741 93.6245 19.2659 95.2885 19.2659C96.9524 19.2659 97.8425 20.741 97.8425 22.9186C97.8425 25.0962 96.9524 26.5479 95.2885 26.5479ZM95.3119 29.264C99.1783 29.264 101.709 26.5245 101.709 22.9186C101.709 19.3128 99.1783 16.5732 95.3119 16.5732C91.4685 16.5732 88.8906 19.3128 88.8906 22.9186C88.8906 26.5245 91.4685 29.264 95.3119 29.264Z" fill="white"/>
<path d="M102.824 28.8889H106.644V16.9006H102.824V28.8889ZM102.824 15.2382H106.644V12.1475H102.824V15.2382Z" fill="white"/>
<path d="M108.301 32.8464H112.121V27.6483H112.168C112.918 28.6552 114.019 29.264 115.566 29.264C118.706 29.264 120.792 26.782 120.792 22.8952C120.792 19.2893 118.847 16.5498 115.659 16.5498C114.019 16.5498 112.847 17.2757 112.027 18.3527H111.957V16.901H108.301V32.8464ZM114.581 26.3137C112.941 26.3137 112.004 24.9791 112.004 23.0357C112.004 21.0922 112.847 19.6171 114.511 19.6171C116.152 19.6171 116.925 20.9752 116.925 23.0357C116.925 25.0727 116.034 26.3137 114.581 26.3137Z" fill="white"/>
<path d="M127.011 29.264C130.152 29.264 132.472 27.9059 132.472 25.2835C132.472 22.2161 129.987 21.6776 127.878 21.3264C126.355 21.0454 124.996 20.9283 124.996 20.0854C124.996 19.3361 125.722 18.9849 126.66 18.9849C127.714 18.9849 128.441 19.3127 128.581 20.3898H132.097C131.909 18.0249 130.081 16.5498 126.683 16.5498C123.847 16.5498 121.504 17.861 121.504 20.3898C121.504 23.1996 123.73 23.7615 125.816 24.1127C127.41 24.3937 128.863 24.5108 128.863 25.5879C128.863 26.3605 128.136 26.782 126.988 26.782C125.722 26.782 124.925 26.1966 124.785 25.0025H121.176C121.293 27.6483 123.496 29.264 127.011 29.264Z" fill="white"/>
<path d="M137.664 29.2409C139.328 29.2409 140.382 28.5853 141.249 27.4145H141.32V28.8897H144.975V16.9014H141.156V23.598C141.156 25.0262 140.359 26.0097 139.046 26.0097C137.828 26.0097 137.242 25.2838 137.242 23.9726V16.9014H133.445V24.7687C133.445 27.438 134.898 29.2409 137.664 29.2409Z" fill="white"/>
<path d="M146.633 28.8893H150.453V22.1693C150.453 20.741 151.156 19.7342 152.351 19.7342C153.499 19.7342 154.038 20.4835 154.038 21.7713V28.8893H157.858V22.1693C157.858 20.741 158.538 19.7342 159.757 19.7342C160.905 19.7342 161.444 20.4835 161.444 21.7713V28.8893H165.264V21.0922C165.264 18.3996 163.905 16.5498 161.186 16.5498C159.639 16.5498 158.35 17.2054 157.413 18.6571H157.366C156.757 17.3693 155.562 16.5498 153.991 16.5498C152.257 16.5498 151.109 17.3693 150.359 18.6103H150.289V16.901H146.633V28.8893Z" fill="white"/>
<path fill-rule="evenodd" clip-rule="evenodd" d="M19.6309 39.621C30.4168 39.621 39.1603 30.8851 39.1603 20.1088C39.1603 9.33258 30.4168 0.59668 19.6309 0.59668C8.84516 0.59668 0.101562 9.33258 0.101562 20.1088C0.101562 30.8851 8.84516 39.621 19.6309 39.621ZM22.6453 15.6723C24.31 14.009 24.31 11.3123 22.6453 9.64903C20.9805 7.98573 18.2815 7.98573 16.6167 9.64903C14.952 11.3123 14.952 14.009 16.6167 15.6723L19.6309 18.684L22.6453 15.6723ZM24.0714 23.1205C25.7362 24.7839 28.4353 24.7839 30.1001 23.1205C31.7648 21.4572 31.7648 18.7605 30.1001 17.0972C28.4353 15.434 25.7362 15.434 24.0714 17.0972L21.0572 20.1089L24.0714 23.1205ZM22.6453 30.5687C24.31 28.9054 24.31 26.2087 22.6453 24.5454L19.6309 21.5338L16.6167 24.5454C14.952 26.2087 14.952 28.9054 16.6167 30.5687C18.2815 32.2321 20.9805 32.2321 22.6453 30.5687ZM9.16187 23.1205C7.49714 21.4572 7.49714 18.7605 9.16187 17.0972C10.8267 15.434 13.5257 15.434 15.1905 17.0972L18.2048 20.1089L15.1905 23.1205C13.5257 24.7839 10.8267 24.7839 9.16187 23.1205Z" fill="white"/>
</g>
<defs>
<clipPath id="clip0_29_3528">
<rect width="166" height="40" fill="white" transform="translate(0 0.28125)"/>
</clipPath>
</defs>
</svg>
