<svg width="168" height="51" viewBox="0 0 168 51" fill="none" xmlns="http://www.w3.org/2000/svg">
<circle cx="25" cy="25.3604" r="25" fill="#FED525"/>
<path d="M29.5503 15.5958C29.8895 15.8558 30.2404 16.0896 30.6172 16.2924C31.0263 16.5126 31.457 16.6773 31.9056 16.7982C31.9974 16.823 32.0902 16.8409 32.1833 16.8557C32.2101 16.827 32.2371 16.7986 32.2625 16.7687C32.5888 16.3868 32.8063 15.9228 32.9634 15.4458C33.1704 14.8161 33.2772 14.1536 33.2795 13.4907C33.2805 13.1945 33.2634 12.8701 33.1279 12.6007C33.017 12.3799 32.7633 12.2127 32.511 12.2657C32.1615 12.3393 32.0738 12.7496 31.9354 13.0225C31.6006 13.6819 31.0414 14.2233 30.3854 14.5607C30.1049 14.705 29.8058 14.813 29.5358 14.9762C29.3938 15.0619 29.259 15.1669 29.1484 15.2904C29.2801 15.407 29.4357 15.5078 29.5503 15.5958Z" fill="#39251A"/>
<path d="M18.3365 15.8677C18.4336 15.6973 18.5748 15.5679 18.7377 15.4858C20.1273 14.271 22.1456 14.0827 23.7452 15.0484L24.96 15.782V16.7805C24.7883 16.7805 24.6169 16.7344 24.4643 16.6423C24.4643 16.6423 22.7032 15.691 21.7139 15.691C19.1445 15.691 19.1054 17.4084 18.7302 17.1949L18.6957 17.1752C18.2356 16.9135 18.0747 16.3281 18.3365 15.8677Z" fill="#39251A"/>
<path d="M31.1834 15.4859C31.3463 15.5679 31.4877 15.6973 31.5846 15.8678C31.8465 16.3281 31.6856 16.9136 31.2252 17.1754L31.1907 17.1952C30.8153 17.4087 30.7765 15.6912 28.207 15.6912C27.2177 15.6912 25.4566 16.6426 25.4566 16.6426C25.3043 16.7346 25.1326 16.7807 24.9609 16.7807V15.7823L26.1758 15.0487C27.7758 14.0825 29.794 14.271 31.1834 15.4859Z" fill="#39251A"/>
<path d="M25.3391 25.4649C25.3391 20.3129 29.5304 16.1213 34.6827 16.1213H40.2183C40.6496 16.1213 40.999 16.4709 40.999 16.9022C40.999 20.1294 38.3735 22.7549 35.1463 22.7549H32.4375C32.1448 24.2084 32.0521 25.6672 32.0245 27.1476C32.0373 30.0981 30.3788 30.7945 29.0605 32.966L29.5979 34.5034C29.941 35.485 29.7925 36.5343 29.1906 37.3824C28.5886 38.2302 27.647 38.7163 26.6073 38.7165C26.6069 38.7165 23.3096 38.7165 23.3096 38.7165C22.2697 38.7165 21.3281 38.23 20.7262 37.3822C20.1243 36.5341 19.9757 35.4848 20.3189 34.503L20.8554 32.9682C20.3534 32.1481 19.7931 31.4765 19.1461 30.7224C18.4834 29.9313 18.029 28.9355 17.9335 27.907C17.8793 27.4097 17.8973 26.9058 17.8746 26.4083C17.8228 25.1762 17.7236 23.9657 17.4793 22.7547H14.7705C11.5435 22.7547 8.91797 20.1292 8.91797 16.902C8.91797 16.4707 9.26759 16.1211 9.69867 16.1211H15.2343C20.3863 16.1211 24.5777 20.3127 24.5777 25.4647C24.5777 26.517 24.4017 27.5541 24.0546 28.5473L21.7931 35.018C21.607 35.5504 21.5892 36.1991 21.9445 36.6629C22.3402 37.1795 23.3917 37.8864 24.0292 37.3676C24.1616 37.2599 24.2451 37.0809 24.2045 36.915C24.172 36.7821 24.0672 36.6773 23.9506 36.6056C23.7137 36.4595 23.4272 36.4254 23.1558 36.3634C22.7532 36.2718 22.3802 36.0565 22.3059 35.6181C22.2469 35.2699 22.4505 34.8839 22.7851 34.7713C23.1339 34.6539 23.513 34.8329 23.8059 35.0556C24.3479 35.4675 24.8082 36.067 24.9584 36.734C25.1083 36.0668 25.5688 35.4673 26.1108 35.0556C26.4038 34.8329 26.7828 34.6537 27.1317 34.7713C27.4662 34.8841 27.6698 35.2699 27.6109 35.6181C27.5365 36.0565 27.1635 36.2718 26.7609 36.3634C26.4895 36.4252 26.2033 36.4593 25.9662 36.6056C25.8496 36.6775 25.745 36.7821 25.7123 36.915C25.6716 37.0807 25.7553 37.2597 25.8876 37.3676C26.5251 37.8864 27.5765 37.1795 27.9723 36.6629C28.3276 36.1989 28.3097 35.5504 28.1236 35.018L25.8622 28.5473C25.5152 27.5543 25.3391 26.517 25.3391 25.4649Z" fill="#39251A"/>
<path d="M20.8117 31.1593C19.9948 30.5624 19.2099 30.0802 18.7343 29.1969C18.0223 27.9063 18.3191 26.3477 18.3863 24.9301C18.3906 24.8828 18.395 24.8355 18.3995 24.7881C18.508 23.6487 19.0589 22.596 19.927 21.8498C20.3284 21.5049 20.5701 21.1928 20.1328 21.1928H14.7705C12.6711 21.1928 10.3954 19.181 10.0273 17.1865H15.0821C19.2448 17.1865 23.126 20.2106 23.3458 24.3676C23.3996 25.3862 22.9153 27.074 22.5805 28.032L21.3515 31.5487C21.1692 31.4213 20.9894 31.2915 20.8117 31.1593ZM35.3484 21.193H28.1829C29.6163 18.8507 32.0785 17.3009 34.8712 17.3009H39.6905C39.3116 19.5126 37.5087 21.193 35.3484 21.193Z" fill="#39251A"/>
<path d="M20.366 15.5958C20.0267 15.8558 19.6759 16.0896 19.299 16.2924C18.8899 16.5126 18.4592 16.6773 18.0107 16.7982C17.9188 16.823 17.826 16.8409 17.7329 16.8557C17.7061 16.827 17.6791 16.7986 17.6537 16.7687C17.3275 16.3868 17.1099 15.9228 16.9529 15.4458C16.7456 14.8161 16.639 14.1536 16.6368 13.4907C16.6357 13.1945 16.6528 12.8701 16.7883 12.6007C16.8992 12.3799 17.153 12.2127 17.4053 12.2657C17.7549 12.3393 17.8424 12.7496 17.9808 13.0225C18.3156 13.6819 18.8748 14.2233 19.5308 14.5607C19.8114 14.705 20.1104 14.813 20.3804 14.9762C20.5224 15.0619 20.6573 15.1669 20.7678 15.2904C20.6361 15.407 20.4805 15.5078 20.366 15.5958Z" fill="#39251A"/>
<path d="M29.1677 26.0522C29.6983 26.0522 30.1284 25.6221 30.1284 25.0915C30.1284 24.561 29.6983 24.1309 29.1677 24.1309C28.6371 24.1309 28.207 24.561 28.207 25.0915C28.207 25.6221 28.6371 26.0522 29.1677 26.0522Z" fill="#FED525"/>
<path d="M20.7537 26.0522C21.2842 26.0522 21.7143 25.6221 21.7143 25.0915C21.7143 24.561 21.2842 24.1309 20.7537 24.1309C20.2231 24.1309 19.793 24.561 19.793 25.0915C19.793 25.6221 20.2231 26.0522 20.7537 26.0522Z" fill="#FED525"/>
<path d="M65.8694 34.3604L66.4294 16.4683H72.5334L75.4874 27.1364H75.6694L78.6234 16.4683H84.7274L85.2874 34.3604H81.0454L80.9194 28.4944L80.7934 21.3544H80.5834L77.5174 32.2604H73.6254L70.5594 21.3544H70.3354L70.2234 28.5084L70.1114 34.3604H65.8694ZM88.1686 34.3604V20.5984H92.4526V34.3604H88.1686ZM90.3106 19.2964C89.5079 19.2964 88.9246 19.1144 88.5606 18.7504C88.1966 18.377 88.0146 17.8777 88.0146 17.2524V17.1544C88.0146 16.529 88.1966 16.0344 88.5606 15.6704C88.9246 15.3064 89.5079 15.1244 90.3106 15.1244C91.0946 15.1244 91.6686 15.3064 92.0326 15.6704C92.4059 16.0344 92.5926 16.529 92.5926 17.1544V17.2524C92.5926 17.887 92.4059 18.3864 92.0326 18.7504C91.6686 19.1144 91.0946 19.2964 90.3106 19.2964ZM95.3326 34.3604V15.8664H99.6166V34.3604H95.3326ZM111.247 34.3604L107.187 28.4244H106.067V25.9044H107.187L111.135 20.5984H116.049L110.813 27.4304V26.6184L116.245 34.3604H111.247ZM102.483 34.3604V15.8664H106.739V34.3604H102.483ZM128.579 30.8464V34.3604H117.127V31.1684L123.343 24.0984H117.169V20.5984H128.495V23.7764L122.265 30.8464H128.579ZM137.369 34.7104C134.868 34.7104 133.02 34.155 131.825 33.0444C130.631 31.9244 130.033 30.2957 130.033 28.1584V26.7304C130.033 24.621 130.593 23.0064 131.713 21.8864C132.833 20.757 134.462 20.1924 136.599 20.1924C138.037 20.1924 139.231 20.4397 140.183 20.9344C141.145 21.4197 141.863 22.115 142.339 23.0204C142.825 23.9257 143.067 25.013 143.067 26.2824V26.7444C143.067 27.099 143.049 27.463 143.011 27.8364C142.983 28.2004 142.941 28.541 142.885 28.8584H139.021C139.059 28.317 139.082 27.8084 139.091 27.3324C139.101 26.847 139.105 26.4084 139.105 26.0164C139.105 25.447 139.017 24.971 138.839 24.5884C138.662 24.1964 138.387 23.8977 138.013 23.6924C137.649 23.487 137.178 23.3844 136.599 23.3844C135.741 23.3844 135.111 23.6177 134.709 24.0844C134.317 24.5417 134.121 25.195 134.121 26.0444V27.3044L134.149 27.7664V28.7464C134.149 29.101 134.205 29.437 134.317 29.7544C134.439 30.0717 134.644 30.3517 134.933 30.5944C135.232 30.8277 135.638 31.0144 136.151 31.1544C136.674 31.285 137.337 31.3504 138.139 31.3504C138.989 31.3504 139.805 31.271 140.589 31.1124C141.373 30.9444 142.125 30.7204 142.843 30.4404L142.493 33.6604C141.859 33.987 141.107 34.2437 140.239 34.4304C139.371 34.617 138.415 34.7104 137.369 34.7104ZM132.301 28.8584V26.2124H142.017V28.8584H132.301ZM154.233 34.3604V26.2684C154.233 25.7644 154.168 25.3304 154.037 24.9664C153.906 24.593 153.687 24.3084 153.379 24.1124C153.071 23.9164 152.651 23.8184 152.119 23.8184C151.68 23.8184 151.293 23.8977 150.957 24.0564C150.621 24.2057 150.336 24.4157 150.103 24.6864C149.879 24.9477 149.711 25.2464 149.599 25.5824L148.941 23.5804H149.669C149.818 22.955 150.061 22.395 150.397 21.9004C150.742 21.4057 151.214 21.0137 151.811 20.7244C152.408 20.4257 153.164 20.2764 154.079 20.2764C155.106 20.2764 155.946 20.477 156.599 20.8784C157.252 21.2704 157.733 21.8584 158.041 22.6424C158.358 23.4264 158.517 24.4064 158.517 25.5824V34.3604H154.233ZM145.385 34.3604V20.5984H149.641L149.501 24.0424L149.669 24.4484V34.3604H145.385Z" fill="white"/>
<path d="M163.148 34.7384C162.346 34.7384 161.753 34.533 161.37 34.1224C160.997 33.7117 160.81 33.1377 160.81 32.4004V32.2464C160.81 31.5184 160.997 30.9444 161.37 30.5244C161.753 30.1044 162.346 29.8944 163.148 29.8944C163.932 29.8944 164.516 30.1044 164.898 30.5244C165.281 30.9444 165.472 31.5184 165.472 32.2464V32.4004C165.472 33.1377 165.281 33.7117 164.898 34.1224C164.516 34.533 163.932 34.7384 163.148 34.7384Z" fill="#FED525"/>
</svg>
