<svg width="25" height="25" viewBox="0 0 25 25" fill="none" xmlns="http://www.w3.org/2000/svg">
<g clip-path="url(#clip0_1481_9177)">
<path d="M6.09315 10.7912C8.68785 10.7912 10.7913 8.68767 10.7913 6.09286C10.7913 3.49804 8.68785 1.39453 6.09315 1.39453C3.49844 1.39453 1.39502 3.49804 1.39502 6.09286C1.39502 8.68767 3.49844 10.7912 6.09315 10.7912Z" stroke="#39251A" stroke-width="1.8" stroke-linecap="round" stroke-linejoin="round"/>
<path d="M18.9069 10.7912C21.5016 10.7912 23.605 8.68767 23.605 6.09286C23.605 3.49804 21.5016 1.39453 18.9069 1.39453C16.3122 1.39453 14.2087 3.49804 14.2087 6.09286C14.2087 8.68767 16.3122 10.7912 18.9069 10.7912Z" stroke="#39251A" stroke-width="1.8" stroke-linecap="round" stroke-linejoin="round"/>
<path d="M6.09315 23.6037C8.68785 23.6037 10.7913 21.5002 10.7913 18.9054C10.7913 16.3105 8.68785 14.207 6.09315 14.207C3.49844 14.207 1.39502 16.3105 1.39502 18.9054C1.39502 21.5002 3.49844 23.6037 6.09315 23.6037Z" stroke="#39251A" stroke-width="1.8" stroke-linecap="round" stroke-linejoin="round"/>
<path d="M18.9069 23.6037C21.5016 23.6037 23.605 21.5002 23.605 18.9054C23.605 16.3105 21.5016 14.207 18.9069 14.207C16.3122 14.207 14.2087 16.3105 14.2087 18.9054C14.2087 21.5002 16.3122 23.6037 18.9069 23.6037Z" stroke="#39251A" stroke-width="1.8" stroke-linecap="round" stroke-linejoin="round"/>
</g>
<defs>
<clipPath id="clip0_1481_9177">
<rect width="25" height="25" fill="white"/>
</clipPath>
</defs>
</svg>
