<svg width="24" height="25" viewBox="0 0 24 25" fill="none" xmlns="http://www.w3.org/2000/svg">
<g clip-path="url(#clip0_29_3132)">
<path d="M19.7142 10.7573L18.1885 22.1059C18.138 22.524 17.9353 22.9089 17.6191 23.1872C17.3029 23.4654 16.8954 23.6175 16.4742 23.6145H7.5085C7.08734 23.6175 6.6798 23.4654 6.36361 23.1872C6.04743 22.9089 5.84475 22.524 5.79422 22.1059L4.28564 10.7573" stroke="#39251A" stroke-width="1.5" stroke-linecap="round" stroke-linejoin="round"/>
<path d="M18.3942 6.77986C18.2749 6.42504 18.0428 6.11901 17.7332 5.90851C17.4237 5.69802 17.0538 5.59464 16.6799 5.61415H7.23422C6.87483 5.61322 6.52423 5.72527 6.23199 5.93445C5.93975 6.14363 5.72065 6.43937 5.60564 6.77986L4.28564 10.757H19.7142L18.3942 6.77986Z" stroke="#39251A" stroke-width="1.5" stroke-linecap="round" stroke-linejoin="round"/>
<path d="M14.5716 5.61433V3.0429C14.5716 2.58824 14.391 2.15221 14.0695 1.83072C13.748 1.50923 13.3119 1.32861 12.8573 1.32861H11.143C10.6883 1.32861 10.2523 1.50923 9.93081 1.83072C9.60932 2.15221 9.42871 2.58824 9.42871 3.0429V5.61433" stroke="#39251A" stroke-width="1.5" stroke-linecap="round" stroke-linejoin="round"/>
</g>
<defs>
<clipPath id="clip0_29_3132">
<rect width="24" height="24" fill="white" transform="translate(0 0.47168)"/>
</clipPath>
</defs>
</svg>
