<svg width="20" height="20" viewBox="0 0 20 20" fill="none" xmlns="http://www.w3.org/2000/svg">
<g clip-path="url(#clip0_29_2387)">
<path fill-rule="evenodd" clip-rule="evenodd" d="M9.7675 0.676086C9.79867 0.571324 9.89522 0.499023 10.0047 0.499023C10.1143 0.499023 10.2108 0.571324 10.242 0.676086C10.242 0.676086 10.6762 2.13156 11.1416 3.69267C11.8832 6.1798 13.8287 8.12534 16.3158 8.86692C17.877 9.33232 19.3324 9.76653 19.3324 9.76653C19.4372 9.7977 19.5095 9.89425 19.5095 10.0038C19.5095 10.1133 19.4372 10.2098 19.3324 10.241C19.3324 10.241 17.877 10.6752 16.3158 11.1406C13.8287 11.8822 11.8832 13.8278 11.1416 16.3149C10.6762 17.876 10.242 19.3315 10.242 19.3315C10.2108 19.4362 10.1143 19.5085 10.0047 19.5085C9.89522 19.5085 9.79867 19.4362 9.7675 19.3315C9.7675 19.3315 9.33329 17.876 8.86789 16.3149C8.12631 13.8278 6.18076 11.8822 3.69364 11.1406C2.13254 10.6752 0.677063 10.241 0.677063 10.241C0.572294 10.2098 0.5 10.1133 0.5 10.0038C0.5 9.89425 0.572294 9.7977 0.677063 9.76653C0.677063 9.76653 2.13254 9.33232 3.69364 8.86692C6.18076 8.12534 8.12631 6.1798 8.86789 3.69267C9.33329 2.13156 9.7675 0.676086 9.7675 0.676086Z" fill="#FED525"/>
</g>
<defs>
<clipPath id="clip0_29_2387">
<rect width="20" height="20" fill="white"/>
</clipPath>
</defs>
</svg>
