<svg width="25" height="25" viewBox="0 0 25 25" fill="none" xmlns="http://www.w3.org/2000/svg">
<g clip-path="url(#clip0_29_3118)">
<path d="M16.4303 2.06993L16.276 2.03564L2.13316 10.3671C2.01007 10.432 1.90589 10.5277 1.83078 10.6449C1.75568 10.7621 1.7122 10.8967 1.70459 11.0356V22.5385C1.70459 22.7658 1.7949 22.9838 1.95564 23.1446C2.11639 23.3053 2.3344 23.3956 2.56173 23.3956H23.1332C23.3605 23.3956 23.5785 23.3053 23.7393 23.1446C23.9 22.9838 23.9903 22.7658 23.9903 22.5385V10.5385C23.7265 8.53092 22.8642 6.6493 21.5158 5.13879C20.1673 3.62828 18.3952 2.55889 16.4303 2.06993V2.06993Z" stroke="#39251A" stroke-width="1.5" stroke-linecap="round" stroke-linejoin="round"/>
<path d="M1.85889 10.6069H23.1332" stroke="#39251A" stroke-width="1.5" stroke-linecap="round" stroke-linejoin="round"/>
<path d="M1.70459 18.6129L1.84173 18.4929C2.15927 18.169 2.53794 17.9112 2.95579 17.7347C3.37365 17.5581 3.82239 17.4662 4.27602 17.4644C5.18533 17.4644 6.0574 17.8256 6.70038 18.4686C7.34337 19.1115 7.70459 19.9836 7.70459 20.8929C7.70076 21.8008 7.33703 22.67 6.69316 23.3101L6.55602 23.4644" stroke="#39251A" stroke-width="1.5" stroke-linecap="round" stroke-linejoin="round"/>
<path d="M16.276 19.1785C17.6962 19.1785 18.8474 18.0272 18.8474 16.6071C18.8474 15.1869 17.6962 14.0356 16.276 14.0356C14.8559 14.0356 13.7046 15.1869 13.7046 16.6071C13.7046 18.0272 14.8559 19.1785 16.276 19.1785Z" stroke="#39251A" stroke-width="1.5" stroke-linecap="round" stroke-linejoin="round"/>
</g>
<defs>
<clipPath id="clip0_29_3118">
<rect width="24" height="24" fill="white" transform="translate(0.847656 0.75)"/>
</clipPath>
</defs>
</svg>
