<svg width="24" height="25" viewBox="0 0 24 25" fill="none" xmlns="http://www.w3.org/2000/svg">
<g clip-path="url(#clip0_29_3061)">
<path d="M21.4284 9.90039H2.57122C1.62445 9.90039 0.856934 10.6679 0.856934 11.6147V21.9004C0.856934 22.8472 1.62445 23.6147 2.57122 23.6147H21.4284C22.3751 23.6147 23.1426 22.8472 23.1426 21.9004V11.6147C23.1426 10.6679 22.3751 9.90039 21.4284 9.90039Z" stroke="#39251A" stroke-width="1.5" stroke-linecap="round" stroke-linejoin="round"/>
<path d="M5.14258 6.47178V3.04321" stroke="#39251A" stroke-width="1.5" stroke-linecap="round" stroke-linejoin="round"/>
<path d="M12 6.47178V3.04321" stroke="#39251A" stroke-width="1.5" stroke-linecap="round" stroke-linejoin="round"/>
<path d="M18.8569 6.47178V3.04321" stroke="#39251A" stroke-width="1.5" stroke-linecap="round" stroke-linejoin="round"/>
<path d="M23.1426 17.6146H22.2855C21.3762 17.6146 20.5041 17.2534 19.8611 16.6104C19.2182 15.9674 18.8569 15.0953 18.8569 14.186C18.8569 15.0953 18.4957 15.9674 17.8527 16.6104C17.2097 17.2534 16.3377 17.6146 15.4284 17.6146C14.519 17.6146 13.647 17.2534 13.004 16.6104C12.361 15.9674 11.9998 15.0953 11.9998 14.186C11.9998 15.0953 11.6386 15.9674 10.9956 16.6104C10.3526 17.2534 9.48053 17.6146 8.57122 17.6146C7.66191 17.6146 6.78983 17.2534 6.14685 16.6104C5.50387 15.9674 5.14265 15.0953 5.14265 14.186C5.14265 15.0953 4.78142 15.9674 4.13844 16.6104C3.49546 17.2534 2.62339 17.6146 1.71408 17.6146H0.856934" stroke="#39251A" stroke-width="1.5" stroke-linecap="round" stroke-linejoin="round"/>
</g>
<defs>
<clipPath id="clip0_29_3061">
<rect width="24" height="24" fill="white" transform="translate(0 0.47168)"/>
</clipPath>
</defs>
</svg>
