<svg width="24" height="25" viewBox="0 0 24 25" fill="none" xmlns="http://www.w3.org/2000/svg">
<g clip-path="url(#clip0_29_2716)">
<path d="M15.5826 2.10118L15.4284 2.06689L1.28551 10.3983C1.16241 10.4633 1.05823 10.559 0.983128 10.6761C0.908021 10.7933 0.864545 10.9279 0.856934 11.0669V22.5698C0.856934 22.7971 0.947239 23.0151 1.10798 23.1758C1.26873 23.3366 1.48675 23.4269 1.71408 23.4269H22.2855C22.5128 23.4269 22.7309 23.3366 22.8916 23.1758C23.0523 23.0151 23.1426 22.7971 23.1426 22.5698V10.5698C22.8789 8.56217 22.0166 6.68055 20.6681 5.17004C19.3197 3.65953 17.5476 2.59014 15.5826 2.10118V2.10118Z" stroke="#39251A" stroke-width="1.5" stroke-linecap="round" stroke-linejoin="round"/>
<path d="M1.01123 10.6382H22.2855" stroke="#39251A" stroke-width="1.5" stroke-linecap="round" stroke-linejoin="round"/>
<path d="M0.856934 18.6442L0.994076 18.5242C1.31161 18.2002 1.69028 17.9425 2.10814 17.7659C2.526 17.5894 2.97474 17.4975 3.42836 17.4956C4.33768 17.4956 5.20975 17.8568 5.85273 18.4998C6.49571 19.1428 6.85693 20.0149 6.85693 20.9242C6.85311 21.832 6.48937 22.7013 5.84551 23.3413L5.70836 23.4956" stroke="#39251A" stroke-width="1.5" stroke-linecap="round" stroke-linejoin="round"/>
<path d="M15.4284 19.2098C16.8485 19.2098 17.9998 18.0585 17.9998 16.6383C17.9998 15.2182 16.8485 14.0669 15.4284 14.0669C14.0082 14.0669 12.8569 15.2182 12.8569 16.6383C12.8569 18.0585 14.0082 19.2098 15.4284 19.2098Z" stroke="#39251A" stroke-width="1.5" stroke-linecap="round" stroke-linejoin="round"/>
</g>
<defs>
<clipPath id="clip0_29_2716">
<rect width="24" height="24" fill="white" transform="translate(0 0.78125)"/>
</clipPath>
</defs>
</svg>
