<svg width="26" height="26" viewBox="0 0 26 26" fill="none" xmlns="http://www.w3.org/2000/svg">
<g clip-path="url(#clip0_112_642)">
<path d="M6.30427 11.2145C9.01638 11.2145 11.215 9.01589 11.215 6.30378C11.215 3.59167 9.01638 1.39307 6.30427 1.39307C3.59216 1.39307 1.39355 3.59167 1.39355 6.30378C1.39355 9.01589 3.59216 11.2145 6.30427 11.2145Z" stroke="#39251A" stroke-linecap="round" stroke-linejoin="round"/>
<path d="M19.6978 11.2145C22.4099 11.2145 24.6085 9.01589 24.6085 6.30378C24.6085 3.59167 22.4099 1.39307 19.6978 1.39307C16.9857 1.39307 14.7871 3.59167 14.7871 6.30378C14.7871 9.01589 16.9857 11.2145 19.6978 11.2145Z" stroke="#39251A" stroke-linecap="round" stroke-linejoin="round"/>
<path d="M6.30427 24.6073C9.01638 24.6073 11.215 22.4087 11.215 19.6966C11.215 16.9845 9.01638 14.7859 6.30427 14.7859C3.59216 14.7859 1.39355 16.9845 1.39355 19.6966C1.39355 22.4087 3.59216 24.6073 6.30427 24.6073Z" stroke="#39251A" stroke-linecap="round" stroke-linejoin="round"/>
<path d="M19.6978 24.6076C22.4099 24.6076 24.6085 22.409 24.6085 19.6968C24.6085 16.9847 22.4099 14.7861 19.6978 14.7861C16.9857 14.7861 14.7871 16.9847 14.7871 19.6968C14.7871 22.409 16.9857 24.6076 19.6978 24.6076Z" stroke="#39251A" stroke-linecap="round" stroke-linejoin="round"/>
</g>
<defs>
<clipPath id="clip0_112_642">
<rect width="25" height="25" fill="white" transform="translate(0.5 0.5)"/>
</clipPath>
</defs>
</svg>
