<svg width="24" height="24" viewBox="0 0 24 24" fill="none" xmlns="http://www.w3.org/2000/svg">
<path d="M18.2404 2.63989H5.76037C5.47265 2.64779 5.19083 2.72329 4.93769 2.86028C4.68455 2.99728 4.46721 3.19192 4.30323 3.42846L1.18323 7.74846C0.95155 8.07585 0.83585 8.47123 0.854484 8.87186C0.873118 9.27249 1.02502 9.65543 1.28608 9.95989L10.6461 20.7428C10.8063 20.9492 11.0117 21.1163 11.2464 21.2313C11.4811 21.3462 11.739 21.406 12.0004 21.406C12.2617 21.406 12.5196 21.3462 12.7544 21.2313C12.9891 21.1163 13.1944 20.9492 13.3547 20.7428L22.7147 9.95989C22.9757 9.65543 23.1276 9.27249 23.1463 8.87186C23.1649 8.47123 23.0492 8.07585 22.8175 7.74846L19.6975 3.42846C19.5335 3.19192 19.3162 2.99728 19.063 2.86028C18.8099 2.72329 18.5281 2.64779 18.2404 2.63989V2.63989Z" stroke="#39251A" stroke-width="1.5" stroke-linecap="round" stroke-linejoin="round"/>
<path d="M11.1086 2.6228L6.92578 9.1028L12.0001 21.3599" stroke="#39251A" stroke-width="1.5" stroke-linecap="round" stroke-linejoin="round"/>
<path d="M12.9429 2.6228L17.1086 9.1028L12 21.3599" stroke="#39251A" stroke-width="1.5" stroke-linecap="round" stroke-linejoin="round"/>
<path d="M0.891602 9.10278H23.1087" stroke="#39251A" stroke-width="1.5" stroke-linecap="round" stroke-linejoin="round"/>
</svg>
