<svg width="24" height="25" viewBox="0 0 24 25" fill="none" xmlns="http://www.w3.org/2000/svg">
<g clip-path="url(#clip0_29_3049)">
<path d="M5.57366 10.7577C8.17729 10.7577 10.2879 8.64702 10.2879 6.04339C10.2879 3.43976 8.17729 1.3291 5.57366 1.3291C2.97003 1.3291 0.859375 3.43976 0.859375 6.04339C0.859375 8.64702 2.97003 10.7577 5.57366 10.7577Z" stroke="#39251A" stroke-width="1.5" stroke-linecap="round" stroke-linejoin="round"/>
<path d="M18.433 10.7577C21.0367 10.7577 23.1473 8.64702 23.1473 6.04339C23.1473 3.43976 21.0367 1.3291 18.433 1.3291C15.8294 1.3291 13.7188 3.43976 13.7188 6.04339C13.7188 8.64702 15.8294 10.7577 18.433 10.7577Z" stroke="#39251A" stroke-width="1.5" stroke-linecap="round" stroke-linejoin="round"/>
<path d="M5.57366 23.6149C8.17729 23.6149 10.2879 21.5042 10.2879 18.9006C10.2879 16.2969 8.17729 14.1863 5.57366 14.1863C2.97003 14.1863 0.859375 16.2969 0.859375 18.9006C0.859375 21.5042 2.97003 23.6149 5.57366 23.6149Z" stroke="#39251A" stroke-width="1.5" stroke-linecap="round" stroke-linejoin="round"/>
<path d="M18.433 23.6151C21.0367 23.6151 23.1473 21.5044 23.1473 18.9008C23.1473 16.2972 21.0367 14.1865 18.433 14.1865C15.8294 14.1865 13.7188 16.2972 13.7188 18.9008C13.7188 21.5044 15.8294 23.6151 18.433 23.6151Z" stroke="#39251A" stroke-width="1.5" stroke-linecap="round" stroke-linejoin="round"/>
</g>
<defs>
<clipPath id="clip0_29_3049">
<rect width="24" height="24" fill="white" transform="translate(0 0.47168)"/>
</clipPath>
</defs>
</svg>
