<svg width="20" height="20" viewBox="0 0 20 20" fill="none" xmlns="http://www.w3.org/2000/svg">
<g clip-path="url(#clip0_29_3488)">
<path d="M4.64488 8.57101C6.81457 8.57101 8.57345 6.81213 8.57345 4.64244C8.57345 2.47275 6.81457 0.713867 4.64488 0.713867C2.47519 0.713867 0.716309 2.47275 0.716309 4.64244C0.716309 6.81213 2.47519 8.57101 4.64488 8.57101Z" stroke="#39251A" stroke-width="1.5" stroke-linecap="round" stroke-linejoin="round"/>
<path d="M15.3627 8.57101C17.5323 8.57101 19.2912 6.81213 19.2912 4.64244C19.2912 2.47275 17.5323 0.713867 15.3627 0.713867C13.193 0.713867 11.4341 2.47275 11.4341 4.64244C11.4341 6.81213 13.193 8.57101 15.3627 8.57101Z" stroke="#39251A" stroke-width="1.5" stroke-linecap="round" stroke-linejoin="round"/>
<path d="M4.64488 19.2859C6.81457 19.2859 8.57345 17.527 8.57345 15.3573C8.57345 13.1876 6.81457 11.4287 4.64488 11.4287C2.47519 11.4287 0.716309 13.1876 0.716309 15.3573C0.716309 17.527 2.47519 19.2859 4.64488 19.2859Z" stroke="#39251A" stroke-width="1.5" stroke-linecap="round" stroke-linejoin="round"/>
<path d="M15.3627 19.2859C17.5323 19.2859 19.2912 17.527 19.2912 15.3573C19.2912 13.1876 17.5323 11.4287 15.3627 11.4287C13.193 11.4287 11.4341 13.1876 11.4341 15.3573C11.4341 17.527 13.193 19.2859 15.3627 19.2859Z" stroke="#39251A" stroke-width="1.5" stroke-linecap="round" stroke-linejoin="round"/>
</g>
<defs>
<clipPath id="clip0_29_3488">
<rect width="20" height="20" fill="white"/>
</clipPath>
</defs>
</svg>
