<svg width="21" height="21" viewBox="0 0 21 21" fill="none" xmlns="http://www.w3.org/2000/svg">
<g clip-path="url(#clip0_62_2906)">
<path d="M13.7803 13.6059C15.9086 10.2663 15.641 10.6829 15.7023 10.5959C16.4772 9.50297 16.8867 8.21668 16.8867 6.87598C16.8867 3.32051 14.0015 0.391602 10.4414 0.391602C6.89289 0.391602 3.99609 3.31473 3.99609 6.87598C3.99609 8.21582 4.41422 9.53578 5.21445 10.6434L7.10242 13.6059C5.08387 13.9161 1.65234 14.8405 1.65234 16.876C1.65234 17.618 2.13664 18.6754 4.44383 19.4994C6.05484 20.0747 8.1848 20.3916 10.4414 20.3916C14.6611 20.3916 19.2305 19.2013 19.2305 16.876C19.2305 14.8402 15.803 13.9167 13.7803 13.6059ZM6.19332 9.99883C6.18687 9.98875 6.18016 9.97891 6.17312 9.96922C5.50723 9.05312 5.16797 7.96742 5.16797 6.87598C5.16797 3.94559 7.52758 1.56348 10.4414 1.56348C13.3492 1.56348 15.7148 3.94664 15.7148 6.87598C15.7148 7.96918 15.382 9.01805 14.7521 9.91C14.6957 9.98445 14.9902 9.52695 10.4414 16.6646L6.19332 9.99883ZM10.4414 19.2197C5.83227 19.2197 2.82422 17.8649 2.82422 16.876C2.82422 16.2113 4.36984 15.1184 7.79484 14.6923L9.94727 18.0698C10.0548 18.2386 10.2412 18.3408 10.4414 18.3408C10.6416 18.3408 10.8279 18.2386 10.9355 18.0698L13.0879 14.6923C16.5129 15.1184 18.0586 16.2113 18.0586 16.876C18.0586 17.8565 15.0776 19.2197 10.4414 19.2197Z" fill="white"/>
<path d="M10.4414 3.94629C8.82598 3.94629 7.51172 5.26055 7.51172 6.87598C7.51172 8.49141 8.82598 9.80566 10.4414 9.80566C12.0568 9.80566 13.3711 8.49141 13.3711 6.87598C13.3711 5.26055 12.0568 3.94629 10.4414 3.94629ZM10.4414 8.63379C9.47215 8.63379 8.68359 7.84523 8.68359 6.87598C8.68359 5.90672 9.47215 5.11816 10.4414 5.11816C11.4107 5.11816 12.1992 5.90672 12.1992 6.87598C12.1992 7.84523 11.4107 8.63379 10.4414 8.63379Z" fill="white"/>
</g>
<defs>
<clipPath id="clip0_62_2906">
<rect width="20" height="20" fill="white" transform="translate(0.441406 0.391602)"/>
</clipPath>
</defs>
</svg>
