<svg width="30" height="31" viewBox="0 0 30 31" fill="none" xmlns="http://www.w3.org/2000/svg">
<path d="M22.8002 4.08154H7.20022C6.84057 4.09142 6.48829 4.18579 6.17187 4.35703C5.85545 4.52827 5.58376 4.77157 5.37879 5.06726L1.47879 10.4673C1.18919 10.8765 1.04457 11.3707 1.06786 11.8715C1.09115 12.3723 1.28103 12.851 1.60736 13.2315L13.3074 26.7101C13.5077 26.9682 13.7643 27.1771 14.0577 27.3208C14.3511 27.4645 14.6735 27.5392 15.0002 27.5392C15.3269 27.5392 15.6493 27.4645 15.9427 27.3208C16.2361 27.1771 16.4928 26.9682 16.6931 26.7101L28.3931 13.2315C28.7194 12.851 28.9093 12.3723 28.9326 11.8715C28.9559 11.3707 28.8112 10.8765 28.5216 10.4673L24.6216 5.06726C24.4167 4.77157 24.145 4.52827 23.8286 4.35703C23.5121 4.18579 23.1599 4.09142 22.8002 4.08154V4.08154Z" stroke="#39251A" stroke-width="1.5" stroke-linecap="round" stroke-linejoin="round"/>
<path d="M13.8858 4.06006L8.65723 12.1601L15.0001 27.4815" stroke="#39251A" stroke-width="1.5" stroke-linecap="round" stroke-linejoin="round"/>
<path d="M16.1786 4.06006L21.3857 12.1601L15 27.4815" stroke="#39251A" stroke-width="1.5" stroke-linecap="round" stroke-linejoin="round"/>
<path d="M1.11426 12.1602H28.8857" stroke="#39251A" stroke-width="1.5" stroke-linecap="round" stroke-linejoin="round"/>
</svg>
