<svg width="24" height="25" viewBox="0 0 24 25" fill="none" xmlns="http://www.w3.org/2000/svg">
<g clip-path="url(#clip0_29_3423)">
<path d="M15.5826 1.69542L15.4284 1.66113L1.28551 9.99256C1.16241 10.0575 1.05823 10.1532 0.983128 10.2704C0.908021 10.3875 0.864545 10.5222 0.856934 10.6611V22.164C0.856934 22.3913 0.947239 22.6093 1.10798 22.7701C1.26873 22.9308 1.48675 23.0211 1.71408 23.0211H22.2855C22.5128 23.0211 22.7309 22.9308 22.8916 22.7701C23.0523 22.6093 23.1426 22.3913 23.1426 22.164V10.164C22.8789 8.1564 22.0166 6.27479 20.6681 4.76428C19.3197 3.25377 17.5476 2.18437 15.5826 1.69542V1.69542Z" stroke="#39251A" stroke-width="1.5" stroke-linecap="round" stroke-linejoin="round"/>
<path d="M1.01123 10.2324H22.2855" stroke="#39251A" stroke-width="1.5" stroke-linecap="round" stroke-linejoin="round"/>
<path d="M0.856934 18.2384L0.994076 18.1184C1.31161 17.7945 1.69028 17.5367 2.10814 17.3602C2.526 17.1836 2.97474 17.0917 3.42836 17.0898C4.33768 17.0898 5.20975 17.4511 5.85273 18.094C6.49571 18.737 6.85693 19.6091 6.85693 20.5184C6.85311 21.4263 6.48937 22.2955 5.84551 22.9356L5.70836 23.0898" stroke="#39251A" stroke-width="1.5" stroke-linecap="round" stroke-linejoin="round"/>
<path d="M15.4284 18.804C16.8485 18.804 17.9998 17.6527 17.9998 16.2326C17.9998 14.8124 16.8485 13.6611 15.4284 13.6611C14.0082 13.6611 12.8569 14.8124 12.8569 16.2326C12.8569 17.6527 14.0082 18.804 15.4284 18.804Z" stroke="#39251A" stroke-width="1.5" stroke-linecap="round" stroke-linejoin="round"/>
</g>
<defs>
<clipPath id="clip0_29_3423">
<rect width="24" height="24" fill="white" transform="translate(0 0.375)"/>
</clipPath>
</defs>
</svg>
