<svg width="24" height="24" viewBox="0 0 24 24" fill="none" xmlns="http://www.w3.org/2000/svg">
<g clip-path="url(#clip0_60_9592)">
<path d="M15.017 22.2857C16.0727 22.9668 17.3307 23.2636 18.5795 23.1262C19.8283 22.9889 20.9917 22.4257 21.8741 21.5314L22.6456 20.7772C22.9838 20.4312 23.1731 19.9667 23.1731 19.4829C23.1731 18.9991 22.9838 18.5345 22.6456 18.1886L19.3713 14.9486C19.0282 14.6115 18.5665 14.4226 18.0856 14.4226C17.6046 14.4226 17.1429 14.6115 16.7998 14.9486V14.9486C16.4539 15.2868 15.9893 15.4762 15.5056 15.4762C15.0218 15.4762 14.5572 15.2868 14.2113 14.9486L9.06841 9.80573C8.89685 9.63666 8.76061 9.43517 8.66762 9.21298C8.57463 8.99078 8.52674 8.75232 8.52674 8.51145C8.52674 8.27058 8.57463 8.03211 8.66762 7.80992C8.76061 7.58772 8.89685 7.38623 9.06841 7.21716V7.21716C9.40553 6.87413 9.59444 6.41241 9.59444 5.93145C9.59444 5.45049 9.40553 4.98877 9.06841 4.64573L5.81127 1.38859C5.46534 1.05039 5.00077 0.861023 4.51698 0.861023C4.0332 0.861023 3.56863 1.05039 3.2227 1.38859L2.46841 2.16002C1.57415 3.04243 1.01098 4.20585 0.873617 5.45465C0.736249 6.70344 1.03305 7.96146 1.71413 9.01716C5.26277 14.247 9.77802 18.7506 15.017 22.2857V22.2857Z" stroke="#39251A" stroke-width="1.5" stroke-linecap="round" stroke-linejoin="round"/>
</g>
<defs>
<clipPath id="clip0_60_9592">
<rect width="24" height="24" fill="white"/>
</clipPath>
</defs>
</svg>
