<svg width="20" height="21" viewBox="0 0 20 21" fill="none" xmlns="http://www.w3.org/2000/svg">
<g clip-path="url(#clip0_29_3479)">
<path d="M10.0001 8.23172C15.1284 8.23172 19.2858 6.63274 19.2858 4.6603C19.2858 2.68785 15.1284 1.08887 10.0001 1.08887C4.87171 1.08887 0.714355 2.68785 0.714355 4.6603C0.714355 6.63274 4.87171 8.23172 10.0001 8.23172Z" stroke="#39251A" stroke-width="1.5" stroke-linecap="round" stroke-linejoin="round"/>
<path d="M0.714355 4.66016V16.0887C0.714355 18.0602 4.8715 19.6602 10.0001 19.6602C15.1286 19.6602 19.2858 18.0602 19.2858 16.0887V4.66016" stroke="#39251A" stroke-width="1.5" stroke-linecap="round" stroke-linejoin="round"/>
<path d="M19.2858 10.375C19.2858 12.3464 15.1286 13.9464 10.0001 13.9464C4.8715 13.9464 0.714355 12.3464 0.714355 10.375" stroke="#39251A" stroke-width="1.5" stroke-linecap="round" stroke-linejoin="round"/>
</g>
<defs>
<clipPath id="clip0_29_3479">
<rect width="20" height="20" fill="white" transform="translate(0 0.375)"/>
</clipPath>
</defs>
</svg>
