<svg width="25" height="25" viewBox="0 0 25 25" fill="none" xmlns="http://www.w3.org/2000/svg">
<g clip-path="url(#clip0_29_2408)">
<path d="M16.4308 2.07005L16.2765 2.03577L2.13365 10.3672C2.01055 10.4321 1.90638 10.5278 1.83127 10.645C1.75617 10.7622 1.71269 10.8968 1.70508 11.0358V22.5386C1.70508 22.766 1.79538 22.984 1.95613 23.1447C2.11687 23.3055 2.33489 23.3958 2.56222 23.3958H23.1336C23.361 23.3958 23.579 23.3055 23.7397 23.1447C23.9005 22.984 23.9908 22.766 23.9908 22.5386V10.5386C23.727 8.53104 22.8647 6.64943 21.5163 5.13891C20.1678 3.6284 18.3957 2.55901 16.4308 2.07005V2.07005Z" stroke="#39251A" stroke-width="1.5" stroke-linecap="round" stroke-linejoin="round"/>
<path d="M1.85938 10.6072H23.1337" stroke="#39251A" stroke-width="1.5" stroke-linecap="round" stroke-linejoin="round"/>
<path d="M1.70508 18.6129L1.84222 18.4929C2.15976 18.169 2.53842 17.9112 2.95628 17.7347C3.37414 17.5581 3.82288 17.4662 4.27651 17.4644C5.18582 17.4644 6.05789 17.8256 6.70087 18.4686C7.34385 19.1115 7.70508 19.9836 7.70508 20.8929C7.70125 21.8008 7.33751 22.67 6.69365 23.3101L6.55651 23.4644" stroke="#39251A" stroke-width="1.5" stroke-linecap="round" stroke-linejoin="round"/>
<path d="M16.2765 19.1786C17.6967 19.1786 18.8479 18.0274 18.8479 16.6072C18.8479 15.187 17.6967 14.0358 16.2765 14.0358C14.8563 14.0358 13.7051 15.187 13.7051 16.6072C13.7051 18.0274 14.8563 19.1786 16.2765 19.1786Z" stroke="#39251A" stroke-width="1.5" stroke-linecap="round" stroke-linejoin="round"/>
</g>
<defs>
<clipPath id="clip0_29_2408">
<rect width="24" height="24" fill="white" transform="translate(0.847656 0.75)"/>
</clipPath>
</defs>
</svg>
