<svg width="30" height="30" viewBox="0 0 30 30" fill="none" xmlns="http://www.w3.org/2000/svg">
<g clip-path="url(#clip0_62_2592)">
<path d="M7.288 12.9432C10.4124 12.9432 12.9451 10.4104 12.9451 7.28605C12.9451 4.16169 10.4124 1.62891 7.288 1.62891C4.16365 1.62891 1.63086 4.16169 1.63086 7.28605C1.63086 10.4104 4.16365 12.9432 7.288 12.9432Z" stroke="#39251A" stroke-width="1.5" stroke-linecap="round" stroke-linejoin="round"/>
<path d="M22.7196 12.9432C25.844 12.9432 28.3768 10.4104 28.3768 7.28605C28.3768 4.16169 25.844 1.62891 22.7196 1.62891C19.5953 1.62891 17.0625 4.16169 17.0625 7.28605C17.0625 10.4104 19.5953 12.9432 22.7196 12.9432Z" stroke="#39251A" stroke-width="1.5" stroke-linecap="round" stroke-linejoin="round"/>
<path d="M7.288 28.3718C10.4124 28.3718 12.9451 25.839 12.9451 22.7146C12.9451 19.5903 10.4124 17.0575 7.288 17.0575C4.16365 17.0575 1.63086 19.5903 1.63086 22.7146C1.63086 25.839 4.16365 28.3718 7.288 28.3718Z" stroke="#39251A" stroke-width="1.5" stroke-linecap="round" stroke-linejoin="round"/>
<path d="M22.7196 28.3721C25.844 28.3721 28.3768 25.8394 28.3768 22.715C28.3768 19.5906 25.844 17.0579 22.7196 17.0579C19.5953 17.0579 17.0625 19.5906 17.0625 22.715C17.0625 25.8394 19.5953 28.3721 22.7196 28.3721Z" stroke="#39251A" stroke-width="1.5" stroke-linecap="round" stroke-linejoin="round"/>
</g>
<defs>
<clipPath id="clip0_62_2592">
<rect width="28.8" height="28.8" fill="white" transform="translate(0.599609 0.599976)"/>
</clipPath>
</defs>
</svg>
