<svg width="24" height="25" viewBox="0 0 24 25" fill="none" xmlns="http://www.w3.org/2000/svg">
<g clip-path="url(#clip0_29_2885)">
<path d="M22.9024 12.1295C22.9317 11.8902 22.9102 11.6474 22.8393 11.417C22.7684 11.1866 22.6497 10.9738 22.491 10.7923C22.3303 10.6095 22.1326 10.4629 21.9109 10.3624C21.6892 10.2619 21.4487 10.2098 21.2053 10.2095H2.79383C2.55043 10.2098 2.30988 10.2619 2.08819 10.3624C1.86651 10.4629 1.66876 10.6095 1.50812 10.7923C1.34938 10.9738 1.23069 11.1866 1.15979 11.417C1.0889 11.6474 1.0674 11.8902 1.09669 12.1295L2.3824 22.4152C2.43293 22.8333 2.63562 23.2182 2.9518 23.4965C3.26798 23.7747 3.67552 23.9268 4.09669 23.9238H19.9367C20.3578 23.9268 20.7654 23.7747 21.0816 23.4965C21.3978 23.2182 21.6004 22.8333 21.651 22.4152L22.9024 12.1295Z" stroke="#39251A" stroke-width="1.5" stroke-linecap="round" stroke-linejoin="round"/>
<path d="M4.28516 10.2096V9.35247C4.28516 7.30651 5.09791 5.34435 6.54462 3.89765C7.99133 2.45094 9.95349 1.63818 11.9994 1.63818C14.0454 1.63818 16.0076 2.45094 17.4543 3.89765C18.901 5.34435 19.7137 7.30651 19.7137 9.35247V10.2096" stroke="#39251A" stroke-width="1.5" stroke-linecap="round" stroke-linejoin="round"/>
<path d="M8.57129 15.3525V18.7811" stroke="#39251A" stroke-width="1.5" stroke-linecap="round" stroke-linejoin="round"/>
<path d="M15.4277 15.3525V18.7811" stroke="#39251A" stroke-width="1.5" stroke-linecap="round" stroke-linejoin="round"/>
</g>
<defs>
<clipPath id="clip0_29_2885">
<rect width="24" height="24" fill="white" transform="translate(0 0.78125)"/>
</clipPath>
</defs>
</svg>
