<svg width="30" height="30" viewBox="0 0 30 30" fill="none" xmlns="http://www.w3.org/2000/svg">
<g clip-path="url(#clip0_29_2540)">
<path d="M16.0053 14.7837C15.6875 14.9217 15.3447 14.9929 14.9982 14.9929C14.6517 14.9929 14.3089 14.9217 13.9911 14.7837L1.77678 9.12655C1.57844 9.02651 1.41176 8.87338 1.2953 8.68421C1.17885 8.49505 1.11719 8.27726 1.11719 8.05512C1.11719 7.83298 1.17885 7.6152 1.2953 7.42603C1.41176 7.23686 1.57844 7.08373 1.77678 6.98369L13.9911 1.28369C14.3089 1.14568 14.6517 1.07446 14.9982 1.07446C15.3447 1.07446 15.6875 1.14568 16.0053 1.28369L28.2196 6.94084C28.418 7.04088 28.5847 7.19401 28.7011 7.38317C28.8176 7.57234 28.8792 7.79012 28.8792 8.01227C28.8792 8.23441 28.8176 8.45219 28.7011 8.64136C28.5847 8.83052 28.418 8.98366 28.2196 9.08369L16.0053 14.7837Z" stroke="#39251A" stroke-width="1.5" stroke-linecap="round" stroke-linejoin="round"/>
<path d="M28.9275 15.748L15.856 21.7695C15.5769 21.8968 15.2736 21.9627 14.9667 21.9627C14.6599 21.9627 14.3566 21.8968 14.0775 21.7695L1.07031 15.748" stroke="#39251A" stroke-width="1.5" stroke-linecap="round" stroke-linejoin="round"/>
<path d="M28.9275 22.7122L15.856 28.7336C15.5769 28.8609 15.2736 28.9268 14.9667 28.9268C14.6599 28.9268 14.3566 28.8609 14.0775 28.7336L1.07031 22.7122" stroke="#39251A" stroke-width="1.5" stroke-linecap="round" stroke-linejoin="round"/>
</g>
<defs>
<clipPath id="clip0_29_2540">
<rect width="30" height="30" fill="white" transform="translate(0 -0.00195312)"/>
</clipPath>
</defs>
</svg>
