<svg width="30" height="31" viewBox="0 0 30 31" fill="none" xmlns="http://www.w3.org/2000/svg">
<g clip-path="url(#clip0_29_2906)">
<path d="M3.21415 13.6382H5.357C5.64116 13.6382 5.91369 13.7511 6.11462 13.952C6.31555 14.1529 6.42843 14.4255 6.42843 14.7096V20.0668C6.42843 20.3509 6.31555 20.6234 6.11462 20.8244C5.91369 21.0253 5.64116 21.1382 5.357 21.1382H3.21415C2.64583 21.1382 2.10078 20.9124 1.69892 20.5106C1.29705 20.1087 1.07129 19.5636 1.07129 18.9953V15.781C1.07129 15.2127 1.29705 14.6677 1.69892 14.2658C2.10078 13.8639 2.64583 13.6382 3.21415 13.6382V13.6382Z" stroke="#39251A" stroke-width="1.5" stroke-linecap="round" stroke-linejoin="round"/>
<path d="M26.7854 21.1382H24.6425C24.3583 21.1382 24.0858 21.0253 23.8849 20.8244C23.684 20.6234 23.5711 20.3509 23.5711 20.0668V14.7096C23.5711 14.4255 23.684 14.1529 23.8849 13.952C24.0858 13.7511 24.3583 13.6382 24.6425 13.6382H26.7854C27.3537 13.6382 27.8987 13.8639 28.3006 14.2658C28.7025 14.6677 28.9282 15.2127 28.9282 15.781V18.9953C28.9282 19.5636 28.7025 20.1087 28.3006 20.5106C27.8987 20.9124 27.3537 21.1382 26.7854 21.1382V21.1382Z" stroke="#39251A" stroke-width="1.5" stroke-linecap="round" stroke-linejoin="round"/>
<path d="M20.3569 27.031C21.4936 27.031 22.5837 26.5795 23.3874 25.7758C24.1911 24.9721 24.6426 23.882 24.6426 22.7453V21.1382" stroke="#39251A" stroke-width="1.5" stroke-linecap="round" stroke-linejoin="round"/>
<path d="M17.6785 24.3525C18.3889 24.3525 19.0702 24.6347 19.5725 25.1371C20.0749 25.6394 20.3571 26.3207 20.3571 27.0311C20.3571 27.7415 20.0749 28.4228 19.5725 28.9251C19.0702 29.4275 18.3889 29.7097 17.6785 29.7097H14.4642C13.7538 29.7097 13.0725 29.4275 12.5702 28.9251C12.0679 28.4228 11.7856 27.7415 11.7856 27.0311C11.7856 26.3207 12.0679 25.6394 12.5702 25.1371C13.0725 24.6347 13.7538 24.3525 14.4642 24.3525H17.6785Z" stroke="#39251A" stroke-width="1.5" stroke-linecap="round" stroke-linejoin="round"/>
<path d="M5.35693 13.6383V11.4954C5.35693 8.93795 6.37287 6.48525 8.18126 4.67687C9.98965 2.86848 12.4423 1.85254 14.9998 1.85254C17.5572 1.85254 20.0099 2.86848 21.8183 4.67687C23.6267 6.48525 24.6426 8.93795 24.6426 11.4954V13.6383" stroke="#39251A" stroke-width="1.5" stroke-linecap="round" stroke-linejoin="round"/>
<path d="M11.7856 9.35254V12.5668" stroke="#39251A" stroke-width="1.5" stroke-linecap="round" stroke-linejoin="round"/>
<path d="M18.2144 9.35254V12.5668" stroke="#39251A" stroke-width="1.5" stroke-linecap="round" stroke-linejoin="round"/>
<path d="M11.7856 16.8525C11.7856 19.7025 18.2142 19.7025 18.2142 16.8525" stroke="#39251A" stroke-width="1.5" stroke-linecap="round" stroke-linejoin="round"/>
</g>
<defs>
<clipPath id="clip0_29_2906">
<rect width="30" height="30" fill="white" transform="translate(0 0.78125)"/>
</clipPath>
</defs>
</svg>
