<svg width="30" height="30" viewBox="0 0 30 30" fill="none" xmlns="http://www.w3.org/2000/svg">
<g clip-path="url(#clip0_29_2556)">
<path d="M19.4784 1.64808L19.2856 1.60522L1.607 12.0195C1.45314 12.1007 1.32292 12.2203 1.22903 12.3668C1.13515 12.5132 1.0808 12.6815 1.07129 12.8552V27.2338C1.07129 27.518 1.18417 27.7905 1.3851 27.9914C1.58603 28.1923 1.85856 28.3052 2.14272 28.3052H27.857C28.1412 28.3052 28.4137 28.1923 28.6146 27.9914C28.8155 27.7905 28.9284 27.518 28.9284 27.2338V12.2338C28.5987 9.72431 27.5209 7.3723 25.8353 5.48416C24.1497 3.59602 21.9346 2.25928 19.4784 1.64808V1.64808Z" stroke="#39251A" stroke-width="1.5" stroke-linecap="round" stroke-linejoin="round"/>
<path d="M1.26416 12.3196H27.857" stroke="#39251A" stroke-width="1.5" stroke-linecap="round" stroke-linejoin="round"/>
<path d="M1.07129 22.3266L1.24272 22.1766C1.63964 21.7716 2.11297 21.4495 2.63529 21.2288C3.15762 21.0081 3.71854 20.8932 4.28557 20.8909C5.42222 20.8909 6.51231 21.3424 7.31603 22.1461C8.11976 22.9499 8.57129 24.0399 8.57129 25.1766C8.5665 26.3114 8.11183 27.398 7.307 28.198L7.13557 28.3909" stroke="#39251A" stroke-width="1.5" stroke-linecap="round" stroke-linejoin="round"/>
<path d="M19.2856 23.0338C21.0608 23.0338 22.4999 21.5947 22.4999 19.8195C22.4999 18.0443 21.0608 16.6052 19.2856 16.6052C17.5104 16.6052 16.0713 18.0443 16.0713 19.8195C16.0713 21.5947 17.5104 23.0338 19.2856 23.0338Z" stroke="#39251A" stroke-width="1.5" stroke-linecap="round" stroke-linejoin="round"/>
</g>
<defs>
<clipPath id="clip0_29_2556">
<rect width="30" height="30" fill="white" transform="translate(0 -0.00195312)"/>
</clipPath>
</defs>
</svg>
