<svg width="30" height="30" viewBox="0 0 30 30" fill="none" xmlns="http://www.w3.org/2000/svg">
<path d="M9.64174 27.8553C14.3756 27.8553 18.2132 24.0177 18.2132 19.2838C18.2132 14.55 14.3756 10.7124 9.64174 10.7124C4.90787 10.7124 1.07031 14.55 1.07031 19.2838C1.07031 24.0177 4.90787 27.8553 9.64174 27.8553Z" stroke="#39251A" stroke-width="1.5" stroke-linecap="round" stroke-linejoin="round"/>
<path d="M20.3566 27.8553C25.0905 27.8553 28.928 24.0177 28.928 19.2838C28.928 14.55 25.0905 10.7124 20.3566 10.7124C15.6227 10.7124 11.7852 14.55 11.7852 19.2838C11.7852 24.0177 15.6227 27.8553 20.3566 27.8553Z" stroke="#39251A" stroke-width="1.5" stroke-linecap="round" stroke-linejoin="round"/>
<path d="M14.9972 19.2837C19.7311 19.2837 23.5686 15.4462 23.5686 10.7123C23.5686 5.97843 19.7311 2.14087 14.9972 2.14087C10.2633 2.14087 6.42578 5.97843 6.42578 10.7123C6.42578 15.4462 10.2633 19.2837 14.9972 19.2837Z" stroke="#39251A" stroke-width="1.5" stroke-linecap="round" stroke-linejoin="round"/>
</svg>
