<svg width="24" height="25" viewBox="0 0 24 25" fill="none" xmlns="http://www.w3.org/2000/svg">
<g clip-path="url(#clip0_29_2731)">
<path d="M11.9998 10.2101C18.1538 10.2101 23.1426 8.29132 23.1426 5.92439C23.1426 3.55745 18.1538 1.63867 11.9998 1.63867C5.84576 1.63867 0.856934 3.55745 0.856934 5.92439C0.856934 8.29132 5.84576 10.2101 11.9998 10.2101Z" stroke="#39251A" stroke-width="1.5" stroke-linecap="round" stroke-linejoin="round"/>
<path d="M0.856934 5.9248V19.6391C0.856934 22.0048 5.84551 23.9248 11.9998 23.9248C18.1541 23.9248 23.1426 22.0048 23.1426 19.6391V5.9248" stroke="#39251A" stroke-width="1.5" stroke-linecap="round" stroke-linejoin="round"/>
<path d="M23.1426 12.7812C23.1426 15.147 18.1541 17.067 11.9998 17.067C5.84551 17.067 0.856934 15.147 0.856934 12.7812" stroke="#39251A" stroke-width="1.5" stroke-linecap="round" stroke-linejoin="round"/>
</g>
<defs>
<clipPath id="clip0_29_2731">
<rect width="24" height="24" fill="white" transform="translate(0 0.78125)"/>
</clipPath>
</defs>
</svg>
