<svg width="30" height="30" viewBox="0 0 30 30" fill="none" xmlns="http://www.w3.org/2000/svg">
<g clip-path="url(#clip0_62_2583)">
<path d="M28.0825 14.2183C28.1176 13.9312 28.0918 13.6399 28.0068 13.3634C27.9217 13.0869 27.7793 12.8314 27.5888 12.6137C27.396 12.3943 27.1587 12.2184 26.8927 12.0978C26.6267 11.9772 26.338 11.9147 26.0459 11.9143H3.95221C3.66012 11.9147 3.37147 11.9772 3.10544 12.0978C2.83942 12.2184 2.60212 12.3943 2.40935 12.6137C2.21886 12.8314 2.07643 13.0869 1.99136 13.3634C1.90629 13.6399 1.88048 13.9312 1.91563 14.2183L3.45849 26.5612C3.51913 27.0629 3.76235 27.5248 4.14177 27.8587C4.52119 28.1926 5.01024 28.3751 5.51563 28.3714H24.5236C25.029 28.3751 25.5181 28.1926 25.8975 27.8587C26.2769 27.5248 26.5201 27.0629 26.5808 26.5612L28.0825 14.2183Z" stroke="#39251A" stroke-width="1.5" stroke-linecap="round" stroke-linejoin="round"/>
<path d="M5.74219 11.9143V10.8857C5.74219 8.43054 6.71749 6.07594 8.45354 4.33989C10.1896 2.60384 12.5442 1.62854 14.9993 1.62854C17.4545 1.62854 19.8091 2.60384 21.5451 4.33989C23.2812 6.07594 24.2565 8.43054 24.2565 10.8857V11.9143" stroke="#39251A" stroke-width="1.5" stroke-linecap="round" stroke-linejoin="round"/>
<path d="M10.8848 18.0858V22.2001" stroke="#39251A" stroke-width="1.5" stroke-linecap="round" stroke-linejoin="round"/>
<path d="M19.1133 18.0858V22.2001" stroke="#39251A" stroke-width="1.5" stroke-linecap="round" stroke-linejoin="round"/>
</g>
<defs>
<clipPath id="clip0_62_2583">
<rect width="28.8" height="28.8" fill="white" transform="translate(0.599609 0.599976)"/>
</clipPath>
</defs>
</svg>
