<svg width="24" height="25" viewBox="0 0 24 25" fill="none" xmlns="http://www.w3.org/2000/svg">
<g clip-path="url(#clip0_29_3096)">
<path d="M11.9998 9.90029C18.1538 9.90029 23.1426 7.98151 23.1426 5.61457C23.1426 3.24764 18.1538 1.32886 11.9998 1.32886C5.84576 1.32886 0.856934 3.24764 0.856934 5.61457C0.856934 7.98151 5.84576 9.90029 11.9998 9.90029Z" stroke="#39251A" stroke-width="1.5" stroke-linecap="round" stroke-linejoin="round"/>
<path d="M0.856934 5.6145V19.3288C0.856934 21.6945 5.84551 23.6145 11.9998 23.6145C18.1541 23.6145 23.1426 21.6945 23.1426 19.3288V5.6145" stroke="#39251A" stroke-width="1.5" stroke-linecap="round" stroke-linejoin="round"/>
<path d="M23.1426 12.4717C23.1426 14.8374 18.1541 16.7574 11.9998 16.7574C5.84551 16.7574 0.856934 14.8374 0.856934 12.4717" stroke="#39251A" stroke-width="1.5" stroke-linecap="round" stroke-linejoin="round"/>
</g>
<defs>
<clipPath id="clip0_29_3096">
<rect width="24" height="24" fill="white" transform="translate(0 0.47168)"/>
</clipPath>
</defs>
</svg>
