<svg width="24" height="25" viewBox="0 0 24 25" fill="none" xmlns="http://www.w3.org/2000/svg">
<g clip-path="url(#clip0_29_3435)">
<path d="M22.9029 11.7237C22.9322 11.4844 22.9107 11.2417 22.8398 11.0113C22.7689 10.7809 22.6502 10.568 22.4915 10.3866C22.3308 10.2037 22.1331 10.0572 21.9114 9.95665C21.6897 9.85616 21.4491 9.80402 21.2057 9.80371H2.79432C2.55092 9.80402 2.31037 9.85616 2.08868 9.95665C1.86699 10.0572 1.66925 10.2037 1.5086 10.3866C1.34987 10.568 1.23117 10.7809 1.16028 11.0113C1.08939 11.2417 1.06788 11.4844 1.09718 11.7237L2.38289 22.0094C2.43342 22.4276 2.63611 22.8125 2.95229 23.0907C3.26847 23.3689 3.67601 23.521 4.09718 23.518H19.9372C20.3583 23.521 20.7659 23.3689 21.0821 23.0907C21.3982 22.8125 21.6009 22.4276 21.6515 22.0094L22.9029 11.7237Z" stroke="#39251A" stroke-width="1.5" stroke-linecap="round" stroke-linejoin="round"/>
<path d="M4.28564 9.80385V8.94671C4.28564 6.90075 5.0984 4.93859 6.54511 3.49188C7.99182 2.04517 9.95397 1.23242 11.9999 1.23242C14.0459 1.23242 16.008 2.04517 17.4548 3.49188C18.9015 4.93859 19.7142 6.90075 19.7142 8.94671V9.80385" stroke="#39251A" stroke-width="1.5" stroke-linecap="round" stroke-linejoin="round"/>
<path d="M8.57129 14.9463V18.3749" stroke="#39251A" stroke-width="1.5" stroke-linecap="round" stroke-linejoin="round"/>
<path d="M15.4287 14.9463V18.3749" stroke="#39251A" stroke-width="1.5" stroke-linecap="round" stroke-linejoin="round"/>
</g>
<defs>
<clipPath id="clip0_29_3435">
<rect width="24" height="24" fill="white" transform="translate(0 0.375)"/>
</clipPath>
</defs>
</svg>
