<svg width="30" height="31" viewBox="0 0 30 31" fill="none" xmlns="http://www.w3.org/2000/svg">
<g clip-path="url(#clip0_29_3367)">
<path d="M28.6285 14.9669C28.6651 14.6678 28.6382 14.3643 28.5496 14.0763C28.461 13.7883 28.3126 13.5222 28.1142 13.2955C27.9134 13.0669 27.6662 12.8837 27.3891 12.7581C27.112 12.6325 26.8113 12.5673 26.5071 12.5669H3.49278C3.18852 12.5673 2.88784 12.6325 2.61073 12.7581C2.33362 12.8837 2.08644 13.0669 1.88563 13.2955C1.68721 13.5222 1.53885 13.7883 1.45023 14.0763C1.36161 14.3643 1.33473 14.6678 1.37135 14.9669L2.97849 27.824C3.04165 28.3467 3.29501 28.8278 3.69024 29.1756C4.08546 29.5234 4.59489 29.7136 5.12135 29.7098H24.9213C25.4478 29.7136 25.9572 29.5234 26.3525 29.1756C26.7477 28.8278 27.001 28.3467 27.0642 27.824L28.6285 14.9669Z" stroke="#39251A" stroke-width="1.5" stroke-linecap="round" stroke-linejoin="round"/>
<path d="M5.35693 12.5668V11.4954C5.35693 8.93795 6.37287 6.48525 8.18126 4.67687C9.98965 2.86848 12.4423 1.85254 14.9998 1.85254C17.5572 1.85254 20.0099 2.86848 21.8183 4.67687C23.6267 6.48525 24.6426 8.93795 24.6426 11.4954V12.5668" stroke="#39251A" stroke-width="1.5" stroke-linecap="round" stroke-linejoin="round"/>
<path d="M10.7144 18.9956V23.2813" stroke="#39251A" stroke-width="1.5" stroke-linecap="round" stroke-linejoin="round"/>
<path d="M19.2856 18.9956V23.2813" stroke="#39251A" stroke-width="1.5" stroke-linecap="round" stroke-linejoin="round"/>
</g>
<defs>
<clipPath id="clip0_29_3367">
<rect width="30" height="30" fill="white" transform="translate(0 0.78125)"/>
</clipPath>
</defs>
</svg>
