<svg width="24" height="25" viewBox="0 0 24 25" fill="none" xmlns="http://www.w3.org/2000/svg">
<g clip-path="url(#clip0_29_3145)">
<path d="M22.9029 12.1295C22.9322 11.8902 22.9107 11.6474 22.8398 11.417C22.7689 11.1866 22.6502 10.9738 22.4915 10.7923C22.3308 10.6095 22.1331 10.4629 21.9114 10.3624C21.6897 10.2619 21.4491 10.2098 21.2057 10.2095H2.79432C2.55092 10.2098 2.31037 10.2619 2.08868 10.3624C1.86699 10.4629 1.66925 10.6095 1.5086 10.7923C1.34987 10.9738 1.23117 11.1866 1.16028 11.417C1.08939 11.6474 1.06788 11.8902 1.09718 12.1295L2.38289 22.4152C2.43342 22.8333 2.63611 23.2182 2.95229 23.4965C3.26847 23.7747 3.67601 23.9268 4.09718 23.9238H19.9372C20.3583 23.9268 20.7659 23.7747 21.0821 23.4965C21.3982 23.2182 21.6009 22.8333 21.6515 22.4152L22.9029 12.1295Z" stroke="#39251A" stroke-width="1.5" stroke-linecap="round" stroke-linejoin="round"/>
<path d="M4.28564 10.2096V9.35247C4.28564 7.30651 5.0984 5.34435 6.54511 3.89765C7.99182 2.45094 9.95397 1.63818 11.9999 1.63818C14.0459 1.63818 16.008 2.45094 17.4548 3.89765C18.9015 5.34435 19.7142 7.30651 19.7142 9.35247V10.2096" stroke="#39251A" stroke-width="1.5" stroke-linecap="round" stroke-linejoin="round"/>
<path d="M8.57129 15.3525V18.7811" stroke="#39251A" stroke-width="1.5" stroke-linecap="round" stroke-linejoin="round"/>
<path d="M15.4287 15.3525V18.7811" stroke="#39251A" stroke-width="1.5" stroke-linecap="round" stroke-linejoin="round"/>
</g>
<defs>
<clipPath id="clip0_29_3145">
<rect width="24" height="24" fill="white" transform="translate(0 0.78125)"/>
</clipPath>
</defs>
</svg>
