<svg width="24" height="25" viewBox="0 0 24 25" fill="none" xmlns="http://www.w3.org/2000/svg">
<path d="M18.2399 3.42139H5.75988C5.47216 3.42929 5.19034 3.50479 4.9372 3.64178C4.68406 3.77877 4.46672 3.97341 4.30274 4.20996L1.18274 8.52996C0.951062 8.85734 0.835361 9.25272 0.853996 9.65336C0.87263 10.054 1.02453 10.4369 1.28559 10.7414L10.6456 21.5242C10.8058 21.7307 11.0112 21.8978 11.2459 22.0128C11.4806 22.1277 11.7385 22.1875 11.9999 22.1875C12.2612 22.1875 12.5191 22.1277 12.7539 22.0128C12.9886 21.8978 13.1939 21.7307 13.3542 21.5242L22.7142 10.7414C22.9752 10.4369 23.1271 10.054 23.1458 9.65336C23.1644 9.25272 23.0487 8.85734 22.817 8.52996L19.697 4.20996C19.533 3.97341 19.3157 3.77877 19.0626 3.64178C18.8094 3.50479 18.5276 3.42929 18.2399 3.42139V3.42139Z" stroke="#39251A" stroke-width="1.5" stroke-linecap="round" stroke-linejoin="round"/>
<path d="M11.1086 3.4043L6.92578 9.8843L12.0001 22.1414" stroke="#39251A" stroke-width="1.5" stroke-linecap="round" stroke-linejoin="round"/>
<path d="M12.9429 3.4043L17.1086 9.8843L12 22.1414" stroke="#39251A" stroke-width="1.5" stroke-linecap="round" stroke-linejoin="round"/>
<path d="M0.891113 9.88428H23.1083" stroke="#39251A" stroke-width="1.5" stroke-linecap="round" stroke-linejoin="round"/>
</svg>
