<svg width="148" height="148" viewBox="0 0 148 148" fill="none" xmlns="http://www.w3.org/2000/svg">
<circle cx="74" cy="74" r="72" fill="#FED525" stroke="#39251A" stroke-width="4"/>
<circle cx="74" cy="74" r="30" fill="#39251A"/>
<path d="M79.1238 63.0018C79.5054 63.2943 79.9 63.5572 80.3239 63.7853C80.784 64.033 81.2685 64.2183 81.773 64.3542C81.8762 64.3821 81.9807 64.4022 82.0853 64.4189C82.1155 64.3867 82.1459 64.3547 82.1744 64.3211C82.5414 63.8915 82.7861 63.3697 82.9627 62.8332C83.1955 62.1248 83.3157 61.3797 83.3182 60.6342C83.3194 60.301 83.3002 59.9361 83.1478 59.6331C83.023 59.3848 82.7376 59.1967 82.4539 59.2564C82.0609 59.3391 81.9621 59.8006 81.8065 60.1075C81.43 60.8492 80.801 61.4581 80.0632 61.8376C79.7476 61.9998 79.4113 62.1214 79.1076 62.3049C78.9479 62.4013 78.7962 62.5194 78.6719 62.6584C78.8199 62.7895 78.995 62.9028 79.1238 63.0018Z" fill="white"/>
<path d="M66.5124 63.3073C66.6216 63.1156 66.7804 62.97 66.9636 62.8777C68.5265 61.5113 70.7966 61.2995 72.5957 62.3858L73.9621 63.2108V64.3339C73.769 64.3339 73.5762 64.282 73.4046 64.1785C73.4046 64.1785 71.4238 63.1085 70.311 63.1085C67.4211 63.1085 67.3772 65.0401 66.9552 64.8L66.9163 64.7778C66.3988 64.4835 66.2178 63.825 66.5124 63.3073Z" fill="white"/>
<path d="M80.9596 62.878C81.1429 62.9703 81.3019 63.1159 81.4109 63.3076C81.7054 63.8253 81.5244 64.4838 81.0067 64.7784L80.9678 64.8005C80.5456 65.0407 80.5019 63.109 77.612 63.109C76.4992 63.109 74.5185 64.179 74.5185 64.179C74.3471 64.2825 74.154 64.3344 73.9609 64.3344V63.2114L75.3273 62.3863C77.1269 61.2996 79.397 61.5116 80.9596 62.878Z" fill="white"/>
<path d="M74.3876 74.1018C74.3876 68.3071 79.1018 63.5926 84.8968 63.5926H91.1229C91.608 63.5926 92.001 63.9859 92.001 64.471C92.001 68.1008 89.048 71.0538 85.4182 71.0538H82.3715C82.0422 72.6886 81.9381 74.3294 81.907 75.9944C81.9214 79.313 80.056 80.0963 78.5733 82.5386L79.1777 84.2679C79.5636 85.3719 79.3966 86.5521 78.7195 87.506C78.0425 88.4595 76.9835 89.0063 75.814 89.0065C75.8136 89.0065 72.1049 89.0065 72.1049 89.0065C70.9353 89.0065 69.8763 88.4593 69.1992 87.5058C68.5222 86.5519 68.3552 85.3717 68.7411 84.2674L69.3446 82.5412C68.7799 81.6187 68.1498 80.8633 67.422 80.0152C66.6767 79.1254 66.1656 78.0054 66.0582 76.8485C65.9972 76.2892 66.0175 75.7225 65.9919 75.163C65.9336 73.7772 65.8221 72.4156 65.5473 71.0535H62.5006C58.871 71.0535 55.918 68.1005 55.918 64.4707C55.918 63.9856 56.3112 63.5924 56.7961 63.5924H63.0222C68.817 63.5924 73.5312 68.3069 73.5312 74.1016C73.5312 75.2852 73.3333 76.4516 72.9428 77.5687L70.3993 84.8466C70.19 85.4455 70.1699 86.1751 70.5695 86.6967C71.0146 87.2778 72.1973 88.0729 72.9143 87.4894C73.0632 87.3683 73.1572 87.167 73.1115 86.9803C73.0749 86.8308 72.957 86.7129 72.8258 86.6323C72.5594 86.468 72.2372 86.4296 71.932 86.3599C71.4791 86.2569 71.0596 86.0147 70.976 85.5216C70.9097 85.13 71.1387 84.6958 71.515 84.5692C71.9073 84.4372 72.3337 84.6385 72.6632 84.8889C73.2728 85.3523 73.7905 86.0266 73.9594 86.7767C74.128 86.0263 74.646 85.3521 75.2556 84.8889C75.5851 84.6385 76.0115 84.4369 76.4038 84.5692C76.7801 84.6961 77.0091 85.13 76.9428 85.5216C76.8592 86.0147 76.4396 86.2569 75.9868 86.3599C75.6815 86.4294 75.3596 86.4678 75.0929 86.6323C74.9618 86.7132 74.8441 86.8308 74.8073 86.9803C74.7616 87.1667 74.8558 87.368 75.0045 87.4894C75.7215 88.0729 76.9042 87.2778 77.3493 86.6967C77.7489 86.1749 77.7288 85.4455 77.5195 84.8466L74.9759 77.5687C74.5857 76.4519 74.3876 75.2852 74.3876 74.1018Z" fill="white"/>
<path d="M69.2937 80.5064C68.375 79.8351 67.4921 79.2926 66.9572 78.2991C66.1563 76.8475 66.4901 75.0946 66.5658 73.5001C66.5706 73.4469 66.5756 73.3937 66.5806 73.3404C66.7026 72.0588 67.3223 70.8748 68.2986 70.0355C68.7501 69.6476 69.0221 69.2966 68.5301 69.2966H62.4989C60.1376 69.2966 57.5781 67.0339 57.1641 64.7905H62.8494C67.5314 64.7905 71.8967 68.1918 72.1439 72.8675C72.2045 74.0131 71.6598 75.9114 71.2832 76.989L69.9008 80.9444C69.6959 80.8011 69.4937 80.6551 69.2937 80.5064ZM85.6439 69.2968H77.5845C79.1968 66.6623 81.9661 64.9192 85.1071 64.9192H90.5276C90.1015 67.4067 88.0736 69.2968 85.6439 69.2968Z" fill="white"/>
<path d="M68.7921 63.0018C68.4105 63.2943 68.0159 63.5572 67.5921 63.7853C67.1319 64.033 66.6475 64.2183 66.143 64.3542C66.0397 64.3821 65.9353 64.4022 65.8306 64.4189C65.8005 64.3867 65.7701 64.3547 65.7415 64.3211C65.3746 63.8915 65.1299 63.3697 64.9532 62.8332C64.7202 62.1248 64.6002 61.3797 64.5977 60.6342C64.5966 60.301 64.6158 59.9361 64.7682 59.6331C64.8929 59.3848 65.1783 59.1967 65.4621 59.2564C65.8553 59.3391 65.9538 59.8006 66.1094 60.1075C66.486 60.8492 67.115 61.4581 67.8528 61.8376C68.1683 61.9998 68.5047 62.1214 68.8083 62.3049C68.968 62.4013 69.1198 62.5194 69.2441 62.6584C69.096 62.7895 68.921 62.9028 68.7921 63.0018Z" fill="white"/>
<path d="M78.6938 74.7623C79.2906 74.7623 79.7744 74.2785 79.7744 73.6817C79.7744 73.085 79.2906 72.6012 78.6938 72.6012C78.0971 72.6012 77.6133 73.085 77.6133 73.6817C77.6133 74.2785 78.0971 74.7623 78.6938 74.7623Z" fill="#39251A"/>
<path d="M69.229 74.7622C69.8257 74.7622 70.3095 74.2784 70.3095 73.6817C70.3095 73.0849 69.8257 72.6011 69.229 72.6011C68.6322 72.6011 68.1484 73.0849 68.1484 73.6817C68.1484 74.2784 68.6322 74.7622 69.229 74.7622Z" fill="#39251A"/>
<path d="M77.107 23.7044L75.0093 23.5661L75.5742 15.0001L77.6719 15.1384L77.107 23.7044ZM76.3185 21.8819L80.7954 22.1772L80.6792 23.94L76.2023 23.6447L76.3185 21.8819Z" fill="#39251A"/>
<path d="M84.6932 24.9166C83.5177 24.6756 82.7027 24.2365 82.2483 23.5993C81.7947 22.9577 81.6709 22.1346 81.8769 21.1301L82.0145 20.4589C82.2178 19.4674 82.6366 18.7625 83.2708 18.344C83.906 17.9211 84.7259 17.8127 85.7304 18.0186C86.4059 18.1572 86.9435 18.3885 87.3432 18.7128C87.7483 19.0336 88.019 19.4296 88.1555 19.901C88.2963 20.3733 88.3056 20.9078 88.1833 21.5044L88.1388 21.7216C88.1046 21.8883 88.0607 22.0576 88.0072 22.2294C87.959 22.3978 87.9064 22.5539 87.8495 22.6977L86.0336 22.3253C86.1033 22.0744 86.1632 21.8376 86.2135 21.6148C86.2647 21.3875 86.3091 21.1818 86.3469 20.9976C86.4018 20.73 86.406 20.4977 86.3595 20.3007C86.3139 20.0994 86.2133 19.9325 86.0576 19.8C85.9063 19.6684 85.6947 19.5747 85.4228 19.5189C85.0192 19.4362 84.7007 19.4852 84.4671 19.6658C84.2388 19.843 84.0837 20.1312 84.0019 20.5304L83.8804 21.1226L83.8491 21.3425L83.7546 21.8031C83.7205 21.9698 83.7144 22.1331 83.7365 22.2931C83.7629 22.4539 83.8324 22.6053 83.945 22.7473C84.0629 22.8857 84.2357 23.0126 84.4635 23.1278C84.6965 23.2396 85.0017 23.3342 85.3789 23.4116C85.7781 23.4934 86.1695 23.5348 86.5533 23.5358C86.9379 23.5324 87.3126 23.4995 87.6773 23.4372L87.2026 24.9169C86.8728 25.0093 86.495 25.0575 86.069 25.0616C85.6431 25.0657 85.1845 25.0174 84.6932 24.9166ZM82.8753 21.6776L83.1303 20.434L87.6966 21.3703L87.4416 22.614L82.8753 21.6776Z" fill="#39251A"/>
<path d="M92.1127 26.953L92.7301 25.4191L92.7201 25.3084L93.4196 23.3685L93.4982 23.1112C93.6227 22.7658 93.6135 22.4744 93.4706 22.2372C93.3277 22 93.0182 21.7956 92.5423 21.6239C92.1253 21.4735 91.7103 21.3833 91.2975 21.3534C90.8846 21.3235 90.4875 21.3159 90.1062 21.3307L90.8105 19.8924C91.0419 19.8711 91.2942 19.8645 91.5673 19.8726C91.8462 19.878 92.1443 19.9094 92.4616 19.9667C92.7789 20.024 93.1081 20.1142 93.4493 20.2373C93.9927 20.4333 94.4248 20.6605 94.7456 20.9191C95.0665 21.1776 95.2947 21.4623 95.4302 21.773C95.5656 22.0837 95.6233 22.4187 95.6032 22.778C95.5847 23.1331 95.5055 23.5044 95.3657 23.8919L94.0144 27.639L92.1127 26.953ZM90.0827 26.385C89.4635 26.1617 89.0501 25.8364 88.8424 25.4092C88.6347 24.982 88.6349 24.4799 88.843 23.9028L88.9046 23.7321C89.1248 23.1213 89.4748 22.7382 89.9545 22.5828C90.4399 22.4246 91.1123 22.441 91.9717 22.632L93.7194 23.0125L93.4138 24.2162L91.8579 23.8977C91.5452 23.8278 91.3095 23.8213 91.1509 23.8783C90.9923 23.9354 90.8773 24.0629 90.8059 24.2609L90.7899 24.3051C90.7216 24.4947 90.728 24.6684 90.8091 24.8262C90.8918 24.9797 91.0679 25.1052 91.3374 25.2024C91.5733 25.2875 91.7884 25.3246 91.9827 25.3138C92.1812 25.3044 92.3558 25.2627 92.5063 25.1884C92.6583 25.11 92.7876 25.009 92.894 24.8855L92.8831 25.7671L92.5672 25.6531C92.4026 25.8984 92.2092 26.1047 91.9869 26.2721C91.769 26.4411 91.5045 26.5408 91.1936 26.5715C90.8826 26.6022 90.5123 26.54 90.0827 26.385Z" fill="#39251A"/>
<path d="M98.6684 25.8443L98.7337 24.4749L99.1644 24.6947C99.5085 24.257 99.8883 23.9707 100.304 23.8359C100.726 23.6992 101.19 23.7601 101.696 24.0186C101.784 24.0634 101.861 24.1101 101.926 24.1587C101.996 24.2093 102.061 24.2599 102.12 24.3105L101.267 26.2051C101.195 26.1384 101.106 26.0726 100.998 26.0076C100.892 25.9386 100.782 25.8746 100.666 25.8156C100.275 25.6161 99.9086 25.522 99.5661 25.5332C99.2256 25.5404 98.9263 25.6441 98.6684 25.8443ZM95.1884 28.231L98.1894 22.3495L99.9124 23.2289L98.876 25.0679L99.0493 25.1865L97.0191 29.1653L95.1884 28.231Z" fill="#39251A"/>
<path d="M103.568 33.176L105.767 29.9768C105.904 29.7775 105.997 29.5882 106.044 29.4087C106.094 29.2256 106.084 29.0535 106.016 28.8922C105.947 28.731 105.808 28.5781 105.598 28.4335C105.424 28.3142 105.25 28.2403 105.074 28.2117C104.9 28.1794 104.731 28.185 104.565 28.2286C104.405 28.271 104.258 28.3434 104.122 28.4458L104.406 27.4754L104.694 27.6733C104.923 27.4667 105.171 27.3113 105.438 27.2071C105.709 27.1054 106.002 27.0785 106.317 27.1265C106.634 27.1708 106.974 27.3173 107.335 27.5659C107.741 27.845 108.019 28.1527 108.168 28.489C108.32 28.8216 108.35 29.1847 108.258 29.5784C108.171 29.9747 107.967 30.4052 107.647 30.8702L105.261 34.3406L103.568 33.176ZM100.07 30.7707L103.811 25.3298L105.493 26.4868L104.502 27.8103L104.458 28.0165L101.764 31.9353L100.07 30.7707Z" fill="#39251A"/>
<path d="M108.502 37.0195L115.059 31.473L117.019 33.6488L114.165 38.1279L114.224 38.1928L118.974 35.8197L120.935 37.9956L114.737 43.9413L113.375 42.4292L115.425 40.5004L117.93 38.1624L117.862 38.0876L112.991 40.4972L111.741 39.1098L114.643 34.5144L114.572 34.4345L111.986 36.6921L109.864 38.5316L108.502 37.0195Z" fill="#39251A"/>
<path d="M116.802 47.769C116.243 46.8619 116.044 46.0371 116.207 45.2947C116.376 44.5538 116.87 43.9305 117.69 43.425L118.427 42.9701C119.258 42.4575 120.045 42.2927 120.789 42.4755C121.537 42.656 122.19 43.1979 122.747 44.1012C123.304 45.0044 123.494 45.8289 123.318 46.5745C123.147 47.3217 122.647 47.9515 121.816 48.464L121.078 48.919C120.259 49.4245 119.48 49.5866 118.743 49.4052C118.008 49.2215 117.362 48.676 116.802 47.769ZM118.18 46.919C118.379 47.243 118.628 47.4288 118.926 47.4766C119.23 47.5259 119.563 47.4388 119.925 47.2155L120.811 46.6688C121.192 46.4337 121.429 46.1693 121.521 45.8755C121.616 45.5855 121.563 45.2786 121.364 44.9546C121.164 44.6307 120.912 44.4441 120.608 44.3948C120.306 44.3494 119.965 44.4442 119.584 44.6793L118.698 45.226C118.336 45.4493 118.107 45.706 118.013 45.996C117.924 46.2874 117.98 46.5951 118.18 46.919Z" fill="#39251A"/>
<path d="M123.374 51.8872L124.279 50.8577L124.479 51.2983C125.021 51.1707 125.496 51.1839 125.905 51.3379C126.32 51.4941 126.645 51.8312 126.879 52.3493C126.92 52.439 126.951 52.5234 126.972 52.6023C126.995 52.6854 127.014 52.7653 127.029 52.842L125.18 53.7902C125.165 53.6935 125.136 53.5862 125.093 53.4683C125.053 53.3485 125.007 53.2295 124.953 53.1112C124.772 52.7114 124.544 52.4091 124.27 52.2041C123.999 51.9973 123.7 51.8917 123.374 51.8872ZM119.165 51.5815L125.179 48.857L125.978 50.6192L124.021 51.41L124.082 51.6107L120.013 53.4539L119.165 51.5815Z" fill="#39251A"/>
<path d="M122.121 59.6138C121.765 58.4675 121.757 57.5417 122.096 56.8363C122.44 56.1297 123.101 55.6245 124.08 55.3207L124.735 55.1178C125.701 54.818 126.521 54.8451 127.193 55.1992C127.87 55.552 128.36 56.2181 128.664 57.1976C128.868 57.8562 128.924 58.4389 128.833 58.9455C128.747 59.455 128.531 59.8831 128.183 60.2299C127.838 60.581 127.374 60.8468 126.792 61.0272L126.58 61.0928C126.418 61.1432 126.248 61.1864 126.072 61.2224C125.901 61.2613 125.739 61.2904 125.586 61.3099L125.037 59.5391C125.29 59.4793 125.527 59.4177 125.746 59.3543C125.97 59.2896 126.171 59.2294 126.351 59.1737C126.612 59.0928 126.817 58.9845 126.968 58.8489C127.122 58.7119 127.22 58.5433 127.261 58.343C127.303 58.147 127.283 57.9164 127.201 57.6512C127.079 57.2577 126.882 57.0022 126.612 56.8846C126.346 56.7699 126.019 56.773 125.63 56.8937L125.053 57.0727L124.845 57.1512L124.396 57.2905C124.233 57.3409 124.087 57.4143 123.958 57.5108C123.83 57.6115 123.73 57.7454 123.66 57.9124C123.596 58.0825 123.568 58.2951 123.577 58.5502C123.591 58.8083 123.656 59.1213 123.77 59.4891C123.89 59.8783 124.043 60.2413 124.227 60.578C124.415 60.9134 124.625 61.2259 124.855 61.5155L123.33 61.8127C123.09 61.5683 122.866 61.2604 122.657 60.8892C122.448 60.5179 122.269 60.0928 122.121 59.6138ZM124.082 56.4595L125.294 56.0835L126.675 60.536L125.463 60.9121L124.082 56.4595Z" fill="#39251A"/>
<path d="M127.882 66.6571L128.609 65.2774L129.789 66.2045L129.828 66.1863L129.869 64.7876L131.421 64.9799L131.007 66.4302L131.037 66.4537L132.44 66.082L132.641 67.756L131.189 67.7208L131.166 67.7507L131.913 69.0682L130.451 69.6228L130.078 68.2671L130.037 68.2653L129.11 69.4457L128.078 68.2844L129.262 67.3301L129.257 67.2901L127.882 66.6571Z" fill="#39251A"/>
<path d="M124.315 76.5195L124.429 74.4202L133 74.8882L132.885 76.9875L124.315 76.5195ZM126.128 75.7104L125.883 80.1908L124.119 80.0945L124.364 75.6141L126.128 75.7104Z" fill="#39251A"/>
<path d="M123.189 84.1322C123.417 82.9539 123.847 82.1339 124.479 81.6723C125.115 81.2116 125.936 81.0785 126.943 81.2732L127.616 81.4033C128.609 81.5955 129.319 82.0064 129.744 82.636C130.174 83.2665 130.292 84.0851 130.097 85.092C129.966 85.7691 129.741 86.3093 129.421 86.7127C129.105 87.1214 128.712 87.3966 128.242 87.5383C127.772 87.6845 127.237 87.6997 126.64 87.5841L126.422 87.542C126.255 87.5097 126.085 87.4678 125.913 87.4162C125.744 87.3698 125.587 87.319 125.443 87.2637L125.795 85.4435C126.046 85.5104 126.284 85.5677 126.507 85.6155C126.735 85.6641 126.941 85.7062 127.126 85.742C127.394 85.7938 127.626 85.7954 127.823 85.7467C128.023 85.6989 128.189 85.5964 128.32 85.4392C128.45 85.2865 128.541 85.0738 128.594 84.8012C128.672 84.3967 128.619 84.0787 128.436 83.8471C128.256 83.6208 127.967 83.4689 127.567 83.3916L126.973 83.2768L126.753 83.2479L126.291 83.1586C126.124 83.1263 125.961 83.1221 125.801 83.1459C125.641 83.1742 125.49 83.2454 125.349 83.3596C125.212 83.479 125.087 83.6533 124.975 83.8824C124.866 84.1167 124.774 84.4229 124.701 84.801C124.624 85.2011 124.587 85.593 124.59 85.9768C124.598 86.3614 124.635 86.7358 124.701 87.0998L123.217 86.6416C123.121 86.3129 123.068 85.9356 123.059 85.5097C123.05 85.0838 123.094 84.6246 123.189 84.1322ZM126.407 82.2779L127.653 82.5189L126.768 87.0959L125.522 86.8548L126.407 82.2779Z" fill="#39251A"/>
<path d="M121.236 91.5701L122.776 92.1701L122.887 92.1588L124.834 92.8364L125.093 92.912C125.439 93.0326 125.73 93.0201 125.966 92.8745C126.202 92.7288 126.402 92.4171 126.569 91.9391C126.714 91.5204 126.8 91.1044 126.825 90.6912C126.85 90.278 126.853 89.8808 126.834 89.4996L128.28 90.1876C128.304 90.4187 128.314 90.671 128.309 90.9442C128.306 91.2232 128.278 91.5217 128.225 91.8396C128.171 92.1576 128.085 92.4878 127.965 92.8304C127.776 93.376 127.553 93.8108 127.298 94.1346C127.044 94.4584 126.762 94.6898 126.452 94.8289C126.143 94.9679 125.809 95.0294 125.45 95.0134C125.094 94.9988 124.722 94.9239 124.333 94.7885L120.571 93.4798L121.236 91.5701ZM121.78 89.5336C121.997 88.9118 122.317 88.4947 122.742 88.2821C123.167 88.0696 123.669 88.0641 124.248 88.2656L124.419 88.3252C125.033 88.5386 125.42 88.8842 125.581 89.3622C125.744 89.8458 125.735 90.5184 125.554 91.38L125.194 93.1321L123.987 92.8402L124.287 91.2806C124.354 90.9671 124.358 90.7313 124.299 90.5733C124.24 90.4154 124.111 90.3018 123.912 90.2327L123.868 90.2172C123.678 90.151 123.504 90.1594 123.347 90.2423C123.195 90.3267 123.071 90.5042 122.977 90.7749C122.895 91.0118 122.86 91.2273 122.873 91.4215C122.885 91.6199 122.928 91.794 123.004 91.9437C123.085 92.0948 123.187 92.2229 123.312 92.3279L122.43 92.3271L122.54 92.0099C122.293 91.848 122.085 91.6569 121.915 91.4366C121.744 91.2205 121.641 90.9572 121.607 90.6466C121.572 90.336 121.63 89.965 121.78 89.5336Z" fill="#39251A"/>
<path d="M122.419 98.1094L123.789 98.1591L123.574 98.5923C124.016 98.9314 124.306 99.308 124.446 99.7221C124.587 100.142 124.532 100.607 124.279 101.117C124.235 101.205 124.189 101.282 124.141 101.348C124.092 101.419 124.042 101.484 123.992 101.544L122.088 100.712C122.154 100.64 122.218 100.549 122.282 100.441C122.35 100.335 122.413 100.223 122.47 100.107C122.665 99.7137 122.755 99.346 122.74 99.0036C122.729 98.6631 122.622 98.3651 122.419 98.1094ZM119.993 94.6564L125.908 97.5906L125.048 99.3236L123.198 98.3082L123.081 98.4828L119.08 96.4978L119.993 94.6564Z" fill="#39251A"/>
<path d="M115.145 103.093L118.369 105.257C118.57 105.392 118.76 105.482 118.94 105.527C119.123 105.575 119.296 105.563 119.456 105.493C119.616 105.423 119.768 105.282 119.91 105.07C120.027 104.895 120.099 104.719 120.126 104.543C120.156 104.369 120.149 104.2 120.103 104.034C120.059 103.875 119.985 103.729 119.881 103.594L120.854 103.867L120.66 104.157C120.869 104.384 121.027 104.63 121.134 104.896C121.239 105.166 121.269 105.459 121.225 105.774C121.184 106.092 121.041 106.433 120.797 106.798C120.522 107.207 120.218 107.488 119.883 107.641C119.553 107.796 119.19 107.83 118.795 107.743C118.398 107.66 117.965 107.461 117.497 107.147L114 104.8L115.145 103.093ZM117.511 99.5683L122.993 103.248L121.855 104.943L120.521 103.967L120.314 103.925L116.365 101.275L117.511 99.5683Z" fill="#39251A"/>
<path d="M111.359 108.071L116.978 114.566L114.825 116.551L110.314 113.747L110.25 113.807L112.676 118.531L110.523 120.516L104.508 114.385L106.005 113.006L107.957 115.035L110.322 117.513L110.396 117.444L107.932 112.6L109.305 111.334L113.933 114.185L114.012 114.112L111.725 111.552L109.862 109.451L111.359 108.071Z" fill="#39251A"/>
<path d="M100.703 116.496C101.604 115.926 102.426 115.718 103.171 115.873C103.913 116.034 104.542 116.521 105.057 117.334L105.52 118.067C106.042 118.892 106.215 119.677 106.041 120.424C105.869 121.174 105.335 121.832 104.438 122.4C103.541 122.967 102.719 123.167 101.971 122.998C101.222 122.836 100.587 122.343 100.065 121.518L99.6019 120.785C99.0873 119.972 98.9164 119.195 99.0895 118.455C99.2649 117.719 99.8029 117.066 100.703 116.496ZM101.569 117.864C101.247 118.067 101.064 118.318 101.02 118.617C100.974 118.921 101.065 119.253 101.292 119.613L101.849 120.493C102.088 120.871 102.355 121.105 102.65 121.194C102.941 121.285 103.247 121.229 103.569 121.026C103.89 120.822 104.074 120.568 104.12 120.264C104.162 119.962 104.063 119.621 103.824 119.243L103.267 118.363C103.04 118.004 102.781 117.778 102.49 117.687C102.197 117.601 101.89 117.66 101.569 117.864Z" fill="#39251A"/>
<path d="M96.662 123.113L97.7017 124.006L97.2635 124.211C97.3972 124.751 97.3894 125.227 97.2402 125.638C97.0888 126.054 96.7554 126.383 96.2401 126.624C96.1509 126.665 96.0669 126.697 95.9882 126.719C95.9054 126.743 95.8258 126.763 95.7492 126.779L94.78 124.94C94.8765 124.925 94.9835 124.895 95.1009 124.85C95.2202 124.809 95.3387 124.761 95.4563 124.706C95.854 124.521 96.1536 124.289 96.3554 124.012C96.559 123.739 96.6613 123.439 96.662 123.113ZM96.9194 118.901L99.7124 124.884L97.9596 125.702L97.1466 123.754L96.9466 123.818L95.0572 119.77L96.9194 118.901Z" fill="#39251A"/>
<path d="M88.9219 121.949C90.0639 121.581 90.9895 121.562 91.6985 121.893C92.409 122.229 92.9217 122.884 93.2365 123.86L93.4469 124.512C93.7577 125.476 93.7399 126.295 93.3936 126.972C93.0486 127.652 92.3882 128.15 91.4123 128.465C90.7561 128.677 90.1742 128.74 89.6667 128.654C89.1563 128.574 88.7257 128.363 88.375 128.02C88.02 127.678 87.7491 127.217 87.562 126.637L87.494 126.426C87.4417 126.264 87.3966 126.096 87.3587 125.92C87.3178 125.749 87.2868 125.587 87.2656 125.434L89.0298 124.865C89.0925 125.118 89.1568 125.353 89.2227 125.572C89.2899 125.795 89.3524 125.996 89.4102 126.175C89.494 126.435 89.6046 126.639 89.742 126.788C89.8807 126.941 90.0504 127.037 90.2511 127.075C90.4476 127.115 90.6779 127.093 90.9421 127.008C91.3341 126.881 91.5874 126.682 91.7019 126.41C91.8134 126.143 91.8067 125.816 91.6816 125.428L91.4959 124.853L91.4151 124.646L91.2707 124.198C91.2184 124.036 91.1434 123.891 91.0455 123.763C90.9433 123.636 90.8083 123.538 90.6405 123.47C90.4697 123.407 90.2569 123.382 90.0019 123.394C89.744 123.411 89.4318 123.479 89.0653 123.597C88.6776 123.722 88.3164 123.879 87.9818 124.067C87.6486 124.259 87.3386 124.472 87.0517 124.706L86.7371 123.184C86.9788 122.941 87.284 122.713 87.6528 122.5C88.0216 122.287 88.4446 122.103 88.9219 121.949ZM92.0979 123.875L92.4877 125.083L88.0518 126.515L87.6619 125.306L92.0979 123.875Z" fill="#39251A"/>
<path d="M81.9439 127.788L83.3315 128.5L82.4179 129.691L82.4365 129.729L83.8354 129.755L83.6607 131.309L82.206 130.911L82.1829 130.941L82.5703 132.34L80.8988 132.56L80.9177 131.108L80.8875 131.085L79.5787 131.847L79.0077 130.391L80.3589 130.003L80.3603 129.962L79.1697 129.048L80.3191 128.002L81.2866 129.176L81.3265 129.171L81.9439 127.788Z" fill="#39251A"/>
<path d="M72.0519 124.333L74.1522 124.423L73.7812 133L71.681 132.909L72.0519 124.333ZM72.8815 126.137L68.399 125.943L68.4754 124.178L72.9578 124.372L72.8815 126.137Z" fill="#39251A"/>
<path d="M64.4118 123.289C65.5925 123.503 66.4171 123.924 66.8857 124.551C67.3535 125.182 67.4957 126.002 67.3124 127.011L67.1898 127.685C67.0089 128.681 66.606 129.395 65.9813 129.828C65.3557 130.265 64.5385 130.392 63.5297 130.208C62.8512 130.085 62.3085 129.866 61.9016 129.551C61.4895 129.239 61.2099 128.849 61.0629 128.381C60.9115 127.912 60.8903 127.378 60.9992 126.779L61.0388 126.56C61.0692 126.393 61.1093 126.223 61.1589 126.05C61.2034 125.88 61.2524 125.723 61.3061 125.578L63.1299 125.91C63.0659 126.162 63.0112 126.4 62.966 126.624C62.9199 126.852 62.8801 127.059 62.8465 127.244C62.7976 127.513 62.7986 127.745 62.8495 127.941C62.8996 128.141 63.0039 128.306 63.1625 128.435C63.3167 128.563 63.5304 128.652 63.8035 128.702C64.2088 128.775 64.5262 128.719 64.7557 128.533C64.98 128.351 65.1285 128.059 65.2014 127.658L65.3095 127.064L65.3359 126.843L65.42 126.381C65.4504 126.213 65.4528 126.05 65.4272 125.89C65.3971 125.73 65.3242 125.58 65.2085 125.441C65.0875 125.305 64.9119 125.182 64.6816 125.072C64.4461 124.966 64.1389 124.878 63.7601 124.809C63.3592 124.736 62.9669 124.703 62.5832 124.711C62.1987 124.723 61.8249 124.764 61.4616 124.835L61.9031 123.345C62.2307 123.245 62.6074 123.188 63.0331 123.175C63.4588 123.161 63.9184 123.199 64.4118 123.289ZM66.3019 126.486L66.0749 127.735L61.4888 126.902L61.7158 125.653L66.3019 126.486Z" fill="#39251A"/>
<path d="M56.9611 121.424L56.3787 122.972L56.3913 123.082L55.736 125.038L55.6634 125.297C55.5467 125.645 55.5625 125.936 55.7108 126.17C55.8591 126.404 56.1731 126.601 56.6529 126.762C57.0732 126.903 57.49 126.983 57.9035 127.004C58.3169 127.024 58.7141 127.023 59.095 126.999L58.4236 128.453C58.1927 128.48 57.9407 128.492 57.6674 128.49C57.3884 128.491 57.0897 128.467 56.7712 128.417C56.4527 128.367 56.1215 128.284 55.7776 128.169C55.2299 127.985 54.7928 127.768 54.4661 127.517C54.1394 127.265 53.9048 126.986 53.7623 126.678C53.6198 126.371 53.5545 126.037 53.5664 125.678C53.5769 125.322 53.6476 124.949 53.7785 124.559L55.0442 120.782L56.9611 121.424ZM59.0034 121.946C59.6275 122.155 60.0483 122.471 60.2656 122.893C60.483 123.316 60.4942 123.818 60.2993 124.399L60.2416 124.571C60.0353 125.187 59.6941 125.578 59.2181 125.744C58.7364 125.913 58.0638 125.912 57.2004 125.741L55.4444 125.4L55.7225 124.19L57.2853 124.473C57.5995 124.536 57.8353 124.537 57.9926 124.476C58.1498 124.416 58.2619 124.286 58.3288 124.086L58.3437 124.041C58.4077 123.85 58.3974 123.677 58.3127 123.521C58.2266 123.369 58.0477 123.248 57.7759 123.157C57.5382 123.077 57.3223 123.045 57.1283 123.06C56.9301 123.074 56.7565 123.12 56.6077 123.197C56.4575 123.279 56.3306 123.383 56.227 123.509L56.2178 122.627L56.5363 122.734C56.6953 122.485 56.8839 122.275 57.1023 122.102C57.3164 121.928 57.5785 121.823 57.8886 121.785C58.1988 121.747 58.5704 121.801 59.0034 121.946Z" fill="#39251A"/>
<path d="M50.4374 122.685L50.4033 124.055L49.9676 123.845C49.6337 124.291 49.2605 124.586 48.848 124.73C48.4296 124.876 47.9643 124.826 47.452 124.579C47.3632 124.536 47.2855 124.491 47.2187 124.444C47.1479 124.395 47.0821 124.346 47.0213 124.297L47.8315 122.383C47.9045 122.448 47.9956 122.512 48.1046 122.575C48.2118 122.641 48.3238 122.703 48.4408 122.759C48.8361 122.949 49.2048 123.035 49.547 123.016C49.8872 123.001 50.184 122.891 50.4374 122.685ZM53.862 120.219L50.9959 126.168L49.2533 125.328L50.2475 123.466L50.0716 123.351L52.0105 119.327L53.862 120.219Z" fill="#39251A"/>
<path d="M45.3692 115.463L43.2425 118.711C43.11 118.914 43.0221 119.105 42.9789 119.285C42.9332 119.47 42.9465 119.642 43.0186 119.801C43.0907 119.961 43.2335 120.111 43.447 120.25C43.623 120.366 43.7994 120.436 43.9759 120.46C44.15 120.489 44.3195 120.479 44.4842 120.432C44.6428 120.386 44.7887 120.31 44.922 120.205L44.6599 121.181L44.3677 120.99C44.1435 121.202 43.8989 121.363 43.634 121.473C43.3654 121.581 43.0732 121.614 42.7574 121.573C42.4392 121.536 42.0965 121.397 41.7294 121.157C41.3174 120.887 41.033 120.586 40.8762 120.253C40.717 119.924 40.6787 119.561 40.7611 119.166C40.8398 118.768 41.0337 118.333 41.3428 117.861L43.6498 114.337L45.3692 115.463ZM48.9204 117.789L45.3034 123.313L43.5952 122.194L44.5566 120.849L44.5959 120.641L47.201 116.663L48.9204 117.789Z" fill="#39251A"/>
<path d="M40.3517 111.733L33.9212 117.425L31.9126 115.294L34.6648 110.752L34.6049 110.688L29.9086 113.168L27.9 111.037L33.9619 104.953L35.3578 106.434L33.3514 108.408L30.9003 110.802L30.9694 110.876L35.7856 108.357L37.0663 109.716L34.2679 114.375L34.3416 114.454L36.876 112.138L38.9558 110.251L40.3517 111.733Z" fill="#39251A"/>
<path d="M31.806 101.171C32.3858 102.065 32.6027 102.885 32.4566 103.631C32.3043 104.375 31.8244 105.01 31.0166 105.533L30.2897 106.005C29.4707 106.536 28.6872 106.719 27.9391 106.553C27.1873 106.389 26.5227 105.862 25.9453 104.972C25.3679 104.081 25.1591 103.261 25.3189 102.512C25.4725 101.761 25.9588 101.12 26.7777 100.589L27.5047 100.117C28.3124 99.5935 29.0872 99.4139 29.829 99.5786C30.5671 99.7457 31.2261 100.276 31.806 101.171ZM30.4479 102.051C30.2408 101.732 29.9878 101.552 29.689 101.511C29.3841 101.468 29.0531 101.563 28.6962 101.794L27.8228 102.361C27.4471 102.605 27.2164 102.874 27.1307 103.17C27.0425 103.462 27.102 103.768 27.309 104.087C27.5161 104.407 27.7722 104.587 28.0772 104.63C28.3797 104.668 28.7188 104.566 29.0945 104.322L29.968 103.756C30.3249 103.524 30.5474 103.262 30.6356 102.97C30.7175 102.677 30.655 102.371 30.4479 102.051Z" fill="#39251A"/>
<path d="M25.145 97.2109L24.2637 98.2608L24.0541 97.825C23.5152 97.9649 23.0396 97.9625 22.6273 97.818C22.209 97.6713 21.8766 97.3417 21.6302 96.8291C21.5875 96.7403 21.5547 96.6567 21.5319 96.5782C21.5072 96.4957 21.4864 96.4163 21.4695 96.3399L23.2963 95.3497C23.3128 95.4461 23.3442 95.5527 23.3905 95.6696C23.4327 95.7884 23.4819 95.9063 23.5382 96.0234C23.7284 96.4189 23.9631 96.7159 24.2424 96.9145C24.5177 97.1151 24.8186 97.2139 25.145 97.2109ZM29.3595 97.4202L23.4093 100.282L22.5711 98.5381L24.5096 97.7028L24.4436 97.5035L28.4689 95.5678L29.3595 97.4202Z" fill="#39251A"/>
<path d="M26.2191 89.4522C26.6006 90.5901 26.6299 91.5155 26.3069 92.2284C25.9796 92.9427 25.3299 93.4628 24.3578 93.7889L23.7082 94.0067C22.7488 94.3284 21.9289 94.32 21.2487 93.9814C20.5642 93.6441 20.0589 92.9894 19.7329 92.0171C19.5137 91.3632 19.444 90.782 19.5238 90.2735C19.5979 89.7622 19.8046 89.3292 20.1438 88.9745C20.4815 88.6156 20.9391 88.3394 21.5165 88.1458L21.7266 88.0753C21.8879 88.0212 22.0564 87.9742 22.2319 87.9342C22.4017 87.8914 22.5631 87.8585 22.7159 87.8356L23.3053 89.5934C23.0534 89.659 22.8184 89.7259 22.6005 89.7943C22.3783 89.8641 22.1781 89.9289 21.9998 89.9887C21.7408 90.0755 21.5378 90.1885 21.3908 90.3275C21.2396 90.468 21.1457 90.6388 21.1092 90.8399C21.0714 91.0369 21.0966 91.2669 21.1848 91.5302C21.3158 91.9208 21.518 92.1718 21.7915 92.2832C22.0593 92.3917 22.3864 92.3812 22.7727 92.2517L23.3458 92.0595L23.5517 91.9763L23.9974 91.8268C24.1588 91.7727 24.303 91.6959 24.4303 91.5966C24.5561 91.493 24.6522 91.3569 24.7184 91.1882C24.779 91.0168 24.802 90.8036 24.7874 90.5487C24.7671 90.291 24.6957 89.9796 24.5733 89.6145C24.4438 89.2281 24.2831 88.8687 24.0914 88.5363C23.8954 88.2052 23.6789 87.8976 23.4419 87.6134L24.96 87.2814C25.2053 87.5203 25.4367 87.823 25.654 88.1894C25.8713 88.5557 26.0596 88.9767 26.2191 89.4522ZM24.3302 92.6504L23.1267 93.054L21.6448 88.6341L22.8483 88.2305L24.3302 92.6504Z" fill="#39251A"/>
<path d="M20.3027 82.5355L19.6069 83.9312L18.406 83.031L18.368 83.05L18.358 84.4493L16.8021 84.292L17.1835 82.8327L17.1531 82.81L15.7588 83.2131L15.52 81.5441L16.9723 81.5466L16.9951 81.5162L16.2187 80.2159L17.668 79.6284L18.0711 80.9753L18.112 80.9763L19.0121 79.7753L20.0705 80.9131L18.9082 81.8937L18.9139 81.9336L20.3027 82.5355Z" fill="#39251A"/>
<path d="M23.6464 72.6139L23.5793 74.7153L15 74.4414L15.0671 72.34L23.6464 72.6139ZM21.8519 73.4639L21.995 68.9791L23.7606 69.0354L23.6174 73.5202L21.8519 73.4639Z" fill="#39251A"/>
<path d="M24.6052 64.9502C24.4038 66.1333 23.9924 66.9627 23.371 67.4384C22.7451 67.9133 21.9268 68.0648 20.9159 67.8927L20.2406 67.7778C19.243 67.608 18.5244 67.2131 18.0848 66.5932C17.6409 65.9725 17.5049 65.1567 17.6769 64.1457C17.7926 63.4659 18.0058 62.9207 18.3163 62.5102C18.6232 62.0946 19.0099 61.8106 19.4764 61.6584C19.9437 61.5017 20.4775 61.4744 21.0778 61.5766L21.2963 61.6138C21.464 61.6424 21.6347 61.6805 21.8082 61.7282C21.9781 61.7707 22.1359 61.818 22.2815 61.8701L21.9704 63.6977C21.7174 63.6365 21.4787 63.5845 21.2544 63.5418C21.0256 63.4983 20.8185 63.4608 20.6331 63.4292C20.3638 63.3834 20.1316 63.387 19.9363 63.4401C19.7366 63.4924 19.5732 63.5986 19.4461 63.7587C19.3197 63.9143 19.2332 64.129 19.1866 64.4027C19.1175 64.8088 19.1771 65.1256 19.3655 65.353C19.5503 65.5752 19.8435 65.7205 20.2452 65.7889L20.8411 65.8903L21.0618 65.9143L21.5253 65.9932C21.6931 66.0217 21.8565 66.0223 22.0156 65.9949C22.1754 65.963 22.3244 65.8884 22.4624 65.7711C22.5968 65.6486 22.7178 65.4716 22.8253 65.2401C22.9292 65.0034 23.0134 64.6952 23.078 64.3155C23.1464 63.9138 23.1746 63.5211 23.1627 63.1375C23.1463 62.7532 23.1009 62.3797 23.0263 62.0173L24.521 62.442C24.6244 62.7685 24.6853 63.1446 24.7037 63.5702C24.7222 63.9958 24.6893 64.4558 24.6052 64.9502ZM21.4296 66.8763L20.1781 66.6633L20.9602 62.0676L22.2116 62.2806L21.4296 66.8763Z" fill="#39251A"/>
<path d="M26.3848 57.4825L24.8308 56.9178L24.7205 56.9316L22.7581 56.2986L22.4983 56.2289C22.1489 56.1162 21.858 56.1353 21.6259 56.2863C21.3937 56.4373 21.2 56.7536 21.0447 57.2352C20.9086 57.6571 20.8327 58.0749 20.8169 58.4886C20.8011 58.9023 20.8071 59.2994 20.8349 59.6801L19.3735 59.0252C19.3444 58.7947 19.3292 58.5428 19.3279 58.2694C19.3238 57.9905 19.3449 57.6915 19.3914 57.3724C19.4378 57.0533 19.5167 56.7211 19.628 56.3759C19.8053 55.8261 20.0177 55.3864 20.2651 55.0569C20.5125 54.7273 20.7892 54.4896 21.095 54.3435C21.4009 54.1975 21.7337 54.1284 22.0934 54.1362C22.4489 54.1427 22.8227 54.2091 23.2147 54.3356L27.0053 55.5583L26.3848 57.4825ZM25.8865 59.5309C25.6845 60.1575 25.3735 60.5818 24.9537 60.804C24.5339 61.0262 24.0321 61.0431 23.4483 60.8548L23.2757 60.7991C22.6578 60.5998 22.263 60.2631 22.0913 59.7889C21.9166 59.3091 21.9101 58.6365 22.0716 57.7711L22.3921 56.0112L23.6054 56.2755L23.3403 57.8415C23.2811 58.1565 23.2827 58.3923 23.3451 58.5489C23.4075 58.7054 23.5388 58.816 23.7391 58.8806L23.7839 58.8951C23.9756 58.9569 24.149 58.9446 24.3039 58.8581C24.4546 58.7703 24.5739 58.59 24.6618 58.3172C24.7388 58.0785 24.7686 57.8623 24.7511 57.6684C24.735 57.4703 24.6873 57.2973 24.608 57.1494C24.5244 57.0001 24.4191 56.8744 24.292 56.7722L25.1733 56.753L25.0702 57.0726C25.321 57.2288 25.5338 57.4151 25.7087 57.6315C25.8849 57.8436 25.9937 58.1045 26.0349 58.4143C26.0762 58.724 26.0267 59.0962 25.8865 59.5309Z" fill="#39251A"/>
<path d="M25.0498 50.9779L23.6792 50.9595L23.8841 50.5214C23.4349 50.1926 23.1358 49.8227 22.9869 49.4119C22.8358 48.9951 22.8808 48.5292 23.1218 48.014C23.1635 47.9248 23.2076 47.8465 23.2539 47.7792C23.3021 47.7078 23.3504 47.6415 23.3989 47.5801L25.3214 48.3685C25.2572 48.4423 25.1945 48.5341 25.1333 48.6438C25.068 48.7517 25.0078 48.8645 24.9528 48.9821C24.7668 49.3796 24.6853 49.7493 24.7082 50.0913C24.7271 50.4314 24.841 50.7269 25.0498 50.9779ZM27.554 54.3746L21.5739 51.5762L22.3937 49.824L24.2669 50.797L24.3794 50.6197L28.425 52.5128L27.554 54.3746Z" fill="#39251A"/>
<path d="M32.2136 45.8222L28.9421 43.732C28.7384 43.6018 28.546 43.5161 28.3651 43.4749C28.1805 43.4313 28.0087 43.4464 27.8499 43.5203C27.6911 43.5942 27.543 43.7388 27.4056 43.9539C27.2923 44.1312 27.2244 44.3083 27.2017 44.4852C27.1753 44.6596 27.1867 44.8289 27.2359 44.9932C27.2837 45.1513 27.361 45.2964 27.4679 45.4284L26.4886 45.1774L26.6766 44.883C26.4624 44.6611 26.2987 44.4183 26.1854 44.1547C26.0746 43.8873 26.0379 43.5954 26.0752 43.2792C26.1087 42.9605 26.2436 42.6163 26.4799 42.2464C26.745 41.8313 27.0431 41.5435 27.3741 41.383C27.7013 41.2201 28.0632 41.1776 28.4597 41.2556C28.8587 41.3298 29.2958 41.5188 29.7713 41.8226L33.3201 44.09L32.2136 45.8222ZM29.9284 49.3997L24.3646 45.8449L25.4638 44.124L26.82 45.0703L27.0275 45.1072L31.0348 47.6676L29.9284 49.3997Z" fill="#39251A"/>
<path d="M35.8872 40.763L30.1231 34.3963L32.2313 32.3636L36.8037 35.0648L36.8666 35.0042L34.3347 30.3356L36.4429 28.3029L42.5938 34.2966L41.1287 35.7093L39.132 33.725L36.7111 31.3007L36.6385 31.3706L39.211 36.1587L37.8668 37.4548L33.1764 34.7087L33.0991 34.7833L35.4425 37.2917L37.3523 39.3504L35.8872 40.763Z" fill="#39251A"/>
<path d="M46.35 32.0986C45.4625 32.6886 44.645 32.9147 43.8976 32.777C43.1514 32.6332 42.5119 32.1603 41.979 31.3584L41.4994 30.6368C40.9591 29.8237 40.7677 29.0422 40.9252 28.2923C41.0803 27.5386 41.5997 26.868 42.4835 26.2806C43.3673 25.6931 44.1848 25.475 44.9359 25.6264C45.6883 25.7715 46.3346 26.2506 46.8749 27.0636L47.3545 27.7853C47.8874 28.5871 48.0757 29.3599 47.9194 30.1037C47.7607 30.8437 47.2375 31.5087 46.35 32.0986ZM45.454 30.7504C45.771 30.5397 45.9483 30.2847 45.986 29.9855C46.0249 29.68 45.9267 29.3501 45.6912 28.9958L45.1149 28.1287C44.8671 27.7557 44.5948 27.528 44.2981 27.4456C44.0052 27.3608 43.7002 27.4237 43.3832 27.6344C43.0663 27.8451 42.8883 28.1032 42.8494 28.4086C42.8142 28.7116 42.9205 29.0496 43.1683 29.4226L43.7446 30.2897C43.9801 30.644 44.2443 30.8636 44.5372 30.9485C44.8314 31.0271 45.137 30.9611 45.454 30.7504Z" fill="#39251A"/>
<path d="M50.2314 25.3961L49.1716 24.5266L49.605 24.3121C49.459 23.7748 49.4559 23.2991 49.5957 22.8851C49.7376 22.4651 50.0633 22.129 50.573 21.8767C50.6613 21.833 50.7445 21.7993 50.8227 21.7756C50.9049 21.7499 50.9841 21.7282 51.0603 21.7104L52.0712 23.526C51.975 23.5436 51.8688 23.5762 51.7524 23.6238C51.6341 23.6674 51.5168 23.718 51.4004 23.7756C51.0071 23.9703 50.7128 24.2084 50.5174 24.49C50.32 24.7676 50.2247 25.0696 50.2314 25.3961ZM50.0702 29.6131L47.1414 23.6954L48.875 22.8372L49.7323 24.7662L49.9308 24.6979L51.9122 28.7013L50.0702 29.6131Z" fill="#39251A"/>
<path d="M58.0039 26.38C56.8705 26.7745 55.9457 26.8143 55.2292 26.4994C54.5113 26.1803 53.9838 25.5365 53.6468 24.5679L53.4216 23.9209C53.089 22.965 53.0881 22.145 53.4189 21.4609C53.7483 20.7725 54.3972 20.2598 55.3656 19.9227C56.0169 19.696 56.5972 19.6197 57.1065 19.6937C57.6186 19.762 58.0539 19.9638 58.4123 20.2989C58.775 20.6326 59.0564 21.0871 59.2566 21.6623L59.3294 21.8716C59.3853 22.0323 59.4343 22.2002 59.4762 22.3753C59.521 22.5446 59.5556 22.7056 59.5803 22.8583L57.8296 23.4676C57.7611 23.2165 57.6915 22.9823 57.6206 22.7651C57.5483 22.5437 57.4813 22.3442 57.4195 22.1666C57.3297 21.9086 57.2144 21.7069 57.0738 21.5614C56.9316 21.4118 56.7597 21.3199 56.5582 21.2857C56.3609 21.2501 56.1312 21.2779 55.869 21.3691C55.4799 21.5045 55.2313 21.7096 55.123 21.9844C55.0175 22.2535 55.0317 22.5804 55.1657 22.9653L55.3644 23.5362L55.4499 23.7412L55.6044 24.1853C55.6604 24.346 55.7387 24.4894 55.8395 24.6155C55.9445 24.7402 56.0817 24.8347 56.2511 24.899C56.4232 24.9576 56.6366 24.9782 56.8913 24.9607C57.1487 24.9375 57.4592 24.8626 57.8229 24.736C58.2077 24.602 58.5652 24.4373 58.8955 24.2417C59.2242 24.042 59.5293 23.822 59.8107 23.5818L60.1599 25.0961C59.9239 25.3442 59.6239 25.579 59.2601 25.8005C58.8962 26.0219 58.4775 26.2151 58.0039 26.38ZM54.7848 24.5275L54.3675 23.3284L58.7698 21.7961L59.187 22.9951L54.7848 24.5275Z" fill="#39251A"/>
<path d="M64.8564 20.3826L63.4531 19.7024L64.3397 18.4913L64.3203 18.4536L62.9211 18.4592L63.0609 16.9015L64.5241 17.2665L64.5466 17.2359L64.1278 15.8461L65.7938 15.5884L65.8077 17.0408L65.8384 17.0633L67.1297 16.2722L67.7334 17.715L66.3912 18.1333L66.3907 18.1741L67.6016 19.0608L66.476 20.1321L65.4824 18.9807L65.4426 18.9869L64.8564 20.3826Z" fill="#39251A"/>
</svg>
