<svg width="51" height="50" viewBox="0 0 51 50" fill="none" xmlns="http://www.w3.org/2000/svg">
<circle cx="25.5586" cy="25" r="25" fill="#FED525"/>
<path d="M30.1089 15.2354C30.4481 15.4954 30.799 15.7293 31.1758 15.932C31.5849 16.1522 32.0156 16.317 32.4642 16.4378C32.556 16.4626 32.6488 16.4805 32.7419 16.4953C32.7687 16.4667 32.7957 16.4382 32.8211 16.4084C33.1474 16.0265 33.3649 15.5625 33.522 15.0855C33.729 14.4557 33.8358 13.7933 33.8381 13.1304C33.8391 12.8342 33.822 12.5098 33.6865 12.2404C33.5756 12.0196 33.3219 11.8524 33.0695 11.9054C32.7201 11.9789 32.6324 12.3893 32.494 12.6621C32.1592 13.3215 31.6 13.8629 30.944 14.2004C30.6635 14.3446 30.3644 14.4527 30.0944 14.6158C29.9524 14.7015 29.8175 14.8066 29.707 14.9301C29.8387 15.0467 29.9943 15.1474 30.1089 15.2354Z" fill="#39251A"/>
<path d="M18.8951 15.5069C18.9922 15.3365 19.1334 15.207 19.2963 15.125C20.6859 13.9101 22.7042 13.7218 24.3037 14.6876L25.5186 15.4212V16.4196C25.3469 16.4196 25.1755 16.3735 25.0229 16.2815C25.0229 16.2815 23.2618 15.3302 22.2725 15.3302C19.703 15.3302 19.664 17.0476 19.2888 16.8341L19.2543 16.8144C18.7942 16.5527 18.6333 15.9672 18.8951 15.5069Z" fill="#39251A"/>
<path d="M31.742 15.125C31.9049 15.2071 32.0463 15.3365 32.1432 15.5069C32.405 15.9673 32.2442 16.5528 31.7838 16.8146L31.7493 16.8343C31.3739 17.0478 31.3351 15.3304 28.7656 15.3304C27.7763 15.3304 26.0152 16.2818 26.0152 16.2818C25.8629 16.3738 25.6912 16.4199 25.5195 16.4199V15.4214L26.7344 14.6878C28.3344 13.7217 30.3526 13.9102 31.742 15.125Z" fill="#39251A"/>
<path d="M25.8977 25.1046C25.8977 19.9525 30.089 15.7609 35.2413 15.7609H40.7769C41.2082 15.7609 41.5576 16.1106 41.5576 16.5418C41.5576 19.7691 38.9321 22.3946 35.7049 22.3946H32.9961C32.7033 23.8481 32.6107 25.3069 32.5831 26.7872C32.5959 29.7378 30.9374 30.4342 29.6191 32.6056L30.1565 34.143C30.4996 35.1247 30.3511 36.1739 29.7492 37.0221C29.1472 37.8698 28.2056 38.3559 27.1659 38.3561C27.1655 38.3561 23.8682 38.3561 23.8682 38.3561C22.8283 38.3561 21.8867 37.8696 21.2848 37.0219C20.6828 36.1737 20.5343 35.1245 20.8775 34.1426L21.414 32.6078C20.912 31.7877 20.3517 31.1161 19.7047 30.362C19.042 29.571 18.5876 28.5751 18.4921 27.5466C18.4378 27.0493 18.4559 26.5455 18.4332 26.048C18.3814 24.8159 18.2822 23.6053 18.0379 22.3944H15.3291C12.1021 22.3944 9.47656 19.7689 9.47656 16.5416C9.47656 16.1104 9.82618 15.7607 10.2573 15.7607H15.7929C20.9449 15.7607 25.1363 19.9523 25.1363 25.1044C25.1363 26.1567 24.9603 27.1937 24.6132 28.1869L22.3517 34.6576C22.1656 35.1901 22.1477 35.8387 22.5031 36.3025C22.8988 36.8191 23.9503 37.5261 24.5878 37.0072C24.7202 36.8996 24.8037 36.7206 24.7631 36.5546C24.7306 36.4218 24.6258 36.3169 24.5091 36.2452C24.2723 36.0992 23.9858 36.065 23.7144 36.0031C23.3118 35.9115 22.9388 35.6961 22.8645 35.2577C22.8055 34.9095 23.0091 34.5235 23.3437 34.411C23.6925 34.2936 24.0716 34.4725 24.3645 34.6952C24.9065 35.1072 25.3668 35.7067 25.517 36.3736C25.6669 35.7065 26.1274 35.107 26.6694 34.6952C26.9624 34.4725 27.3414 34.2934 27.6902 34.411C28.0248 34.5237 28.2284 34.9095 28.1695 35.2577C28.0951 35.6961 27.7221 35.9115 27.3195 36.0031C27.0481 36.0648 26.7619 36.099 26.5248 36.2452C26.4082 36.3171 26.3036 36.4218 26.2708 36.5546C26.2302 36.7204 26.3139 36.8994 26.4462 37.0072C27.0836 37.5261 28.1351 36.8191 28.5309 36.3025C28.8862 35.8385 28.8683 35.1901 28.6822 34.6576L26.4208 28.1869C26.0738 27.1939 25.8977 26.1567 25.8977 25.1046Z" fill="#39251A"/>
<path d="M21.3703 30.7984C20.5534 30.2016 19.7685 29.7193 19.2929 28.836C18.5808 27.5454 18.8776 25.9869 18.9449 24.5693C18.9492 24.522 18.9536 24.4746 18.9581 24.4273C19.0666 23.2878 19.6175 22.2351 20.4856 21.489C20.887 21.144 21.1287 20.832 20.6914 20.832H15.329C13.2297 20.832 10.954 18.8202 10.5859 16.8257H15.6407C19.8034 16.8257 23.6845 19.8498 23.9044 24.0068C23.9582 25.0254 23.4739 26.7131 23.1391 27.6712L21.91 31.1879C21.7278 31.0605 21.548 30.9307 21.3703 30.7984ZM35.907 20.8322H28.7415C30.1749 18.4899 32.6371 16.9401 35.4298 16.9401H40.2491C39.8702 19.1517 38.0673 20.8322 35.907 20.8322Z" fill="#39251A"/>
<path d="M20.9245 15.2354C20.5853 15.4954 20.2345 15.7293 19.8576 15.932C19.4485 16.1522 19.0178 16.317 18.5692 16.4378C18.4774 16.4626 18.3846 16.4805 18.2915 16.4953C18.2647 16.4667 18.2377 16.4382 18.2123 16.4084C17.8861 16.0265 17.6685 15.5625 17.5115 15.0855C17.3042 14.4557 17.1976 13.7933 17.1954 13.1304C17.1943 12.8342 17.2114 12.5098 17.3469 12.2404C17.4578 12.0196 17.7116 11.8524 17.9639 11.9054C18.3135 11.9789 18.401 12.3893 18.5394 12.6621C18.8742 13.3215 19.4334 13.8629 20.0894 14.2004C20.37 14.3446 20.669 14.4527 20.939 14.6158C21.081 14.7015 21.2159 14.8066 21.3264 14.9301C21.1947 15.0467 21.0391 15.1474 20.9245 15.2354Z" fill="#39251A"/>
<path d="M29.7263 25.6914C30.2569 25.6914 30.687 25.2613 30.687 24.7307C30.687 24.2001 30.2569 23.77 29.7263 23.77C29.1957 23.77 28.7656 24.2001 28.7656 24.7307C28.7656 25.2613 29.1957 25.6914 29.7263 25.6914Z" fill="#FED525"/>
<path d="M21.3123 25.6914C21.8428 25.6914 22.2729 25.2613 22.2729 24.7307C22.2729 24.2001 21.8428 23.77 21.3123 23.77C20.7817 23.77 20.3516 24.2001 20.3516 24.7307C20.3516 25.2613 20.7817 25.6914 21.3123 25.6914Z" fill="#FED525"/>
</svg>
