<svg width="168" height="50" viewBox="0 0 168 50" fill="none" xmlns="http://www.w3.org/2000/svg">
<circle cx="25.5586" cy="25" r="25" fill="#FED525"/>
<path d="M30.1089 15.2355C30.4481 15.4956 30.799 15.7294 31.1758 15.9321C31.5849 16.1523 32.0156 16.3171 32.4642 16.438C32.556 16.4627 32.6488 16.4806 32.7419 16.4955C32.7687 16.4668 32.7957 16.4384 32.8211 16.4085C33.1474 16.0266 33.3649 15.5626 33.522 15.0856C33.729 14.4558 33.8358 13.7934 33.8381 13.1305C33.8391 12.8343 33.822 12.5099 33.6865 12.2405C33.5756 12.0197 33.3219 11.8525 33.0695 11.9055C32.7201 11.9791 32.6324 12.3894 32.494 12.6622C32.1592 13.3217 31.6 13.8631 30.944 14.2005C30.6635 14.3447 30.3644 14.4528 30.0944 14.6159C29.9524 14.7017 29.8175 14.8067 29.707 14.9302C29.8387 15.0468 29.9943 15.1476 30.1089 15.2355Z" fill="#39251A"/>
<path d="M18.8951 15.5071C18.9922 15.3367 19.1334 15.2073 19.2963 15.1252C20.6859 13.9104 22.7042 13.7221 24.3037 14.6878L25.5186 15.4214V16.4199C25.3469 16.4199 25.1755 16.3738 25.0229 16.2817C25.0229 16.2817 23.2618 15.3304 22.2725 15.3304C19.703 15.3304 19.664 17.0478 19.2888 16.8343L19.2543 16.8146C18.7942 16.5529 18.6333 15.9675 18.8951 15.5071Z" fill="#39251A"/>
<path d="M31.742 15.1255C31.9049 15.2075 32.0463 15.3369 32.1432 15.5074C32.405 15.9677 32.2442 16.5532 31.7838 16.815L31.7493 16.8347C31.3739 17.0483 31.3351 15.3308 28.7656 15.3308C27.7763 15.3308 26.0152 16.2822 26.0152 16.2822C25.8629 16.3742 25.6912 16.4203 25.5195 16.4203V15.4218L26.7344 14.6883C28.3344 13.7221 30.3526 13.9106 31.742 15.1255Z" fill="#39251A"/>
<path d="M25.8977 25.1045C25.8977 19.9524 30.089 15.7609 35.2413 15.7609H40.7769C41.2082 15.7609 41.5576 16.1105 41.5576 16.5418C41.5576 19.769 38.9321 22.3945 35.7049 22.3945H32.9961C32.7033 23.848 32.6107 25.3068 32.5831 26.7872C32.5959 29.7377 30.9374 30.4341 29.6191 32.6056L30.1565 34.143C30.4996 35.1246 30.3511 36.1739 29.7492 37.022C29.1472 37.8697 28.2056 38.3559 27.1659 38.3561C27.1655 38.3561 23.8682 38.3561 23.8682 38.3561C22.8283 38.3561 21.8867 37.8695 21.2848 37.0218C20.6828 36.1737 20.5343 35.1244 20.8775 34.1426L21.414 32.6078C20.912 31.7877 20.3517 31.1161 19.7047 30.362C19.042 29.5709 18.5876 28.5751 18.4921 27.5465C18.4378 27.0492 18.4559 26.5454 18.4332 26.0479C18.3814 24.8158 18.2822 23.6053 18.0379 22.3943H15.3291C12.1021 22.3943 9.47656 19.7688 9.47656 16.5416C9.47656 16.1103 9.82618 15.7607 10.2573 15.7607H15.7929C20.9449 15.7607 25.1363 19.9522 25.1363 25.1043C25.1363 26.1566 24.9603 27.1937 24.6132 28.1869L22.3517 34.6576C22.1656 35.19 22.1477 35.8387 22.5031 36.3025C22.8988 36.8191 23.9503 37.526 24.5878 37.0072C24.7202 36.8995 24.8037 36.7205 24.7631 36.5546C24.7306 36.4217 24.6258 36.3169 24.5091 36.2452C24.2723 36.0991 23.9858 36.065 23.7144 36.003C23.3118 35.9114 22.9388 35.6961 22.8645 35.2577C22.8055 34.9095 23.0091 34.5235 23.3437 34.4109C23.6925 34.2935 24.0716 34.4725 24.3645 34.6951C24.9065 35.1071 25.3668 35.7066 25.517 36.3736C25.6669 35.7064 26.1274 35.1069 26.6694 34.6951C26.9624 34.4725 27.3414 34.2933 27.6902 34.4109C28.0248 34.5237 28.2284 34.9095 28.1695 35.2577C28.0951 35.6961 27.7221 35.9114 27.3195 36.003C27.0481 36.0648 26.7619 36.0989 26.5248 36.2452C26.4082 36.3171 26.3036 36.4217 26.2708 36.5546C26.2302 36.7203 26.3139 36.8993 26.4462 37.0072C27.0836 37.526 28.1351 36.8191 28.5309 36.3025C28.8862 35.8385 28.8683 35.19 28.6822 34.6576L26.4208 28.1869C26.0738 27.1939 25.8977 26.1566 25.8977 25.1045Z" fill="#39251A"/>
<path d="M21.3703 30.7987C20.5534 30.2019 19.7685 29.7196 19.2929 28.8363C18.5808 27.5457 18.8776 25.9872 18.9449 24.5696C18.9492 24.5223 18.9536 24.4749 18.9581 24.4276C19.0666 23.2881 19.6175 22.2354 20.4856 21.4893C20.887 21.1443 21.1287 20.8323 20.6914 20.8323H15.329C13.2297 20.8323 10.954 18.8205 10.5859 16.826H15.6407C19.8034 16.826 23.6845 19.8501 23.9044 24.0071C23.9582 25.0257 23.4739 26.7134 23.1391 27.6715L21.91 31.1882C21.7278 31.0608 21.548 30.931 21.3703 30.7987ZM35.907 20.8325H28.7415C30.1749 18.4902 32.6371 16.9404 35.4298 16.9404H40.2491C39.8702 19.152 38.0673 20.8325 35.907 20.8325Z" fill="#39251A"/>
<path d="M20.9245 15.2355C20.5853 15.4956 20.2345 15.7294 19.8576 15.9321C19.4485 16.1523 19.0178 16.3171 18.5692 16.438C18.4774 16.4627 18.3846 16.4806 18.2915 16.4955C18.2647 16.4668 18.2377 16.4384 18.2123 16.4085C17.8861 16.0266 17.6685 15.5626 17.5115 15.0856C17.3042 14.4558 17.1976 13.7934 17.1954 13.1305C17.1943 12.8343 17.2114 12.5099 17.3469 12.2405C17.4578 12.0197 17.7116 11.8525 17.9639 11.9055C18.3135 11.9791 18.401 12.3894 18.5394 12.6622C18.8742 13.3217 19.4334 13.8631 20.0894 14.2005C20.37 14.3447 20.669 14.4528 20.939 14.6159C21.081 14.7017 21.2159 14.8067 21.3264 14.9302C21.1947 15.0468 21.0391 15.1476 20.9245 15.2355Z" fill="#39251A"/>
<path d="M29.7263 25.6916C30.2569 25.6916 30.687 25.2615 30.687 24.7309C30.687 24.2003 30.2569 23.7702 29.7263 23.7702C29.1957 23.7702 28.7656 24.2003 28.7656 24.7309C28.7656 25.2615 29.1957 25.6916 29.7263 25.6916Z" fill="#FED525"/>
<path d="M21.3123 25.6916C21.8428 25.6916 22.2729 25.2615 22.2729 24.7309C22.2729 24.2003 21.8428 23.7702 21.3123 23.7702C20.7817 23.7702 20.3516 24.2003 20.3516 24.7309C20.3516 25.2615 20.7817 25.6916 21.3123 25.6916Z" fill="#FED525"/>
<path d="M66.428 34L66.988 16.108H73.092L76.046 26.776H76.228L79.182 16.108H85.286L85.846 34H81.604L81.478 28.134L81.352 20.994H81.142L78.076 31.9H74.184L71.118 20.994H70.894L70.782 28.148L70.67 34H66.428ZM88.7272 34V20.238H93.0112V34H88.7272ZM90.8692 18.936C90.0665 18.936 89.4832 18.754 89.1192 18.39C88.7552 18.0167 88.5732 17.5173 88.5732 16.892V16.794C88.5732 16.1687 88.7552 15.674 89.1192 15.31C89.4832 14.946 90.0665 14.764 90.8692 14.764C91.6532 14.764 92.2272 14.946 92.5912 15.31C92.9645 15.674 93.1512 16.1687 93.1512 16.794V16.892C93.1512 17.5267 92.9645 18.026 92.5912 18.39C92.2272 18.754 91.6532 18.936 90.8692 18.936ZM95.8912 34V15.506H100.175V34H95.8912ZM111.805 34L107.745 28.064H106.625V25.544H107.745L111.693 20.238H116.607L111.371 27.07V26.258L116.803 34H111.805ZM103.041 34V15.506H107.297V34H103.041ZM129.138 30.486V34H117.686V30.808L123.902 23.738H117.728V20.238H129.054V23.416L122.824 30.486H129.138ZM137.928 34.35C135.427 34.35 133.579 33.7947 132.384 32.684C131.189 31.564 130.592 29.9353 130.592 27.798V26.37C130.592 24.2607 131.152 22.646 132.272 21.526C133.392 20.3967 135.021 19.832 137.158 19.832C138.595 19.832 139.79 20.0793 140.742 20.574C141.703 21.0593 142.422 21.7547 142.898 22.66C143.383 23.5653 143.626 24.6527 143.626 25.922V26.384C143.626 26.7387 143.607 27.1027 143.57 27.476C143.542 27.84 143.5 28.1807 143.444 28.498H139.58C139.617 27.9567 139.641 27.448 139.65 26.972C139.659 26.4867 139.664 26.048 139.664 25.656C139.664 25.0867 139.575 24.6107 139.398 24.228C139.221 23.836 138.945 23.5373 138.572 23.332C138.208 23.1267 137.737 23.024 137.158 23.024C136.299 23.024 135.669 23.2573 135.268 23.724C134.876 24.1813 134.68 24.8347 134.68 25.684V26.944L134.708 27.406V28.386C134.708 28.7407 134.764 29.0767 134.876 29.394C134.997 29.7113 135.203 29.9913 135.492 30.234C135.791 30.4673 136.197 30.654 136.71 30.794C137.233 30.9247 137.895 30.99 138.698 30.99C139.547 30.99 140.364 30.9107 141.148 30.752C141.932 30.584 142.683 30.36 143.402 30.08L143.052 33.3C142.417 33.6267 141.666 33.8833 140.798 34.07C139.93 34.2567 138.973 34.35 137.928 34.35ZM132.86 28.498V25.852H142.576V28.498H132.86ZM154.792 34V25.908C154.792 25.404 154.726 24.97 154.596 24.606C154.465 24.2327 154.246 23.948 153.938 23.752C153.63 23.556 153.21 23.458 152.678 23.458C152.239 23.458 151.852 23.5373 151.516 23.696C151.18 23.8453 150.895 24.0553 150.662 24.326C150.438 24.5873 150.27 24.886 150.158 25.222L149.5 23.22H150.228C150.377 22.5947 150.62 22.0347 150.956 21.54C151.301 21.0453 151.772 20.6533 152.37 20.364C152.967 20.0653 153.723 19.916 154.638 19.916C155.664 19.916 156.504 20.1167 157.158 20.518C157.811 20.91 158.292 21.498 158.6 22.282C158.917 23.066 159.076 24.046 159.076 25.222V34H154.792ZM145.944 34V20.238H150.2L150.06 23.682L150.228 24.088V34H145.944Z" fill="white"/>
<path d="M163.707 34.378C162.904 34.378 162.312 34.1727 161.929 33.762C161.556 33.3513 161.369 32.7773 161.369 32.04V31.886C161.369 31.158 161.556 30.584 161.929 30.164C162.312 29.744 162.904 29.534 163.707 29.534C164.491 29.534 165.074 29.744 165.457 30.164C165.84 30.584 166.031 31.158 166.031 31.886V32.04C166.031 32.7773 165.84 33.3513 165.457 33.762C165.074 34.1727 164.491 34.378 163.707 34.378Z" fill="#FED525"/>
</svg>
