<svg width="142" height="142" viewBox="0 0 142 142" fill="none" xmlns="http://www.w3.org/2000/svg">
<circle opacity="0.2" cx="71" cy="70.7812" r="70" stroke="white" stroke-dasharray="5 5"/>
<path d="M72.8977 20.5371L72.4531 11.7812L74.6072 12.0471L74.6861 18.0277L74.7101 18.9838L74.8252 18.998L75.0993 18.0787L76.703 12.5032L79.2974 12.8234L79.4617 18.6171L79.4925 19.574L79.6144 19.5891L79.8817 18.6689L81.4557 12.8923L83.5828 13.1548L80.9994 21.537L77.985 21.1649L77.881 15.9301L77.8339 14.3925L77.7255 14.3791L77.2984 15.8582L75.9122 20.9091L72.8977 20.5371Z" fill="white"/>
<path d="M87.8959 23.5925L88.5041 22.0422L88.4925 21.9309L89.1791 19.9713L89.2557 19.7116C89.378 19.3626 89.365 19.0698 89.2167 18.833C89.0685 18.5962 88.7514 18.3944 88.2656 18.2277C87.8399 18.0816 87.4171 17.9961 86.9971 17.9711C86.5772 17.9462 86.1735 17.9435 85.7861 17.9631L86.4838 16.5079C86.7187 16.4836 86.975 16.4738 87.2528 16.4786C87.5363 16.4805 87.8396 16.5083 88.1628 16.562C88.486 16.6158 88.8217 16.7024 89.17 16.8219C89.7246 17.0123 90.1666 17.2355 90.496 17.4915C90.8253 17.7475 91.0608 18.0309 91.2024 18.3417C91.344 18.6525 91.4068 18.9887 91.3909 19.3503C91.3765 19.7076 91.3007 20.0821 91.1635 20.4736L89.8372 24.2587L87.8959 23.5925ZM85.8257 23.0465C85.1936 22.8296 84.7694 22.5076 84.5529 22.0805C84.3365 21.6535 84.3304 21.1485 84.5347 20.5655L84.5951 20.3931C84.8113 19.7761 85.1621 19.3865 85.6477 19.2242C86.139 19.0591 86.8226 19.0672 87.6983 19.2486L89.4793 19.6095L89.1839 20.8239L87.5986 20.523C87.2799 20.4565 87.0403 20.4529 86.8798 20.5122C86.7194 20.5716 86.6041 20.7013 86.534 20.9013L86.5184 20.9459C86.4513 21.1374 86.4599 21.312 86.5444 21.4697C86.6303 21.6231 86.8108 21.7471 87.086 21.8415C87.3268 21.9242 87.5459 21.9588 87.7432 21.9455C87.9449 21.9337 88.1217 21.8895 88.2738 21.8129C88.4273 21.7322 88.5574 21.629 88.664 21.5035L88.664 22.3902L88.3415 22.2795C88.1773 22.5283 87.9833 22.7382 87.7596 22.9093C87.5401 23.0819 87.2726 23.1855 86.957 23.2202C86.6414 23.2549 86.2643 23.197 85.8257 23.0465Z" fill="white"/>
<path d="M94.6324 26.7005C94.1059 26.4236 93.7276 26.1252 93.4975 25.8052C93.2735 25.4833 93.1775 25.1294 93.2096 24.7433C93.2417 24.3572 93.3817 23.9335 93.6295 23.4722L95.3884 20.197L97.2209 21.161L95.6189 24.1438C95.4651 24.4301 95.4162 24.6748 95.4722 24.8776C95.5343 25.0786 95.7442 25.2732 96.1019 25.4613C96.2988 25.5649 96.5054 25.6456 96.7218 25.7033C96.9382 25.761 97.1429 25.7973 97.336 25.8121L96.3686 27.239C96.1167 27.2187 95.8422 27.1635 95.5452 27.0736C95.2501 26.9898 94.9458 26.8654 94.6324 26.7005ZM94.141 20.6197L94.9099 19.1879L99.5212 21.6136L98.5895 22.9597L94.141 20.6197ZM95.6592 19.7504L96.4669 18.2319L98.3863 19.0197L97.4133 20.6731L95.6592 19.7504Z" fill="white"/>
<path d="M100.809 30.5679C99.9514 29.9431 99.4815 29.2568 99.3992 28.5089C99.3168 27.7611 99.5765 26.9827 100.178 26.1738L100.591 25.6189C101.182 24.8245 101.85 24.3551 102.596 24.2107C103.342 24.0662 104.142 24.3051 104.996 24.9272C105.216 25.0874 105.409 25.2532 105.575 25.4247C105.744 25.5926 105.889 25.7624 106.01 25.9343C106.131 26.1062 106.229 26.2671 106.304 26.4168L105.417 27.8935C105.313 27.6611 105.178 27.4335 105.01 27.2107C104.845 26.9842 104.627 26.7722 104.356 26.5746C103.93 26.2649 103.547 26.1422 103.205 26.2065C102.864 26.2707 102.55 26.4951 102.264 26.8796L101.92 27.3421C101.629 27.7338 101.505 28.1083 101.551 28.4655C101.596 28.8228 101.833 29.1576 102.261 29.47C102.529 29.6649 102.792 29.8089 103.05 29.9021C103.315 29.9944 103.582 30.0605 103.852 30.1004L102.692 31.3863C102.426 31.349 102.128 31.2634 101.799 31.1294C101.469 30.9954 101.139 30.8082 100.809 30.5679Z" fill="white"/>
<path d="M107.894 36.5143L110.727 33.7968C110.904 33.6275 111.033 33.4592 111.117 33.2916C111.203 33.121 111.228 32.9494 111.192 32.7768C111.16 32.6075 111.051 32.429 110.868 32.2414C110.719 32.0894 110.56 31.9818 110.39 31.9187C110.224 31.8524 110.055 31.8259 109.884 31.8391C109.72 31.8525 109.559 31.8946 109.4 31.9654L109.806 30.9923L110.143 31.3367C110.41 31.1752 110.687 31.0697 110.974 31.02C111.261 30.9703 111.555 30.9987 111.856 31.1054C112.163 31.2121 112.469 31.4207 112.773 31.7312C113.121 32.0869 113.336 32.4454 113.417 32.8066C113.502 33.1647 113.459 33.5287 113.289 33.8987C113.122 34.272 112.833 34.6561 112.421 35.051L109.347 37.9989L107.894 36.5143ZM104.891 33.4481L111.367 27.2373L112.811 28.7122L111.37 30.0945L109.758 31.5935L109.674 31.7403L106.345 34.9327L104.891 33.4481Z" fill="white"/>
<path d="M114.579 45.1399L121.07 38.9053L122.137 40.823L116.713 45.7127L116.789 45.8488L123.868 43.9362L124.931 45.848L116.139 47.9454L114.579 45.1399Z" fill="white"/>
<path d="M118.068 52.0238L124.346 49.6783L125.084 51.6124L118.806 53.9579L118.068 52.0238ZM125.309 50.4234C125.17 50.061 125.153 49.7667 125.256 49.5403C125.364 49.3123 125.56 49.1451 125.846 49.0385L125.89 49.0218C126.176 48.9152 126.433 48.913 126.661 49.0153C126.89 49.1176 127.074 49.35 127.212 49.7124C127.347 50.0663 127.363 50.3565 127.259 50.5828C127.158 50.8134 126.964 50.982 126.679 51.0886L126.634 51.1053C126.345 51.2135 126.085 51.2143 125.854 51.1078C125.626 51.0055 125.444 50.7774 125.309 50.4234Z" fill="white"/>
<path d="M120.135 58.6426C119.963 57.887 120.083 57.2576 120.495 56.7543C120.908 56.2555 121.61 55.8953 122.599 55.6737L123.405 55.4934C124.413 55.2678 125.219 55.2929 125.823 55.5687C126.427 55.8444 126.82 56.3776 127 57.1684C127.089 57.5549 127.098 57.8922 127.029 58.1802C126.959 58.4682 126.824 58.7154 126.624 58.9219C126.425 59.1327 126.173 59.3046 125.867 59.4376L125.992 59.9846L124.565 59.8052C124.834 59.7358 125.051 59.6319 125.215 59.4936C125.379 59.3552 125.49 59.1872 125.548 58.9896C125.611 58.7954 125.614 58.5753 125.558 58.3293C125.474 57.9603 125.301 57.7035 125.039 57.5589C124.777 57.4143 124.429 57.3907 123.994 57.488L123.055 57.6982C122.625 57.7946 122.32 57.9642 122.143 58.2072C121.97 58.4536 121.928 58.7679 122.015 59.1501C122.061 59.3521 122.14 59.5238 122.252 59.6651C122.364 59.8107 122.5 59.9235 122.658 60.0036C122.817 60.088 122.987 60.1377 123.168 60.1526L122.296 60.8674L122.166 60.3007C121.858 60.3004 121.567 60.2502 121.292 60.1501C121.017 60.05 120.78 59.8791 120.58 59.6376C120.38 59.396 120.232 59.0644 120.135 58.6426ZM120.751 60.6313L122.422 60.3195L122.761 60.2091L125.411 59.6159L125.697 59.5518L127.589 59.1007L129.546 58.6626L130.004 60.6658L121.209 62.6345L120.751 60.6313Z" fill="white"/>
<path d="M121.659 68.8501C121.603 67.6443 121.832 66.7412 122.346 66.1407C122.865 65.54 123.645 65.2159 124.686 65.1686L125.382 65.137C126.409 65.0903 127.208 65.3245 127.779 65.8396C128.354 66.3545 128.666 67.1271 128.713 68.1574C128.746 68.8503 128.652 69.4317 128.432 69.9015C128.217 70.3757 127.895 70.7375 127.464 70.9871C127.034 71.2411 126.51 71.3821 125.892 71.4102L125.667 71.4205C125.494 71.4283 125.316 71.4274 125.134 71.4177C124.956 71.4122 124.789 71.3995 124.633 71.3796L124.546 69.5169C124.811 69.5229 125.059 69.5229 125.291 69.5168C125.528 69.5106 125.742 69.5031 125.933 69.4944C126.21 69.4818 126.44 69.4285 126.622 69.3346C126.809 69.2404 126.949 69.1011 127.04 68.9165C127.132 68.7365 127.171 68.507 127.159 68.2281C127.139 67.8142 127.012 67.5156 126.775 67.3325C126.544 67.1537 126.221 67.0736 125.807 67.0925L125.194 67.1204L124.969 67.1441L124.492 67.1658C124.319 67.1736 124.157 67.2081 124.005 67.2691C123.853 67.3346 123.721 67.4398 123.609 67.5847C123.502 67.7338 123.421 67.9336 123.364 68.1842C123.312 68.4391 123.295 68.7599 123.313 69.1469C123.332 69.5563 123.389 69.9482 123.484 70.3227C123.583 70.6969 123.709 71.0541 123.861 71.3943L122.285 71.2969C122.112 70.9982 121.97 70.6417 121.86 70.2274C121.749 69.8131 121.682 69.354 121.659 68.8501ZM124.396 66.2774L125.685 66.2188L125.902 70.9025L124.613 70.9611L124.396 66.2774Z" fill="white"/>
<path d="M121.351 77.3007C121.49 76.2376 121.861 75.4676 122.465 74.9907C123.072 74.5188 123.861 74.3449 124.832 74.4689L125.705 74.5805C126.689 74.7062 127.416 75.0761 127.887 75.6903C128.362 76.3051 128.53 77.1418 128.392 78.2004C128.254 79.2591 127.877 80.0237 127.26 80.4945C126.647 80.9702 125.849 81.1452 124.865 81.0195L123.992 80.9079C123.021 80.7839 122.303 80.4173 121.836 79.8082C121.374 79.1997 121.212 78.3638 121.351 77.3007ZM122.983 77.5092C122.933 77.8889 123.011 78.1917 123.215 78.4177C123.424 78.6487 123.742 78.7916 124.171 78.8463L125.22 78.9804C125.672 79.0381 126.028 78.9814 126.289 78.8104C126.549 78.6439 126.704 78.3707 126.754 77.9911C126.803 77.6114 126.724 77.306 126.515 77.075C126.306 76.8485 125.976 76.7064 125.525 76.6487L124.475 76.5146C124.046 76.4598 123.702 76.5157 123.442 76.6823C123.185 76.8539 123.032 77.1295 122.983 77.5092Z" fill="white"/>
<path d="M122.778 89.6842L124.089 88.8025L124.706 90.1832L124.749 90.1852L125.454 88.9628L126.755 89.8665L125.691 90.9587L125.706 90.9937L127.143 91.3263L126.525 92.9078L125.238 92.1909L125.203 92.2063L125.245 93.729L123.668 93.5309L123.98 92.1511L123.945 92.1301L122.55 92.7405L122.177 91.2216L123.695 90.9335L123.71 90.8957L122.778 89.6842Z" fill="white"/>
<path d="M114.175 98.4197L122.07 102.395L120.766 104.112L115.484 101.204L114.634 100.748L114.565 100.84L115.234 101.533L119.323 105.684L117.751 107.752L112.592 105.01L111.738 104.56L111.664 104.658L112.337 105.345L116.617 109.57L115.329 111.266L109.267 104.877L111.093 102.475L115.733 104.99L117.104 105.715L117.17 105.628L116.086 104.526L112.349 100.822L114.175 98.4197Z" fill="white"/>
<path d="M104.037 109.787L105.096 111.078L105.199 111.124L106.578 112.685L106.768 112.88C107.014 113.158 107.277 113.292 107.559 113.282C107.84 113.272 108.174 113.099 108.561 112.764C108.901 112.471 109.185 112.15 109.415 111.801C109.645 111.453 109.848 111.107 110.023 110.764L110.954 112.086C110.859 112.299 110.74 112.525 110.598 112.761C110.456 113.004 110.281 113.251 110.074 113.502C109.867 113.753 109.624 113.999 109.347 114.239C108.905 114.621 108.49 114.89 108.102 115.046C107.714 115.203 107.348 115.264 107.005 115.232C106.663 115.2 106.336 115.087 106.027 114.894C105.721 114.705 105.43 114.454 105.154 114.142L102.49 111.125L104.037 109.787ZM105.542 108.278C106.046 107.843 106.539 107.638 107.021 107.663C107.503 107.689 107.949 107.934 108.359 108.399L108.481 108.536C108.915 109.028 109.083 109.523 108.985 110.02C108.886 110.524 108.54 111.108 107.947 111.771L106.747 113.123L105.828 112.267L106.878 111.053C107.094 110.812 107.216 110.608 107.244 110.441C107.271 110.273 107.214 110.11 107.074 109.951L107.042 109.915C106.907 109.763 106.75 109.683 106.57 109.678C106.392 109.676 106.194 109.769 105.975 109.959C105.783 110.125 105.644 110.296 105.558 110.472C105.468 110.652 105.419 110.825 105.411 110.994C105.406 111.166 105.432 111.329 105.489 111.483L104.711 111.043L104.968 110.821C104.831 110.557 104.743 110.286 104.704 110.009C104.661 109.735 104.703 109.453 104.829 109.165C104.955 108.876 105.193 108.581 105.542 108.278Z" fill="white"/>
<path d="M97.9728 114.042C98.4764 113.727 98.9256 113.549 99.3204 113.509C99.7139 113.476 100.072 113.568 100.395 113.787C100.718 114.005 101.021 114.335 101.304 114.776L103.31 117.909L101.557 119.009L99.7301 116.156C99.5547 115.882 99.3641 115.719 99.1583 115.666C98.951 115.62 98.6763 115.705 98.3342 115.919C98.1459 116.037 97.9728 116.175 97.8151 116.333C97.6574 116.49 97.5243 116.649 97.4158 116.807L96.6412 115.269C96.7836 115.063 96.9678 114.854 97.1937 114.643C97.4133 114.431 97.673 114.23 97.9728 114.042ZM103.556 116.627L104.433 117.997L100.022 120.764L99.3006 119.296L103.556 116.627ZM103.568 118.363L104.502 119.809L102.861 121.07L101.89 119.416L103.568 118.363Z" fill="white"/>
<path d="M91.5046 117.447C92.4778 117.019 93.313 116.955 94.0102 117.254C94.7075 117.554 95.2622 118.163 95.6743 119.08L95.9571 119.71C96.3618 120.612 96.4428 121.419 96.2002 122.132C95.9576 122.845 95.3517 123.414 94.3827 123.84C94.1332 123.95 93.892 124.034 93.6591 124.092C93.4281 124.154 93.2072 124.195 92.9965 124.213C92.7858 124.232 92.5961 124.237 92.4274 124.227L91.5701 122.734C91.8257 122.759 92.0927 122.755 92.3714 122.721C92.6519 122.692 92.946 122.609 93.2537 122.474C93.7362 122.262 94.0338 121.993 94.1465 121.667C94.2593 121.342 94.2177 120.961 94.0218 120.524L93.7862 120C93.5866 119.555 93.3188 119.264 92.9829 119.126C92.647 118.987 92.2357 119.025 91.7492 119.239C91.4456 119.373 91.1889 119.528 90.9791 119.704C90.767 119.886 90.5766 120.083 90.4079 120.295L89.8535 118.661C90.018 118.451 90.2408 118.237 90.5217 118.02C90.8027 117.802 91.1303 117.612 91.5046 117.447Z" fill="white"/>
<path d="M82.7864 120.585L83.7614 124.369C83.8222 124.605 83.9053 124.8 84.0109 124.954C84.1176 125.113 84.2556 125.22 84.4247 125.275C84.5894 125.331 84.7997 125.327 85.0555 125.262C85.2627 125.21 85.4362 125.127 85.5758 125.013C85.7166 124.903 85.8236 124.771 85.8968 124.618C85.9667 124.47 86.0101 124.31 86.027 124.139L86.6783 124.971L86.2086 125.09C86.2178 125.399 86.1729 125.689 86.0737 125.961C85.9746 126.232 85.8035 126.47 85.5606 126.676C85.3143 126.887 84.9795 127.046 84.5562 127.152C84.0711 127.275 83.6501 127.281 83.293 127.171C82.9371 127.066 82.6391 126.848 82.3991 126.518C82.1547 126.19 81.9617 125.75 81.82 125.2L80.7623 121.096L82.7864 120.585ZM86.9669 119.53L89.1953 128.178L87.1844 128.685L86.6885 126.761L86.175 124.631L86.0882 124.486L84.9428 120.041L86.9669 119.53Z" fill="white"/>
<path d="M71.8432 122.03L74.0781 130.704L71.8667 130.665L70.2794 123.577L70.1224 123.574L68.2766 130.603L66.072 130.564L68.6079 121.973L71.8432 122.03Z" fill="white"/>
<path d="M64.0595 121.603L62.9997 128.161L60.9371 127.835L61.9968 121.277L64.0595 121.603ZM61.8681 128.618C62.2546 128.679 62.5214 128.811 62.6687 129.012C62.8152 129.217 62.8644 129.469 62.8162 129.767L62.8087 129.814C62.7605 130.112 62.6348 130.334 62.4315 130.479C62.2282 130.625 61.9333 130.667 61.5469 130.606C61.1694 130.547 60.907 130.416 60.7598 130.215C60.6081 130.013 60.5563 129.763 60.6044 129.465L60.612 129.418C60.6609 129.116 60.7892 128.892 60.997 128.747C61.2003 128.601 61.4906 128.559 61.8681 128.618Z" fill="white"/>
<path d="M57.2367 120.097C57.9853 120.324 58.478 120.739 58.7149 121.343C58.9475 121.945 58.9154 122.727 58.6187 123.687L58.3771 124.469C58.075 125.447 57.6531 126.127 57.1114 126.509C56.5697 126.892 55.9072 126.964 55.1238 126.727C54.7408 126.611 54.4403 126.452 54.2221 126.25C54.0039 126.047 53.8539 125.808 53.7721 125.534C53.686 125.258 53.6604 124.956 53.6953 124.628L53.1534 124.464L54.0187 123.327C53.9462 123.592 53.9299 123.83 53.9698 124.04C54.0096 124.25 54.102 124.428 54.2468 124.576C54.3859 124.726 54.5773 124.838 54.821 124.912C55.1866 125.023 55.4977 125.001 55.7544 124.848C56.0111 124.695 56.2047 124.408 56.3351 123.985L56.6166 123.074C56.7457 122.657 56.7477 122.311 56.6228 122.038C56.4921 121.768 56.2375 121.575 55.8589 121.46C55.6587 121.4 55.469 121.382 55.2897 121.408C55.106 121.433 54.9398 121.493 54.7911 121.589C54.638 121.684 54.5101 121.806 54.4073 121.954L54.2131 120.849L54.7745 121.019C54.9277 120.755 55.1163 120.529 55.3405 120.343C55.5647 120.156 55.8323 120.037 56.1434 119.985C56.4545 119.933 56.8189 119.971 57.2367 120.097ZM55.1867 119.639L54.6309 121.23L54.5597 121.576L53.7652 124.147L53.6794 124.425L53.1365 126.274L52.5496 128.174L50.5651 127.573L53.2022 119.039L55.1867 119.639Z" fill="white"/>
<path d="M47.5114 116.334C48.5962 116.886 49.2739 117.532 49.5444 118.272C49.8129 119.016 49.7089 119.847 49.2326 120.765L48.9143 121.377C48.4441 122.283 47.8414 122.852 47.106 123.086C46.3686 123.324 45.5364 123.207 44.6095 122.735C43.9862 122.418 43.5232 122.048 43.2206 121.626C42.9118 121.206 42.7551 120.749 42.7505 120.255C42.7418 119.76 42.8789 119.239 43.1618 118.695L43.2648 118.496C43.3439 118.344 43.4331 118.192 43.5325 118.04C43.6258 117.89 43.7199 117.753 43.8149 117.629L45.4907 118.481C45.3538 118.706 45.2303 118.919 45.1202 119.121C45.008 119.327 44.9082 119.515 44.8208 119.683C44.6939 119.927 44.6263 120.151 44.6179 120.354C44.6074 120.562 44.6602 120.751 44.7764 120.921C44.8885 121.09 45.07 121.238 45.321 121.365C45.6933 121.555 46.0186 121.593 46.2966 121.482C46.5686 121.372 46.7992 121.135 46.9885 120.77L47.2693 120.229L47.3602 120.025L47.5786 119.604C47.6576 119.452 47.7082 119.295 47.7304 119.135C47.7485 118.972 47.7219 118.806 47.6505 118.638C47.573 118.472 47.4385 118.302 47.2471 118.129C47.0495 117.958 46.7767 117.784 46.4286 117.606C46.0603 117.419 45.6884 117.273 45.313 117.168C44.9356 117.067 44.5598 116.998 44.1858 116.959L45.0552 115.655C45.4033 115.654 45.7863 115.71 46.2044 115.821C46.6224 115.933 47.0581 116.104 47.5114 116.334ZM48.405 119.964L47.8152 121.1L43.6016 118.956L44.1914 117.821L48.405 119.964Z" fill="white"/>
<path d="M40.3327 111.906C41.1954 112.554 41.6856 113.256 41.8033 114.012C41.9145 114.768 41.6744 115.532 41.0829 116.303L40.5505 116.998C39.9507 117.78 39.2646 118.22 38.4922 118.318C37.717 118.42 36.8999 118.149 36.0407 117.503C35.1815 116.858 34.6991 116.153 34.5933 115.39C34.4812 114.627 34.725 113.855 35.3248 113.073L35.8572 112.378C36.4487 111.607 37.1275 111.173 37.8935 111.075C38.6568 110.981 39.4699 111.258 40.3327 111.906ZM39.3381 113.203C39.0299 112.972 38.726 112.888 38.4261 112.951C38.1199 113.015 37.8362 113.217 37.5748 113.558L36.9351 114.392C36.66 114.751 36.5325 115.085 36.5525 115.394C36.569 115.701 36.7313 115.969 37.0394 116.201C37.3475 116.432 37.6547 116.516 37.9609 116.452C38.2635 116.385 38.5523 116.172 38.8275 115.814L39.4671 114.98C39.7285 114.639 39.851 114.315 39.8345 114.009C39.8117 113.703 39.6462 113.435 39.3381 113.203Z" fill="white"/>
<path d="M28.7661 106.975L28.8904 108.539L27.3731 108.385L27.3499 108.421L28.0736 109.633L26.6358 110.303L26.2043 108.848L26.1659 108.844L25.1622 109.914L24.0805 108.598L25.347 107.848L25.351 107.81L23.994 107.091L24.9491 105.834L26.0053 106.786L26.0414 106.766L26.1969 105.264L27.7146 105.697L27.2153 107.144L27.2411 107.176L28.7661 106.975Z" fill="white"/>
<path d="M25.3453 95.2463L17.9453 100.065L17.0845 98.0932L22.253 94.9933L23.0735 94.488L23.0275 94.3825L22.0879 94.6149L16.419 96.0742L15.3823 93.6988L20.3447 90.6208L21.1625 90.1093L21.1137 89.9976L20.1768 90.2362L14.3479 91.8228L13.4979 89.8753L22.1078 87.8285L23.3124 90.5885L18.8062 93.3317L17.4909 94.1515L17.5342 94.2507L19.039 93.865L24.1407 92.4863L25.3453 95.2463Z" fill="white"/>
<path d="M20.4014 80.8813L18.7426 81.1474L18.6515 81.2136L16.5965 81.6202L16.3314 81.6864C15.9655 81.7588 15.7169 81.9182 15.5856 82.1646C15.4544 82.411 15.4392 82.7838 15.54 83.2829C15.6283 83.7201 15.7679 84.1242 15.9589 84.4952C16.1499 84.8662 16.352 85.2121 16.5652 85.5327L14.944 85.6743C14.8039 85.4862 14.6656 85.2724 14.529 85.033C14.3871 84.7901 14.2578 84.5171 14.1409 84.2141C14.024 83.9112 13.9294 83.5808 13.8572 83.223C13.7421 82.6533 13.7127 82.1631 13.769 81.7523C13.8253 81.3416 13.9529 80.9971 14.152 80.7189C14.351 80.4407 14.6121 80.2168 14.9352 80.0473C15.2539 79.8786 15.6185 79.7536 16.0291 79.6724L19.9986 78.8872L20.4014 80.8813ZM20.9741 82.9244C21.1052 83.5736 21.0396 84.0988 20.7771 84.4997C20.5147 84.9007 20.0778 85.1617 19.4664 85.2826L19.2857 85.3184C18.6386 85.4464 18.1214 85.3443 17.7341 85.0122C17.3414 84.6765 17.0023 84.089 16.7168 83.2499L16.1293 81.5472L17.3369 81.1843L17.8776 82.6895C17.9811 82.9952 18.0993 83.2014 18.2323 83.3083C18.3652 83.4152 18.5366 83.4479 18.7463 83.4064L18.7932 83.3972C18.994 83.3574 19.1417 83.2616 19.2364 83.1097C19.3265 82.9587 19.3431 82.7418 19.286 82.4592C19.236 82.2118 19.1553 82.0073 19.0437 81.8457C18.9313 81.6796 18.8032 81.5511 18.6595 81.4601C18.5114 81.37 18.3557 81.3112 18.1923 81.2838L18.9649 80.8347L19.0318 81.166C19.3316 81.1801 19.6128 81.2393 19.8752 81.3436C20.1367 81.4434 20.3625 81.6193 20.5525 81.871C20.7426 82.1228 20.8831 82.4739 20.9741 82.9244Z" fill="white"/>
<path d="M19.6946 73.581C19.7209 74.1705 19.6532 74.6446 19.4916 75.0033C19.3252 75.3577 19.0658 75.6193 18.7134 75.7879C18.3611 75.9566 17.9212 76.0525 17.3938 76.0755L13.6498 76.2391L13.5582 74.1873L16.9681 74.0383C17.2955 74.024 17.5332 73.9415 17.6814 73.7907C17.8248 73.6357 17.8876 73.3579 17.8697 72.9575C17.8599 72.737 17.8251 72.5199 17.7655 72.3061C17.7058 72.0923 17.6334 71.8993 17.5483 71.7272L19.2816 71.8273C19.3918 72.0524 19.4832 72.3144 19.5558 72.6133C19.6327 72.9075 19.679 73.2301 19.6946 73.581ZM14.6511 77.088L13.0143 77.1595L12.784 71.9962L14.4289 72.107L14.6511 77.088ZM13.1234 76.2351L11.3915 76.3175L11.1025 74.2811L13.0358 74.271L13.1234 76.2351Z" fill="white"/>
<path d="M19.9252 66.261C19.8169 67.3094 19.4582 68.0586 18.849 68.5086C18.2398 68.9585 17.4304 69.1324 16.4208 69.0303L15.7281 68.9602C14.7366 68.8598 13.9886 68.5283 13.4841 67.9657C12.9795 67.403 12.7812 66.5997 12.889 65.5557C12.9168 65.2869 12.9631 65.038 13.0279 64.8092C13.0882 64.5798 13.1625 64.37 13.2508 64.1798C13.3391 63.9895 13.4293 63.8243 13.5216 63.6842L15.257 63.6901C15.1076 63.8968 14.9785 64.1282 14.8697 64.3843C14.7563 64.64 14.6825 64.9336 14.6483 65.2652C14.5946 65.7849 14.6825 66.1741 14.9119 66.4328C15.1414 66.6914 15.4961 66.845 15.976 66.8936L16.5532 66.952C17.0422 67.0015 17.4307 66.9163 17.7187 66.6964C18.0067 66.4766 18.1779 66.1045 18.232 65.5803C18.2658 65.2532 18.2576 64.9558 18.2075 64.6881C18.1534 64.4155 18.0751 64.1541 17.9729 63.9038L19.6812 64.2396C19.7839 64.4855 19.8606 64.783 19.9115 65.1322C19.9623 65.4815 19.9669 65.8577 19.9252 66.261Z" fill="white"/>
<path d="M21.5052 57.2159L17.7021 56.1757C17.4652 56.1109 17.2527 56.0855 17.0647 56.0995C16.8723 56.1123 16.71 56.1777 16.5779 56.2958C16.4469 56.4095 16.3463 56.5923 16.276 56.8441C16.2191 57.0481 16.206 57.2385 16.237 57.4152C16.2635 57.5906 16.3258 57.7479 16.4239 57.8868C16.5189 58.0203 16.6374 58.1368 16.7796 58.2365L15.7259 58.3828L15.855 57.9205C15.5793 57.775 15.3471 57.5923 15.1582 57.3724C14.9694 57.1526 14.8451 56.8873 14.7855 56.5766C14.7227 56.2604 14.7495 55.8939 14.8659 55.4771C14.9993 54.9996 15.2027 54.6347 15.4762 54.3824C15.7452 54.1289 16.084 53.9809 16.4925 53.9384C16.9022 53.8916 17.3834 53.9437 17.9361 54.0949L22.0616 55.2233L21.5052 57.2159ZM20.356 61.3314L11.6641 58.9541L12.2169 56.9745L14.1513 57.5036L16.2741 58.1192L16.4447 58.1168L20.9124 59.3388L20.356 61.3314Z" fill="white"/>
<path d="M25.6486 47.1436L16.9336 44.7461L18.0678 42.8669L25.0707 45.0314L25.1512 44.898L19.9091 39.816L21.0397 37.9426L27.3079 44.3944L25.6486 47.1436Z" fill="white"/>
<path d="M29.8826 40.6922L24.6626 36.5191L25.9752 34.9109L31.1953 39.084L29.8826 40.6922ZM24.825 35.3202C24.5791 35.6215 24.3313 35.7853 24.0817 35.8116C23.8286 35.835 23.5834 35.7519 23.3462 35.5623L23.3091 35.5326C23.0719 35.3429 22.94 35.1246 22.9135 34.8776C22.8869 34.6306 22.9966 34.3564 23.2426 34.0551C23.4828 33.7608 23.7277 33.6005 23.9773 33.5742C24.2297 33.5445 24.4746 33.6244 24.7118 33.814L24.7489 33.8437C24.9897 34.0362 25.1219 34.2577 25.1456 34.5082C25.1721 34.7552 25.0653 35.0259 24.825 35.3202Z" fill="white"/>
<path d="M34.5921 35.5887C34.022 36.1195 33.4132 36.3369 32.7658 36.2409C32.1218 36.1418 31.452 35.7264 30.7567 34.9949L30.1907 34.3995C29.4828 33.6548 29.0955 32.9549 29.0288 32.2997C28.9621 31.6445 29.2271 31.0391 29.8237 30.4836C30.1154 30.212 30.4043 30.0328 30.6903 29.9458C30.9763 29.8589 31.2599 29.8483 31.5412 29.9142C31.8258 29.9769 32.1035 30.1048 32.3745 30.2978L32.7872 29.9136L33.3553 31.2212C33.1585 31.0272 32.9581 30.8953 32.7542 30.8254C32.5503 30.7556 32.3478 30.7463 32.1466 30.7975C31.9456 30.8424 31.7523 30.9513 31.5666 31.1241C31.2882 31.3834 31.1525 31.6612 31.1594 31.9578C31.1664 32.2543 31.3226 32.5633 31.6282 32.8848L32.2878 33.5786C32.5902 33.8968 32.8924 34.0701 33.1941 34.0983C33.4961 34.1202 33.7912 33.9968 34.0796 33.7284C34.2321 33.5864 34.3415 33.432 34.4078 33.2651C34.4775 33.0952 34.5069 32.9224 34.4962 32.7468C34.4889 32.5682 34.4458 32.398 34.3671 32.2363L35.4323 32.6174L35.0047 33.0155C35.1608 33.2783 35.265 33.5523 35.3174 33.8374C35.3698 34.1226 35.3415 34.4117 35.2327 34.7047C35.1238 34.9978 34.9103 35.2924 34.5921 35.5887ZM36.0109 34.0544L34.891 32.7874L34.6229 32.5547L32.7613 30.5962L32.5601 30.3847L31.2072 29.0008L29.832 27.5541L31.3435 26.1468L37.5224 32.6471L36.0109 34.0544Z" fill="white"/>
<path d="M42.7173 29.0912C41.6961 29.7512 40.7936 30.0145 40.0098 29.881C39.2234 29.7437 38.5453 29.2432 37.9755 28.3797L37.5947 27.8027C37.0323 26.9505 36.8305 26.1503 36.9891 25.4023C37.1452 24.6504 37.6596 23.9925 38.5321 23.4286C39.1189 23.0493 39.6726 22.834 40.1931 22.7826C40.715 22.7251 41.1938 22.8164 41.6295 23.0566C42.069 23.2943 42.458 23.6696 42.7964 24.1824L42.9196 24.3691C43.0142 24.5124 43.1036 24.6644 43.1879 24.8251C43.2735 24.9795 43.3472 25.1283 43.4089 25.2713L41.8315 26.2908C41.7024 26.0623 41.5763 25.8506 41.4532 25.6558C41.3276 25.4573 41.2125 25.2788 41.108 25.1204C40.9562 24.8904 40.7931 24.7215 40.6187 24.6136C40.4418 24.502 40.2497 24.454 40.0426 24.4696C39.8392 24.4827 39.6194 24.5656 39.3832 24.7182C39.0326 24.9448 38.8377 25.2053 38.7982 25.4998C38.7601 25.788 38.8543 26.1037 39.0808 26.4469L39.4167 26.9559L39.5513 27.1352L39.8126 27.5312C39.9072 27.6745 40.0196 27.7954 40.15 27.8941C40.2841 27.9903 40.4426 28.0493 40.6254 28.071C40.8095 28.0864 41.0251 28.0547 41.272 27.9758C41.5202 27.8907 41.8081 27.7422 42.1358 27.5304C42.4826 27.3063 42.7948 27.0588 43.0726 26.7878C43.3478 26.513 43.5949 26.2243 43.8136 25.9215L44.5292 27.3149C44.3572 27.6143 44.1189 27.9163 43.8143 28.2207C43.5097 28.5252 43.1441 28.8153 42.7173 29.0912ZM39.088 28.0641L38.3825 26.995L42.3491 24.4312L43.0546 25.5003L39.088 28.0641Z" fill="white"/>
<path d="M50.1736 25.1022C49.1773 25.5229 48.3185 25.5966 47.5971 25.3234C46.878 25.0444 46.3265 24.4595 45.9425 23.5688L45.5969 22.7672C45.2075 21.8641 45.161 21.0562 45.4574 20.3434C45.7519 19.6265 46.3952 19.0586 47.3873 18.6397C48.3793 18.2207 49.2366 18.155 49.9592 18.4423C50.6842 18.7238 51.2414 19.3161 51.6308 20.2192L51.9764 21.0208C52.3604 21.9114 52.4054 22.7102 52.1115 23.417C51.8158 24.1197 51.1698 24.6815 50.1736 25.1022ZM49.5279 23.6046C49.8837 23.4543 50.1081 23.2347 50.2012 22.9456C50.2967 22.6507 50.2596 22.3064 50.0899 21.9129L49.6746 20.9497C49.496 20.5355 49.2661 20.2604 48.9849 20.1245C48.7078 19.9869 48.3914 19.9932 48.0356 20.1434C47.6798 20.2937 47.4542 20.5163 47.3587 20.8113C47.2674 21.1045 47.311 21.4582 47.4896 21.8724L47.9049 22.8356C48.0746 23.2291 48.298 23.4947 48.575 23.6324C48.8545 23.7641 49.1721 23.7549 49.5279 23.6046Z" fill="white"/>
<path d="M60.2338 17.6096L58.8014 16.9381L59.6915 15.7122L59.6714 15.6744L58.2494 15.6927L58.3773 14.1247L59.8678 14.4787L59.8903 14.4477L59.4521 13.0537L61.143 12.7796L61.1703 14.2402L61.2016 14.2625L62.5068 13.4553L63.1335 14.9009L61.7732 15.3337L61.7731 15.3748L63.0118 16.2556L61.8775 17.3432L60.8572 16.1941L60.8168 16.2007L60.2338 17.6096Z" fill="white"/>
<circle cx="71" cy="70.7812" r="30" fill="white"/>
<g clip-path="url(#clip0_29_3165)">
<path d="M66.401 63.134C64.9585 62.3066 63.7891 62.9844 63.7891 64.6468V76.9145C63.7891 78.5785 64.9585 79.2555 66.401 78.4289L77.1236 72.2795C78.5666 71.4518 78.5666 70.1108 77.1236 69.2832L66.401 63.134Z" fill="#39251A"/>
</g>
<defs>
<clipPath id="clip0_29_3165">
<rect width="16" height="16" fill="white" transform="translate(63 62.7812)"/>
</clipPath>
</defs>
</svg>
